<svg width="21" height="20" viewBox="0 0 21 20" fill="none" xmlns="http://www.w3.org/2000/svg">
<rect x="0.5" width="20" height="20" rx="4" fill="#FFF4D9"/>
<g clipPath="url(#clip0_2654_374925)">
<path d="M10.9762 7.40488C10.6679 7.43647 10.3723 7.54456 10.1164 7.71931C9.86046 7.89407 9.6522 8.12997 9.51053 8.40561C9.36887 8.68125 9.29827 8.9879 9.30515 9.29774C9.31203 9.60758 9.39616 9.9108 9.54993 10.1799C9.76074 10.5307 9.87302 10.9319 9.87493 11.3411V11.4799C9.87263 11.6449 9.90285 11.8087 9.96386 11.962C10.0249 12.1153 10.1155 12.255 10.2305 12.3733C10.4628 12.6122 10.7805 12.749 11.1137 12.7536C11.4469 12.7583 11.7682 12.6304 12.0071 12.3981C12.1254 12.283 12.2198 12.1458 12.2851 11.9943C12.3504 11.8428 12.3851 11.6799 12.3874 11.5149C12.3764 11.0743 12.4937 10.64 12.7249 10.2649C12.915 9.97069 13.0181 9.62881 13.0225 9.27859C13.0268 8.92837 12.9322 8.58403 12.7495 8.28522C12.5668 7.9864 12.3034 7.74525 11.9897 7.58951C11.676 7.43377 11.3247 7.36977 10.9762 7.40488Z" fill="#43CDAE"/>
<path d="M11.0101 7.7792C10.9302 7.79219 10.8567 7.8307 10.8004 7.88896C10.7442 7.94722 10.7084 8.0221 10.6983 8.10243C10.6881 8.18275 10.7043 8.26419 10.7443 8.33458C10.7842 8.40497 10.8459 8.46053 10.9201 8.49295L11.9764 8.88795C12.0426 8.91313 12.1152 8.91638 12.1835 8.89724C12.2517 8.8781 12.312 8.83758 12.3555 8.78162C12.399 8.72566 12.4235 8.65723 12.4252 8.58637C12.4269 8.51551 12.4059 8.44596 12.3651 8.38795C12.2127 8.17635 12.0072 8.00867 11.7693 7.9018C11.5314 7.79493 11.2696 7.75264 11.0101 7.7792Z" fill="white"/>
<path d="M10.2105 9.42288C10.1433 9.422 10.0771 9.43888 10.0186 9.4718C9.96003 9.50473 9.91123 9.55254 9.8771 9.61039C9.84297 9.66824 9.82473 9.73409 9.82423 9.80125C9.82373 9.86842 9.84098 9.93453 9.87424 9.99288C10.1207 10.4014 10.2504 10.8696 10.2492 11.3466V11.4866C10.2461 11.7204 10.3359 11.9458 10.499 12.1133C10.662 12.2807 10.8849 12.3766 11.1186 12.3798C11.3523 12.3829 11.5777 12.2931 11.7452 12.13C11.9127 11.967 12.0086 11.7441 12.0117 11.5104C11.9988 10.995 12.1379 10.4872 12.4117 10.0504C12.4492 9.98735 12.4692 9.9155 12.4697 9.84219C12.4703 9.76887 12.4513 9.69673 12.4148 9.63315C12.3783 9.56957 12.3256 9.51682 12.262 9.48032C12.1984 9.44381 12.1263 9.42485 12.053 9.42538L10.2105 9.42288Z" fill="#439695"/>
<path d="M11.8746 11.0584L11.2496 11.6684L11.2621 10.7596L12.0671 9.97711C12.091 9.95407 12.1047 9.92249 12.1053 9.88932C12.1059 9.85615 12.0933 9.8241 12.0702 9.80023C12.0472 9.77636 12.0156 9.76263 11.9825 9.76204C11.9493 9.76145 11.9172 9.77407 11.8934 9.79711L11.2684 10.4059L11.2809 9.47461C11.2809 9.44146 11.2677 9.40966 11.2443 9.38622C11.2208 9.36278 11.189 9.34961 11.1559 9.34961C11.1227 9.34961 11.0909 9.36278 11.0675 9.38622C11.044 9.40966 11.0309 9.44146 11.0309 9.47461L11.0184 10.4071L10.4096 9.78211C10.3982 9.77029 10.3846 9.76083 10.3695 9.75428C10.3545 9.74773 10.3383 9.74421 10.3218 9.74392C10.2887 9.74333 10.2566 9.75594 10.2327 9.77898C10.2089 9.80203 10.1951 9.8336 10.1946 9.86677C10.194 9.89995 10.2066 9.93199 10.2296 9.95586L11.0134 10.7621L10.9996 11.6646L10.3909 11.0396C10.3795 11.0278 10.3658 11.0183 10.3508 11.0118C10.3357 11.0052 10.3195 11.0017 10.3031 11.0014C10.2699 11.0008 10.2379 11.0134 10.214 11.0365C10.1901 11.0595 10.1764 11.0911 10.1758 11.1243C10.1752 11.1574 10.1878 11.1895 10.2109 11.2134L10.9996 12.0184L10.9784 13.5596C10.9784 13.5928 10.9915 13.6246 11.015 13.648C11.0384 13.6714 11.0702 13.6846 11.1034 13.6846C11.1365 13.6846 11.1683 13.6714 11.1918 13.648C11.2152 13.6246 11.2284 13.5928 11.2284 13.5596L11.2496 12.0209L12.0546 11.2384C12.0785 11.2145 12.0919 11.1821 12.0919 11.1484C12.0919 11.1146 12.0785 11.0822 12.0546 11.0584C12.0308 11.0345 11.9984 11.0211 11.9646 11.0211C11.9309 11.0211 11.8985 11.0345 11.8746 11.0584Z" fill="#43F0C7"/>
<path d="M10.3522 8.00586C10.3522 8.74961 9.63469 9.34961 8.75094 9.34961C7.86719 9.34961 7.14844 8.74961 7.14844 8.00586C7.14844 7.22336 7.91719 6.66211 8.74969 6.66211C9.58219 6.66211 10.3522 7.23336 10.3522 8.00586Z" fill="#D72443"/>
<path d="M7.92719 7.62507C7.82251 7.62306 7.7213 7.66255 7.64565 7.73492C7.57 7.80729 7.52606 7.90666 7.52344 8.01132C7.5289 8.21643 7.60992 8.41229 7.75094 8.56132C7.80888 8.62321 7.88415 8.66618 7.96691 8.68461C8.04967 8.70303 8.13606 8.69605 8.21478 8.66459C8.29351 8.63313 8.36091 8.57864 8.40818 8.50825C8.45544 8.43786 8.48036 8.35485 8.47969 8.27007V8.02007C8.47739 7.91364 8.43315 7.81243 8.3566 7.73846C8.28005 7.66448 8.17738 7.62373 8.07094 7.62507H7.92719Z" fill="#FF3D57"/>
<path d="M10.0562 7.22965L9.47875 7.2084L9.02625 7.77215L8.365 7.13465L7.625 7.0484C8.31875 6.47215 9.48 6.54715 10.0562 7.22965Z" fill="#43CDAE"/>
<path d="M8.90734 7.04906C8.87419 7.04906 8.8424 7.03589 8.81896 7.01245C8.79551 6.98901 8.78234 6.95721 8.78234 6.92406C8.78233 6.59479 8.66788 6.27576 8.45859 6.02156C8.43738 5.99604 8.42717 5.96313 8.43022 5.93007C8.43326 5.89702 8.44932 5.86653 8.47484 5.84531C8.50037 5.8241 8.53328 5.81389 8.56633 5.81694C8.59939 5.81998 8.62988 5.83604 8.65109 5.86156C8.89531 6.16165 9.02785 6.53717 9.02609 6.92406C9.02613 6.95616 9.01383 6.98704 8.99172 7.01031C8.96961 7.03358 8.9394 7.04746 8.90734 7.04906Z" fill="#439695"/>
<path d="M8.42969 8.83338C8.47469 8.50588 8.74969 8.49963 8.70594 8.50713C9.34719 8.42713 9.95594 9.02963 10.0547 9.85213L10.0859 10.1021C10.1884 10.9259 9.75219 11.6584 9.11094 11.7384C8.87594 11.7671 8.76969 11.5059 8.76344 11.4884L8.42969 8.83338Z" fill="#F96340"/>
<path d="M9.91219 9.35039C9.64719 8.72539 9.14844 8.45289 8.70594 8.50789C8.63051 8.5245 8.56262 8.56542 8.51271 8.62436C8.4628 8.6833 8.43363 8.757 8.42969 8.83414L8.52844 9.62539C8.54998 9.80877 8.6384 9.97777 8.77679 10.1C8.91518 10.2223 9.0938 10.2891 9.27844 10.2879C9.3905 10.2889 9.50107 10.2622 9.60028 10.2101C9.69949 10.158 9.78426 10.0821 9.84702 9.9893C9.90978 9.89646 9.94858 9.78952 9.95995 9.67804C9.97132 9.56655 9.95491 9.45399 9.91219 9.35039Z" fill="#F99559"/>
<path d="M6.2358 9.10899C6.1108 8.80149 5.84955 8.86524 5.8883 8.85899C5.24955 8.94024 4.8108 9.67274 4.9133 10.5002L4.94455 10.7502C5.0483 11.574 5.65205 12.1752 6.2933 12.0952C6.52705 12.0665 6.56705 11.7852 6.56955 11.769L6.2358 9.10899Z" fill="#F96340"/>
<path d="M5.76438 11.0146C5.67359 11.0149 5.58499 11.0426 5.51017 11.094C5.43534 11.1454 5.37776 11.2182 5.34495 11.3028C5.31214 11.3875 5.30563 11.4801 5.32627 11.5685C5.34691 11.6569 5.39373 11.737 5.46063 11.7984C5.56959 11.9055 5.70075 11.9873 5.84483 12.038C5.9889 12.0888 6.14237 12.1073 6.29438 12.0921C6.33931 12.0824 6.38184 12.0638 6.41951 12.0375C6.45717 12.0111 6.48922 11.9775 6.51377 11.9387C6.53832 11.8998 6.55489 11.8565 6.5625 11.8111C6.57012 11.7658 6.56863 11.7194 6.55813 11.6746L6.52563 11.4096C6.51196 11.3008 6.45912 11.2007 6.37699 11.128C6.29486 11.0553 6.18906 11.015 6.07938 11.0146H5.76438Z" fill="#DB4013"/>
<path d="M6.29707 9.58486L6.23707 9.10861C6.21498 9.03435 6.16888 8.96953 6.106 8.92428C6.04311 8.87904 5.96699 8.85594 5.88957 8.85861C5.49957 8.90736 5.18582 9.19736 5.02332 9.60236C4.99399 9.67891 4.98394 9.76151 4.99405 9.84287C5.00416 9.92423 5.03412 10.0019 5.08129 10.0689C5.12846 10.136 5.1914 10.1904 5.26456 10.2274C5.33772 10.2644 5.41885 10.2828 5.50082 10.2811H5.68207C5.76966 10.2803 5.85609 10.261 5.93577 10.2247C6.01545 10.1883 6.08659 10.1355 6.14458 10.0699C6.20256 10.0042 6.24611 9.92714 6.27238 9.84358C6.29865 9.76002 6.30706 9.67188 6.29707 9.58486Z" fill="#F99559"/>
<path d="M7.12443 9.17596L6.87443 7.93596C6.8723 7.92387 6.87263 7.91147 6.87541 7.89951C6.87818 7.88755 6.88334 7.87627 6.89057 7.86635C6.89781 7.85643 6.90698 7.84807 6.91752 7.84177C6.92806 7.83548 6.93977 7.83138 6.95193 7.82971L7.41193 7.77221C7.42409 7.77065 7.43643 7.77161 7.44819 7.77505C7.45995 7.77849 7.47087 7.78433 7.48027 7.79219C7.48966 7.80006 7.49733 7.80979 7.50278 7.82076C7.50823 7.83174 7.51134 7.84372 7.51193 7.85596L7.62443 9.12471L7.12443 9.17596Z" fill="#BA603D"/>
<path d="M7.62468 11.25C7.68218 11.715 7.31093 12.0875 6.92218 11.9437C6.49468 11.7875 6.26968 11.42 6.21093 10.9512L6.08593 9.95873C6.02718 9.48998 6.15468 9.08374 6.52968 8.82124C6.87218 8.58749 7.32343 8.85624 7.38093 9.32124L7.62468 11.25Z" fill="#F96340"/>
<path d="M7.35534 11.0147H6.57659C6.53182 11.0141 6.48762 11.0248 6.44802 11.0457C6.40842 11.0666 6.37466 11.0971 6.34982 11.1343C6.32499 11.1716 6.30985 11.2145 6.30579 11.259C6.30174 11.3036 6.30888 11.3485 6.32659 11.3897C6.38159 11.5174 6.46238 11.6324 6.56391 11.7275C6.66544 11.8226 6.7855 11.8957 6.91659 11.9422C7.30784 12.0872 7.67909 11.7147 7.62534 11.2497C7.61679 11.1843 7.58462 11.1243 7.53488 11.081C7.48514 11.0377 7.42128 11.0141 7.35534 11.0147Z" fill="#DB4013"/>
<path d="M6.97913 10.2812C7.0441 10.2812 7.10832 10.2674 7.16754 10.2406C7.22675 10.2139 7.27962 10.1749 7.32264 10.1262C7.36565 10.0775 7.39784 10.0203 7.41706 9.95821C7.43628 9.89615 7.4421 9.83071 7.43413 9.76624L7.37413 9.32124C7.31663 8.85624 6.86538 8.58749 6.52288 8.82124C5.83913 9.29249 6.22663 10.2812 6.97913 10.2812Z" fill="#F99559"/>
<path d="M6.98078 9.9066C6.58828 9.9066 6.39328 9.4066 6.69203 9.1666C6.72086 9.13675 6.75857 9.11702 6.79953 9.11035C6.8581 9.12376 6.91049 9.15641 6.94833 9.20308C6.98617 9.24976 7.00728 9.30777 7.00828 9.36785L7.06328 9.81285C7.06489 9.82459 7.06396 9.83654 7.06054 9.84789C7.05713 9.85923 7.05131 9.86971 7.04348 9.87861C7.03565 9.8875 7.026 9.89461 7.01518 9.89944C7.00436 9.90427 6.99262 9.90671 6.98078 9.9066Z" fill="white"/>
<path d="M7.37505 9.3213C7.31755 8.8563 7.6888 8.48505 8.07755 8.62755C8.50505 8.7838 8.73005 9.1513 8.7888 9.62005L8.9138 10.6126C8.97255 11.0813 8.84505 11.4876 8.47005 11.7501C8.12505 11.9838 7.6788 11.7151 7.62505 11.2501L7.37505 9.3213Z" fill="#F96340"/>
<path d="M7.82846 11.0146C7.79911 11.0151 7.77019 11.0218 7.74359 11.0342C7.71699 11.0466 7.6933 11.0644 7.67407 11.0866C7.65485 11.1088 7.64051 11.1348 7.63201 11.1629C7.6235 11.191 7.62101 11.2205 7.62471 11.2496C7.68221 11.7096 8.13096 11.9859 8.47596 11.7496C8.53876 11.7065 8.59698 11.6571 8.64971 11.6021C8.69549 11.5526 8.72599 11.4909 8.73753 11.4244C8.74907 11.358 8.74115 11.2896 8.71474 11.2275C8.68833 11.1655 8.64454 11.1124 8.58865 11.0746C8.53276 11.0368 8.46715 11.016 8.39971 11.0146H7.82846Z" fill="#DB4013"/>
<path d="M8.30622 10.2812C8.3776 10.2818 8.44829 10.2671 8.51352 10.238C8.57874 10.209 8.637 10.1664 8.68437 10.113C8.73174 10.0596 8.76712 9.99663 8.78814 9.9284C8.80916 9.86018 8.81532 9.78824 8.80622 9.71743L8.79247 9.62493C8.73372 9.15618 8.50872 8.78868 8.08122 8.63243C7.69247 8.48993 7.32122 8.86118 7.37872 9.32618L7.39872 9.48618C7.42783 9.70622 7.53593 9.90818 7.70288 10.0544C7.86983 10.2007 8.08426 10.2813 8.30622 10.2812Z" fill="#F99559"/>
<path d="M9.54942 10.3387C9.53041 10.3391 9.51154 10.3353 9.49426 10.3274C9.47697 10.3194 9.46173 10.3077 9.44967 10.293C9.43762 10.2783 9.42908 10.261 9.4247 10.2425C9.42033 10.224 9.42023 10.2047 9.42442 10.1862C9.43442 10.1397 9.44069 10.0924 9.44317 10.0449C9.44317 10.0118 9.45634 9.97999 9.47978 9.95654C9.50322 9.9331 9.53501 9.91993 9.56817 9.91993C9.58512 9.91991 9.6019 9.92334 9.61749 9.93001C9.63308 9.93668 9.64715 9.94645 9.65884 9.95873C9.67053 9.971 9.67961 9.98553 9.68551 10.0014C9.69141 10.0173 9.69401 10.0342 9.69317 10.0512C9.69001 10.113 9.68165 10.1745 9.66817 10.2349C9.6633 10.2632 9.64884 10.289 9.62722 10.3079C9.60559 10.3268 9.57812 10.3377 9.54942 10.3387ZM9.52692 9.74993C9.49836 9.75076 9.47038 9.74179 9.44764 9.72451C9.4249 9.70722 9.40876 9.68267 9.40192 9.65493C9.37848 9.55549 9.33518 9.46181 9.2746 9.37953C9.21402 9.29726 9.13742 9.22809 9.04942 9.17618C9.03509 9.16802 9.02253 9.1571 9.01244 9.14405C9.00236 9.13101 8.99495 9.1161 8.99065 9.10018C8.98635 9.08427 8.98525 9.06765 8.98739 9.05131C8.98954 9.03496 8.9949 9.0192 9.00317 9.00493C9.01966 8.97634 9.04679 8.95543 9.07863 8.94677C9.11048 8.9381 9.14446 8.94239 9.17317 8.95868C9.29089 9.02707 9.39341 9.11878 9.47444 9.22818C9.55548 9.33759 9.61332 9.46239 9.64442 9.59493C9.6489 9.61304 9.64928 9.63191 9.64552 9.65018C9.64176 9.66845 9.63396 9.68564 9.6227 9.7005C9.61143 9.71537 9.59698 9.72752 9.58041 9.73607C9.56384 9.74463 9.54556 9.74936 9.52692 9.74993Z" fill="white"/>
<path d="M15.6933 8.25029C15.453 8.05448 15.1677 7.9218 14.8631 7.86431C14.5586 7.80682 14.2445 7.82634 13.9494 7.9211C13.6543 8.01586 13.3876 8.18286 13.1735 8.40691C12.9593 8.63096 12.8046 8.90497 12.7233 9.20404C12.6242 9.59974 12.4199 9.96126 12.132 10.2503L12.032 10.3478C11.8046 10.5823 11.6776 10.8962 11.6777 11.2229C11.6779 11.5496 11.8053 11.8633 12.033 12.0976C12.2606 12.3319 12.5705 12.4683 12.8971 12.4779C13.2236 12.4875 13.541 12.3696 13.782 12.149C14.0852 11.8268 14.4764 11.6008 14.907 11.499C15.2472 11.4241 15.5595 11.2551 15.8083 11.0113C16.0572 10.7675 16.2325 10.4587 16.3145 10.1202C16.3964 9.78158 16.3816 9.42679 16.2718 9.09621C16.162 8.76562 15.9615 8.47252 15.6933 8.25029Z" fill="#43CDAE"/>
<path d="M14.7045 7.84209C14.3298 7.87791 13.9751 8.02755 13.6879 8.27089C13.4008 8.51423 13.195 8.83961 13.0982 9.20334C12.9991 9.59903 12.7948 9.96055 12.507 10.2496L12.407 10.3471C12.2363 10.5099 12.115 10.7174 12.0568 10.946C11.9987 11.1745 12.006 11.4148 12.078 11.6394C12.15 11.864 12.2837 12.0637 12.4639 12.2159C12.6441 12.368 12.8635 12.4663 13.097 12.4996C12.8327 12.5438 12.5613 12.502 12.3226 12.3802C12.084 12.2585 11.8907 12.0633 11.7714 11.8234C11.6521 11.5835 11.613 11.3117 11.6599 11.0479C11.7068 10.7841 11.8373 10.5424 12.032 10.3583L12.132 10.2608C12.4206 9.97041 12.6249 9.60707 12.7232 9.20959C12.836 8.78274 13.0976 8.41028 13.461 8.15949C13.8243 7.90871 14.2654 7.79613 14.7045 7.84209Z" fill="#43BE90"/>
<path d="M15.1435 9.38519C15.2419 9.38579 15.3381 9.35604 15.419 9.29998C15.4999 9.24393 15.5616 9.16429 15.5956 9.07192C15.6297 8.97955 15.6344 8.87894 15.6092 8.78379C15.5839 8.68864 15.53 8.60358 15.4547 8.54019C15.1675 8.30667 14.8036 8.18834 14.434 8.20821C14.0643 8.22807 13.7153 8.38472 13.4547 8.64769C13.3956 8.70959 13.356 8.78752 13.3409 8.87176C13.3257 8.956 13.3357 9.04283 13.3695 9.12145C13.4034 9.20006 13.4596 9.26698 13.5312 9.31388C13.6028 9.36078 13.6866 9.38557 13.7722 9.38519H15.1435Z" fill="#43F0C7"/>
<path d="M13.7814 8.11332C13.7812 8.14337 13.7882 8.17302 13.802 8.19975C13.8157 8.22647 13.8357 8.24948 13.8603 8.26679C13.8849 8.28411 13.9132 8.29522 13.943 8.29919C13.9728 8.30316 14.0031 8.29985 14.0314 8.28957C14.3549 8.17518 14.7078 8.17518 15.0314 8.28957C15.0763 8.3003 15.1237 8.29403 15.1643 8.27197C15.205 8.24991 15.236 8.21361 15.2515 8.17005C15.267 8.12649 15.2659 8.07873 15.2483 8.03596C15.2308 7.99318 15.198 7.95841 15.1564 7.93832C14.7526 7.79401 14.3118 7.79137 13.9064 7.93082C13.8688 7.94388 13.8363 7.96866 13.8138 8.0015C13.7913 8.03434 13.78 8.07353 13.7814 8.11332Z" fill="white"/>
<path d="M15.985 9.88986C15.9453 10.1914 15.8133 10.4734 15.6073 10.6971C15.4012 10.9209 15.131 11.0755 14.8337 11.1399C14.3329 11.2567 13.8771 11.5174 13.5225 11.8899C13.383 12.0335 13.1984 12.125 12.9996 12.149C12.8008 12.173 12.5998 12.1281 12.4301 12.0217C12.2604 11.9154 12.1323 11.754 12.0673 11.5647C12.0022 11.3753 12.004 11.1693 12.0725 10.9811C12.0807 10.9535 12.0824 10.9243 12.0772 10.8959C12.0721 10.8675 12.0604 10.8407 12.0429 10.8177C12.0255 10.7947 12.003 10.7761 11.977 10.7635C11.9511 10.7508 11.9226 10.7444 11.8937 10.7449C11.8545 10.7444 11.816 10.7562 11.7838 10.7786C11.7515 10.801 11.727 10.8329 11.7137 10.8699C11.6222 11.1376 11.6242 11.4285 11.7194 11.695C11.8146 11.9615 11.9974 12.1878 12.238 12.3369C12.4785 12.4859 12.7625 12.549 13.0435 12.5157C13.3245 12.4824 13.586 12.3548 13.785 12.1536C14.0882 11.8314 14.4794 11.6054 14.91 11.5036C15.2833 11.4239 15.6228 11.2306 15.8818 10.9501C16.1408 10.6697 16.3065 10.3159 16.3562 9.93736C16.3594 9.91273 16.3576 9.88774 16.3511 9.8638C16.3445 9.83985 16.3333 9.81744 16.3181 9.79782C16.3029 9.7782 16.284 9.76177 16.2624 9.74947C16.2409 9.73716 16.2171 9.72923 16.1925 9.72611C16.1679 9.72299 16.1429 9.72475 16.1189 9.73129C16.095 9.73783 16.0726 9.74903 16.053 9.76423C16.0333 9.77944 16.0169 9.79836 16.0046 9.81991C15.9923 9.84147 15.9844 9.86523 15.9812 9.88986H15.985Z" fill="#439695"/>
<path d="M14.6519 10.5929L13.7769 10.5804L14.4456 9.93039C14.4574 9.91898 14.4669 9.90536 14.4735 9.89029C14.48 9.87523 14.4835 9.85902 14.4838 9.8426C14.4841 9.82618 14.4812 9.80986 14.4751 9.79457C14.4691 9.77928 14.4602 9.76533 14.4487 9.75352C14.4373 9.7417 14.4237 9.73224 14.4087 9.72569C14.3936 9.71913 14.3774 9.71561 14.361 9.71532C14.3445 9.71503 14.3282 9.71798 14.3129 9.724C14.2976 9.73001 14.2837 9.73898 14.2719 9.75039L13.6044 10.4004L13.6169 9.52539C13.6169 9.49224 13.6037 9.46044 13.5803 9.437C13.5568 9.41356 13.525 9.40039 13.4919 9.40039C13.4587 9.40039 13.4269 9.41356 13.4035 9.437C13.38 9.46044 13.3669 9.49224 13.3669 9.52539L13.3506 10.6504L12.6994 11.2816L12.7119 10.4066C12.7119 10.3735 12.6987 10.3417 12.6753 10.3183C12.6518 10.2948 12.62 10.2816 12.5869 10.2816C12.5537 10.2816 12.5219 10.2948 12.4985 10.3183C12.475 10.3417 12.4619 10.3735 12.4619 10.4066L12.4469 11.5316L11.3419 12.6066C11.321 12.6303 11.3098 12.6609 11.3106 12.6924C11.3113 12.7239 11.3239 12.7539 11.3459 12.7765C11.3679 12.7991 11.3976 12.8126 11.429 12.8142C11.4605 12.8159 11.4914 12.8056 11.5156 12.7854L12.6244 11.7066L13.7494 11.7229C13.7825 11.7229 13.8143 11.7097 13.8378 11.6863C13.8612 11.6628 13.8744 11.631 13.8744 11.5979C13.8744 11.5647 13.8612 11.5329 13.8378 11.5095C13.8143 11.4861 13.7825 11.4729 13.7494 11.4729L12.8744 11.4604L13.5256 10.8279L14.6506 10.8429C14.6838 10.8429 14.7156 10.8297 14.739 10.8063C14.7625 10.7828 14.7756 10.751 14.7756 10.7179C14.7756 10.6847 14.7625 10.6529 14.739 10.6295C14.7156 10.6061 14.6838 10.5929 14.6506 10.5929H14.6519Z" fill="#43F0C7"/>
<path d="M12.8404 12.5786H12.9316C13.0578 12.5785 13.1792 12.5308 13.2716 12.4449C13.2979 12.4197 13.3268 12.3975 13.3579 12.3786C13.2996 12.2919 13.2707 12.1888 13.2753 12.0844C13.2799 11.98 13.3179 11.8799 13.3836 11.7987C13.4493 11.7174 13.5393 11.6594 13.6404 11.6331C13.7415 11.6068 13.8484 11.6135 13.9454 11.6524C13.9448 11.5777 13.9613 11.5038 13.9935 11.4364C14.0258 11.3689 14.0729 11.3097 14.1314 11.2632C14.1899 11.2167 14.2582 11.1841 14.3312 11.168C14.4041 11.1518 14.4798 11.1524 14.5525 11.1698C14.6252 11.1872 14.6929 11.2209 14.7506 11.2683C14.8084 11.3158 14.8545 11.3757 14.8857 11.4437C14.9168 11.5116 14.932 11.5858 14.9302 11.6605C14.9285 11.7352 14.9097 11.8085 14.8754 11.8749C14.9382 11.845 15.0079 11.8322 15.0772 11.8378C15.1466 11.8434 15.2133 11.8672 15.2705 11.9067C15.3278 11.9462 15.3737 12.0001 15.4035 12.063C15.4333 12.1259 15.446 12.1955 15.4404 12.2649C15.5719 12.2451 15.7061 12.2744 15.8175 12.3471C15.9288 12.4198 16.0096 12.5308 16.0445 12.6592C16.0793 12.7875 16.0658 12.9242 16.0066 13.0432C15.9473 13.1623 15.8463 13.2554 15.7229 13.3049C15.7923 13.3524 15.8432 13.4225 15.8667 13.5033C15.8903 13.584 15.8851 13.6705 15.8521 13.7479C15.8191 13.8253 15.7603 13.8888 15.6856 13.9277C15.611 13.9666 15.5252 13.9784 15.4429 13.9611C15.4435 14.0503 15.414 14.1371 15.3593 14.2076C15.3046 14.278 15.2278 14.328 15.1412 14.3495C15.0546 14.371 14.9634 14.3627 14.882 14.3261C14.8007 14.2894 14.7341 14.2265 14.6929 14.1474C14.5567 14.2088 14.405 14.2275 14.2579 14.2009C14.1108 14.1744 13.9753 14.1038 13.8691 13.9986C13.8449 13.9722 13.8224 13.9442 13.8016 13.9149C13.7616 13.9149 13.7404 13.9249 13.6129 13.8674C13.3529 13.7511 13.1891 13.5274 13.2754 13.2424C13.1757 13.1425 13.0414 13.0848 12.9004 13.0811H12.8379L12.8404 12.5786Z" fill="#43D795"/>
<path d="M15.524 12.625L15.2815 12.6637C15.2483 12.6698 15.214 12.6679 15.1816 12.6581C15.1492 12.6484 15.1196 12.6311 15.0952 12.6076C15.0708 12.5842 15.0523 12.5553 15.0412 12.5233C15.0302 12.4914 15.0268 12.4572 15.0315 12.4237L15.0603 12.22C15.0586 12.2157 15.0557 12.212 15.0519 12.2093C15.0481 12.2066 15.0437 12.2051 15.039 12.205C15.0265 12.205 14.9765 12.2325 14.3853 12.5037C14.3589 12.5155 14.3295 12.5187 14.3012 12.5129C14.2729 12.507 14.2472 12.4924 14.2277 12.4711C14.2082 12.4498 14.1959 12.4229 14.1925 12.3942C14.1892 12.3655 14.195 12.3364 14.209 12.3112C14.2163 12.296 14.2204 12.2795 14.2211 12.2627C14.2218 12.2458 14.2191 12.229 14.2131 12.2133C14.2072 12.1975 14.1981 12.1831 14.1864 12.1709C14.1748 12.1588 14.1608 12.1491 14.1453 12.1425L13.8015 12C13.7844 11.9938 13.7661 11.9918 13.748 11.9941C13.7299 11.9965 13.7127 12.0032 13.6978 12.0136C13.6828 12.024 13.6706 12.0378 13.6621 12.054C13.6536 12.0701 13.6492 12.088 13.649 12.1062C13.649 12.1525 13.6678 12.1687 13.7628 12.3112C13.7785 12.3348 13.7893 12.3613 13.7946 12.3892C13.7999 12.417 13.7996 12.4457 13.7936 12.4734C13.7877 12.5011 13.7763 12.5274 13.76 12.5506C13.7438 12.5739 13.723 12.5936 13.699 12.6087L13.6665 12.6287C13.6311 12.6509 13.6015 12.6813 13.5804 12.7174C13.5592 12.7535 13.5472 12.7942 13.5452 12.836C13.5432 12.8778 13.5514 12.9194 13.5691 12.9573C13.5867 12.9952 13.6133 13.0283 13.6465 13.0537C13.6639 13.0664 13.6769 13.0841 13.6836 13.1045C13.6904 13.125 13.6905 13.147 13.684 13.1675C13.6128 13.4025 13.6078 13.39 13.639 13.4325C13.6792 13.4786 13.731 13.5131 13.789 13.5325L13.859 13.5237C14.0103 13.505 14.059 13.6487 14.1303 13.7287C14.1825 13.78 14.2489 13.8144 14.321 13.8273C14.393 13.8402 14.4673 13.8312 14.534 13.8012L14.689 13.7312C14.7346 13.7125 14.7855 13.7115 14.8317 13.7284C14.878 13.7453 14.9162 13.7788 14.939 13.8225C15.0215 13.985 15.0178 13.9875 15.0365 13.9875C15.0415 13.9876 15.0465 13.9863 15.0507 13.9836C15.055 13.9809 15.0583 13.9771 15.0603 13.9725C15.0603 13.6862 15.0515 13.6612 15.0853 13.6087C15.1483 13.517 15.1799 13.4074 15.1753 13.2962C15.1667 13.2487 15.1744 13.1997 15.1971 13.157C15.2197 13.1144 15.2561 13.0807 15.3003 13.0612L15.5678 12.9525C15.6033 12.9387 15.6332 12.9133 15.6525 12.8805C15.6719 12.8477 15.6797 12.8093 15.6747 12.7715C15.6696 12.7337 15.652 12.6988 15.6247 12.6722C15.5974 12.6456 15.5619 12.629 15.524 12.625Z" fill="#43A590"/>
<path d="M15.5132 12.2501C15.4132 12.2501 15.4419 12.2776 15.4419 12.2288C15.4407 12.1624 15.4228 12.0973 15.3901 12.0396C15.3573 11.9818 15.3106 11.9331 15.2542 11.8979C15.1978 11.8628 15.1335 11.8423 15.0672 11.8383C15.0009 11.8343 14.9346 11.847 14.8744 11.8751C14.9093 11.8085 14.9284 11.7347 14.9304 11.6596C14.9323 11.5844 14.917 11.5098 14.8857 11.4415C14.8543 11.3731 14.8078 11.3129 14.7495 11.2653C14.6913 11.2178 14.6229 11.1842 14.5497 11.1671C14.4765 11.1501 14.4003 11.15 14.3271 11.167C14.2538 11.1839 14.1854 11.2174 14.1271 11.2648C14.0688 11.3123 14.0221 11.3725 13.9907 11.4408C13.9592 11.5091 13.9438 11.5837 13.9457 11.6588C13.8634 11.6243 13.7732 11.6132 13.6849 11.6266C13.5967 11.6401 13.5139 11.6776 13.4457 11.7351C13.4023 11.7728 13.3713 11.8227 13.3569 11.8783C13.3424 11.9339 13.345 11.9926 13.3645 12.0467C13.384 12.1008 13.4193 12.1477 13.4659 12.1813C13.5125 12.2149 13.5682 12.2337 13.6257 12.2351H13.7044C13.6594 12.1663 13.6432 12.1488 13.6432 12.1101C13.6423 12.0909 13.6463 12.0719 13.6548 12.0547C13.6633 12.0375 13.676 12.0228 13.6917 12.0118C13.7074 12.0008 13.7256 11.994 13.7447 11.9919C13.7637 11.9899 13.783 11.9927 13.8007 12.0001L14.1494 12.1438C14.1649 12.1504 14.1789 12.1601 14.1906 12.1723C14.2022 12.1845 14.2113 12.1989 14.2173 12.2146C14.2232 12.2304 14.2259 12.2472 14.2252 12.264C14.2245 12.2809 14.2204 12.2974 14.2132 12.3126C14.2009 12.3377 14.1965 12.3659 14.2007 12.3936C14.2048 12.4212 14.2173 12.4469 14.2364 12.4673C14.2556 12.4877 14.2805 12.5017 14.3078 12.5076C14.3351 12.5134 14.3636 12.5108 14.3894 12.5001L15.0294 12.2063H15.0432C15.0478 12.2065 15.0523 12.208 15.056 12.2107C15.0598 12.2133 15.0627 12.217 15.0644 12.2213L15.0357 12.4251C15.031 12.4586 15.0343 12.4927 15.0454 12.5247C15.0564 12.5567 15.0749 12.5856 15.0993 12.609C15.1237 12.6324 15.1533 12.6497 15.1857 12.6595C15.2181 12.6692 15.2524 12.6711 15.2857 12.6651L15.3694 12.6526C15.4121 12.6457 15.4525 12.629 15.4877 12.6038C15.5228 12.5787 15.5516 12.5457 15.5719 12.5076L15.6969 12.2838C15.6381 12.2619 15.5759 12.2505 15.5132 12.2501Z" fill="#43FAAE"/>
<path d="M14.6871 13.7297L14.5334 13.7997C14.4606 13.8332 14.3786 13.841 14.3007 13.8219C14.2229 13.8029 14.1538 13.758 14.1046 13.6947C13.9796 13.5322 13.9796 13.5072 13.7884 13.5309L13.7746 13.5234C13.7341 13.5015 13.6869 13.4954 13.6421 13.5062C13.5973 13.5171 13.5581 13.5441 13.5321 13.5822C13.5163 13.6047 13.5056 13.6304 13.5008 13.6575C13.4961 13.6846 13.4974 13.7124 13.5047 13.739C13.512 13.7655 13.5251 13.7901 13.543 13.811C13.5609 13.8318 13.5833 13.8485 13.6084 13.8597C13.6649 13.8945 13.7308 13.9111 13.7971 13.9072C13.8964 14.0425 14.0392 14.1394 14.2015 14.1818C14.3638 14.2241 14.5357 14.2092 14.6884 14.1397C14.7219 14.2089 14.7755 14.2664 14.8421 14.3047L14.9184 14.1059C15.0684 13.9122 14.8971 13.6347 14.6871 13.7297Z" fill="#437D95"/>
<path d="M12.8393 12.7498C12.8399 12.9452 12.802 13.1388 12.7278 13.3195C12.6536 13.5002 12.5444 13.6645 12.4066 13.8031C12.2688 13.9416 12.105 14.0515 11.9247 14.1267C11.7443 14.2018 11.5509 14.2407 11.3555 14.241C11.218 14.241 8.17051 13.9035 5.38176 13.5985C5.17382 13.5758 4.98157 13.4772 4.84191 13.3215C4.70224 13.1657 4.625 12.9639 4.625 12.7548C4.625 12.5456 4.70224 12.3438 4.84191 12.1881C4.98157 12.0323 5.17382 11.9337 5.38176 11.911C10.0355 11.411 11.233 11.271 11.3168 11.271C11.5144 11.2658 11.7111 11.3002 11.8953 11.3722C12.0795 11.4441 12.2474 11.5521 12.3893 11.6899C12.5311 11.8277 12.644 11.9924 12.7213 12.1744C12.7985 12.3564 12.8387 12.552 12.8393 12.7498Z" fill="#F99559"/>
<path d="M11.1472 11.2837L11.0222 11.2975C10.7359 11.3285 10.4605 11.4248 10.2172 11.5788C9.97382 11.7329 9.76902 11.9407 9.61848 12.1862C9.50334 12.3739 9.43754 12.5876 9.42722 12.8075C9.41689 13.0275 9.46238 13.2464 9.55944 13.444C9.6565 13.6417 9.80199 13.8115 9.98235 13.9378C10.1627 14.064 10.3721 14.1426 10.591 14.1662L11.1935 14.2325C11.4043 14.2552 11.6175 14.2326 11.8188 14.166C12.0201 14.0995 12.2049 13.9906 12.3606 13.8467C12.5163 13.7029 12.6394 13.5273 12.7217 13.3319C12.8039 13.1364 12.8433 12.9256 12.8372 12.7137C12.8292 12.5056 12.7779 12.3015 12.6867 12.1143C12.5955 11.9271 12.4662 11.7609 12.3073 11.6264C12.1483 11.4919 11.963 11.3919 11.7633 11.3329C11.5636 11.2739 11.3538 11.2572 11.1472 11.2837Z" fill="#F9AE6D"/>
<path d="M12.4007 13.3646H12.3757C12.348 13.3652 12.3208 13.372 12.2961 13.3845C12.2714 13.3971 12.2499 13.4151 12.2332 13.4371C12.117 13.5877 11.9639 13.7058 11.7887 13.7798C11.6135 13.8538 11.4221 13.8813 11.2332 13.8596L9.19565 13.6371C8.94455 13.604 8.70331 13.518 8.48785 13.3848C8.27239 13.2517 8.0876 13.0744 7.94565 12.8646L7.58815 12.3821C7.44131 12.1818 7.24433 12.0237 7.01701 11.9236C6.78969 11.8236 6.54004 11.7851 6.29315 11.8121L5.3819 11.9108C5.26834 11.9229 5.15838 11.9578 5.05862 12.0134C4.95886 12.069 4.87135 12.1442 4.80132 12.2344C4.73129 12.3246 4.68019 12.428 4.65108 12.5385C4.62197 12.6489 4.61545 12.7641 4.6319 12.8771C4.6638 13.0662 4.75692 13.2395 4.89694 13.3705C5.03696 13.5015 5.21613 13.5829 5.4069 13.6021C11.6794 14.2846 11.2269 14.2408 11.3532 14.2408C11.5827 14.2407 11.8091 14.1872 12.0144 14.0843C12.2197 13.9815 12.3981 13.8322 12.5357 13.6483C12.556 13.6227 12.5687 13.5919 12.5724 13.5594C12.5761 13.5269 12.5706 13.494 12.5566 13.4644C12.5425 13.4348 12.5205 13.4098 12.4929 13.3922C12.4653 13.3745 12.4334 13.365 12.4007 13.3646Z" fill="#F96340"/>
<path d="M11.7091 12.7072C11.7992 12.7078 11.8873 12.6803 11.9611 12.6285C12.0349 12.5768 12.0907 12.5033 12.1208 12.4183C12.1509 12.3334 12.1538 12.2412 12.1291 12.1545C12.1043 12.0678 12.0532 11.991 11.9828 11.9347C11.8206 11.8087 11.6208 11.7409 11.4153 11.7422C11.3375 11.7439 11.2599 11.7501 11.1828 11.761C10.963 11.7879 10.7536 11.87 10.5741 11.9997C10.5075 12.0487 10.458 12.1175 10.4328 12.1962C10.4075 12.275 10.4078 12.3597 10.4336 12.4383C10.4594 12.5169 10.5093 12.5853 10.5763 12.6338C10.6433 12.6823 10.7239 12.7085 10.8066 12.7085L11.7091 12.7072Z" fill="#F9E090"/>
<path d="M10.6566 11.5322C10.6566 11.5076 10.6514 11.4834 10.6413 11.461C10.6313 11.4386 10.6167 11.4185 10.5984 11.4021C10.5802 11.3858 10.5586 11.3734 10.5353 11.3659C10.5119 11.3583 10.4872 11.3558 10.4628 11.3584L5.3816 11.9109C5.25423 11.9259 5.13188 11.9694 5.02367 12.0383C4.91546 12.1071 4.82417 12.1994 4.7566 12.3084C4.74094 12.335 4.7326 12.3653 4.73242 12.3962C4.73225 12.4271 4.74025 12.4575 4.75561 12.4842C4.77097 12.511 4.79315 12.5333 4.81988 12.5487C4.84662 12.5642 4.87697 12.5723 4.90785 12.5722H4.93785C4.96708 12.5718 4.99579 12.5644 5.02149 12.5504C5.04719 12.5365 5.06911 12.5165 5.08535 12.4922C5.12363 12.4348 5.17401 12.3865 5.23297 12.3506C5.29192 12.3148 5.35801 12.2923 5.4266 12.2847L10.5003 11.7309C10.5431 11.726 10.5826 11.7057 10.6114 11.6737C10.6402 11.6417 10.6563 11.6002 10.6566 11.5572V11.5322Z" fill="#F9CC7C"/>
<path d="M8.83125 11.5359L7.105 11.7234C7.05903 11.7283 7.0165 11.75 6.98559 11.7844C6.95467 11.8188 6.93754 11.8634 6.9375 11.9096C6.93754 11.936 6.9431 11.962 6.95381 11.9861C6.96453 12.0101 6.98016 12.0317 6.9997 12.0493C7.01925 12.067 7.04227 12.0804 7.0673 12.0886C7.09232 12.0968 7.11879 12.0997 7.145 12.0971L8.875 11.9084C8.92097 11.9034 8.9635 11.8817 8.99441 11.8473C9.02533 11.8129 9.04246 11.7684 9.0425 11.7221C9.04274 11.6954 9.03723 11.669 9.02635 11.6446C9.01547 11.6202 8.99947 11.5984 8.97943 11.5807C8.95939 11.5631 8.93579 11.5499 8.91022 11.5422C8.88465 11.5344 8.85772 11.5323 8.83125 11.5359Z" fill="white"/>
<path d="M11.3181 12.1177C11.3181 12.1509 11.305 12.1827 11.2815 12.2061C11.2581 12.2296 11.2263 12.2427 11.1931 12.2427C11.16 12.2427 11.1282 12.2296 11.1047 12.2061C11.0813 12.1827 11.0681 12.1509 11.0681 12.1177V11.2927C11.151 11.2807 11.2344 11.2736 11.3181 11.2715C11.3231 11.284 11.3181 11.4527 11.3181 12.1177ZM11.3181 13.0765C11.3181 13.9777 11.3181 14.2277 11.3181 14.2402C11.2344 14.2382 11.151 14.2311 11.0681 14.219V13.0765C11.0681 13.0433 11.0813 13.0115 11.1047 12.9881C11.1282 12.9647 11.16 12.9515 11.1931 12.9515C11.2263 12.9515 11.2581 12.9647 11.2815 12.9881C11.305 13.0115 11.3181 13.0433 11.3181 13.0765ZM9.20312 12.8752C9.20312 12.9084 9.18996 12.9402 9.16651 12.9636C9.14307 12.9871 9.11128 13.0002 9.07812 13.0002C9.04497 13.0002 9.01318 12.9871 8.98974 12.9636C8.96629 12.9402 8.95312 12.9084 8.95312 12.8752V11.5227L9.20312 11.4952C9.20562 11.5077 9.20312 11.5677 9.20312 12.8752Z" fill="#F96340"/>
<path d="M7.48624 12.8825C7.48624 13.7125 7.48624 13.8162 7.48624 13.8287L7.23624 13.8013V12.8825C7.23624 12.8493 7.24941 12.8176 7.27285 12.7941C7.29629 12.7707 7.32809 12.7575 7.36124 12.7575C7.39439 12.7575 7.42619 12.7707 7.44963 12.7941C7.47307 12.8176 7.48624 12.8493 7.48624 12.8825ZM6.11499 13.25C6.08184 13.25 6.05004 13.2368 6.0266 13.2134C6.00316 13.1899 5.98999 13.1582 5.98999 13.125V12.75C5.98999 12.7168 6.00316 12.6851 6.0266 12.6616C6.05004 12.6382 6.08184 12.625 6.11499 12.625C6.14814 12.625 6.17994 12.6382 6.20338 12.6616C6.22682 12.6851 6.23999 12.7168 6.23999 12.75V13.125C6.23999 13.1582 6.22682 13.1899 6.20338 13.2134C6.17994 13.2368 6.14814 13.25 6.11499 13.25Z" fill="#F99559"/>
</g>
<defs>
<clipPath id="clip0_2654_374925">
<rect width="12" height="12" fill="white" transform="translate(4.5 4)"/>
</clipPath>
</defs>
</svg>
