<svg width="253" height="116" viewBox="0 0 253 116" fill="none" xmlns="http://www.w3.org/2000/svg">
<path d="M5.11963 31.541H249.727C248.635 36.0317 247.306 40.2716 245.6 44.2856C240.507 55.939 231.651 65.3971 222.544 74.7423C214.29 83.36 204.343 90.0334 193.43 96.0921C183.357 101.674 173.171 108.586 161.392 111.496C150.479 114.168 138.7 115.498 126.696 115.498C114.691 115.498 103.402 112.337 92.4758 109.552C80.7095 106.642 69.1816 104.095 59.1088 98.5131C48.1956 92.4418 38.1228 84.8026 29.8688 76.1849C20.7745 66.8396 14.5777 55.0734 9.4849 43.3072C7.79147 39.544 6.32385 35.5425 5.11963 31.541Z" fill="#125129"/>
<path d="M253 3.39236C253 8.61065 252.636 14.0673 252.034 19.411H1.95774C1.10475 14.3181 0.615601 9.09985 0.615601 3.88156C17.7256 -2.66639 18.4531 2.6648 36.6544 5.09832C54.6173 7.40641 54.7302 5.09832 72.8061 5.09832C90.8819 5.09832 90.769 4.13245 108.719 4.13245C126.67 4.13245 126.795 5.09832 144.758 5.09832C162.721 5.09832 162.834 2.5519 180.797 2.5519C198.76 2.5519 198.76 6.55343 216.836 6.55343C234.912 6.55343 235.89 -3.15558 252.987 3.39236H253Z" fill="#125129"/>
</svg>
