<svg width="365" height="154" viewBox="0 0 365 154" fill="none" xmlns="http://www.w3.org/2000/svg">
<path d="M8.87296 0L10.793 6.69693L17.7561 6.45117L11.9757 10.3372L14.3667 16.8805L8.87807 12.59L3.39456 16.8805L5.78048 10.3372L0 6.44604L6.9632 6.69181L8.87296 0Z" fill="#FCCC1A"/>
<path d="M35.6291 0L37.5491 6.69693L44.5123 6.45117L38.7318 10.3372L41.1228 16.8805L35.6342 12.59L30.1507 16.8805L32.5366 10.3372L26.7561 6.44604L33.7193 6.69181L35.6291 0Z" fill="#FCCC1A"/>
<path d="M62.3903 0L64.3052 6.69693L71.2684 6.45117L65.493 10.3372L67.8789 16.8805L62.3954 12.59L56.9068 16.8805L59.2927 10.3372L53.5122 6.44604L60.4754 6.69181L62.3903 0Z" fill="#FCCC1A"/>
<path d="M89.1415 0L91.0615 6.69693L98.0247 6.45117L92.2442 10.3372L94.6353 16.8805L89.1466 12.59L83.6631 16.8805L86.0439 10.3372L80.2686 6.44604L87.2317 6.69181L89.1415 0Z" fill="#FCCC1A"/>
<path d="M115.903 0L117.818 6.69693L124.781 6.45117L119.005 10.3372L121.391 16.8805L115.903 12.59L110.419 16.8805L112.805 10.3372L107.025 6.44604L113.988 6.69181L115.903 0Z" fill="#FCCC1A"/>
<path d="M142.654 0L144.574 6.69693L151.532 6.45117L145.756 10.3372L148.147 16.8805L142.659 12.59L137.17 16.8805L139.556 10.3372L133.781 6.44604L140.739 6.69181L142.654 0Z" fill="#FCCC1A"/>
<path d="M169.41 0L171.325 6.69693L178.288 6.45117L172.513 10.3372L174.898 16.8805L169.41 12.59L163.926 16.8805L166.312 10.3372L160.532 6.44604L167.495 6.69181L169.41 0Z" fill="#FCCC1A"/>
<path d="M196.161 0L198.081 6.69693L205.039 6.45117L199.264 10.3372L201.655 16.8805L196.166 12.59L190.677 16.8805L193.063 10.3372L187.288 6.44604L194.246 6.69181L196.161 0Z" fill="#FCCC1A"/>
<path d="M222.912 0L224.832 6.69693L231.79 6.45117L226.015 10.3372L228.406 16.8805L222.917 12.59L217.428 16.8805L219.814 10.3372L214.039 6.44604L220.997 6.69181L222.912 0Z" fill="#FCCC1A"/>
<path d="M249.663 0L251.583 6.69693L258.541 6.45117L252.766 10.3372L255.157 16.8805L249.668 12.59L244.179 16.8805L246.565 10.3372L240.79 6.44604L247.748 6.69181L249.663 0Z" fill="#FCCC1A"/>
<path d="M276.414 0L278.334 6.69693L285.292 6.45117L279.517 10.3372L281.908 16.8805L276.419 12.59L270.93 16.8805L273.316 10.3372L267.541 6.44604L274.499 6.69181L276.414 0Z" fill="#FCCC1A"/>
<path d="M303.165 0L305.085 6.69693L312.043 6.45117L306.268 10.3372L308.659 16.8805L303.17 12.59L297.681 16.8805L300.067 10.3372L294.292 6.44604L301.25 6.69181L303.165 0Z" fill="#FCCC1A"/>
<path d="M329.916 0L331.836 6.69693L338.794 6.45117L333.019 10.3372L335.41 16.8805L329.921 12.59L324.432 16.8805L326.818 10.3372L321.043 6.44604L328.001 6.69181L329.916 0Z" fill="#FCCC1A"/>
<path d="M356.672 0L358.587 6.69693L365.55 6.45117L359.77 10.3372L362.161 16.8805L356.672 12.59L351.189 16.8805L353.575 10.3372L347.794 6.44604L354.757 6.69181L356.672 0Z" fill="#FCCC1A"/>
<path d="M8.87809 21.8804L10.793 28.5773L17.7562 28.3315L11.9757 32.2176L14.3667 38.7609L8.87809 34.4704L3.39456 38.7609L5.7805 32.2176L0 28.3264L6.96322 28.5722L8.87809 21.8804Z" fill="#FCCC1A"/>
<path d="M8.87809 50.7607L10.793 57.4576L17.7562 57.2119L11.9757 61.098L14.3667 67.6413L8.87809 63.3507L3.39456 67.6413L5.7805 61.098L0 57.2068L6.96322 57.4525L8.87809 50.7607Z" fill="#FCCC1A"/>
<path d="M8.87809 79.6416L10.793 86.3385L17.7562 86.0928L11.9757 89.9788L14.3667 96.5221L8.87809 92.2316L3.39456 96.517L5.7805 89.9788L0 86.0876L6.96322 86.3334L8.87809 79.6416Z" fill="#FCCC1A"/>
<path d="M8.87809 108.522L10.793 115.219L17.7562 114.968L11.9757 118.859L14.3667 125.403L8.87809 121.112L3.39456 125.397L5.7805 118.859L0 114.968L6.96322 115.214L8.87809 108.522Z" fill="#FCCC1A"/>
<path d="M356.672 29.4028L358.587 36.0997L365.55 35.854L359.77 39.7401L362.161 46.2834L356.672 41.9928L351.189 46.2834L353.575 39.7401L347.794 35.8489L354.757 36.0946L356.672 29.4028Z" fill="#FCCC1A"/>
<path d="M356.672 58.2832L358.587 64.9801L365.55 64.7344L359.77 68.6204L362.161 75.1637L356.672 70.8732L351.189 75.1637L353.575 68.6204L347.794 64.7292L354.757 64.975L356.672 58.2832Z" fill="#FCCC1A"/>
<path d="M356.672 87.1641L358.587 93.861L365.55 93.6152L359.77 97.5013L362.161 104.045L356.672 99.7541L351.189 104.039L353.575 97.5013L347.794 93.6101L354.757 93.8559L356.672 87.1641Z" fill="#FCCC1A"/>
<path d="M356.672 116.044L358.587 122.741L365.55 122.49L359.77 126.382L362.161 132.925L356.672 128.634L351.189 132.92L353.575 126.382L347.794 122.49L354.757 122.736L356.672 116.044Z" fill="#FCCC1A"/>
<path d="M8.87296 137.925L10.793 144.622L17.7561 144.376L11.9757 148.262L14.3667 154.805L8.87807 150.515L3.39456 154.805L5.78048 148.262L0 144.371L6.9632 144.617L8.87296 137.925Z" fill="#FCCC1A"/>
<path d="M35.6291 137.925L37.5491 144.622L44.5123 144.376L38.7318 148.262L41.1228 154.805L35.6342 150.515L30.1507 154.805L32.5366 148.262L26.7561 144.371L33.7193 144.617L35.6291 137.925Z" fill="#FCCC1A"/>
<path d="M62.3903 137.925L64.3052 144.622L71.2684 144.376L65.493 148.262L67.8789 154.805L62.3954 150.515L56.9068 154.805L59.2927 148.262L53.5122 144.371L60.4754 144.617L62.3903 137.925Z" fill="#FCCC1A"/>
<path d="M89.1415 137.925L91.0615 144.622L98.0247 144.376L92.2442 148.262L94.6353 154.805L89.1466 150.515L83.6631 154.805L86.0439 148.262L80.2686 144.371L87.2317 144.617L89.1415 137.925Z" fill="#FCCC1A"/>
<path d="M115.903 137.925L117.818 144.622L124.781 144.376L119.005 148.262L121.391 154.805L115.903 150.515L110.419 154.805L112.805 148.262L107.025 144.371L113.988 144.617L115.903 137.925Z" fill="#FCCC1A"/>
<path d="M142.654 137.925L144.574 144.622L151.532 144.376L145.756 148.262L148.147 154.805L142.659 150.515L137.17 154.805L139.556 148.262L133.781 144.371L140.739 144.617L142.654 137.925Z" fill="#FCCC1A"/>
<path d="M169.41 137.925L171.325 144.622L178.288 144.376L172.513 148.262L174.898 154.805L169.41 150.515L163.926 154.805L166.312 148.262L160.532 144.371L167.495 144.617L169.41 137.925Z" fill="#FCCC1A"/>
<path d="M196.161 137.925L198.081 144.622L205.039 144.376L199.264 148.262L201.655 154.805L196.166 150.515L190.677 154.805L193.063 148.262L187.288 144.371L194.246 144.617L196.161 137.925Z" fill="#FCCC1A"/>
<path d="M222.912 137.925L224.832 144.622L231.79 144.376L226.015 148.262L228.406 154.805L222.917 150.515L217.428 154.805L219.814 148.262L214.039 144.371L220.997 144.617L222.912 137.925Z" fill="#FCCC1A"/>
<path d="M249.663 137.925L251.583 144.622L258.541 144.376L252.766 148.262L255.157 154.805L249.668 150.515L244.179 154.805L246.565 148.262L240.79 144.371L247.748 144.617L249.663 137.925Z" fill="#FCCC1A"/>
<path d="M276.414 137.925L278.334 144.622L285.292 144.376L279.517 148.262L281.908 154.805L276.419 150.515L270.93 154.805L273.316 148.262L267.541 144.371L274.499 144.617L276.414 137.925Z" fill="#FCCC1A"/>
<path d="M303.165 137.925L305.085 144.622L312.043 144.376L306.268 148.262L308.659 154.805L303.17 150.515L297.681 154.805L300.067 148.262L294.292 144.371L301.25 144.617L303.165 137.925Z" fill="#FCCC1A"/>
<path d="M329.916 137.925L331.836 144.622L338.794 144.376L333.019 148.262L335.41 154.805L329.921 150.515L324.432 154.805L326.818 148.262L321.043 144.371L328.001 144.617L329.916 137.925Z" fill="#FCCC1A"/>
<path d="M356.672 137.925L358.587 144.622L365.55 144.376L359.77 148.262L362.161 154.805L356.672 150.515L351.189 154.805L353.575 148.262L347.794 144.371L354.757 144.617L356.672 137.925Z" fill="#FCCC1A"/>
</svg>
