<svg width="521" height="52" viewBox="0 0 521 52" fill="none" xmlns="http://www.w3.org/2000/svg">
<path d="M132.478 16.6806H221.54C221.143 18.3157 220.659 19.8594 220.038 21.321C218.183 25.564 214.959 29.0078 211.643 32.4104C208.638 35.5482 205.016 37.978 201.042 40.184C197.375 42.2165 193.666 44.7331 189.377 45.7927C185.404 46.7655 181.115 47.2497 176.744 47.2497C172.373 47.2497 168.263 46.0987 164.284 45.0847C160 44.0251 155.803 43.098 152.135 41.0655C148.162 38.8549 144.494 36.0734 141.489 32.9357C138.178 29.533 135.921 25.2489 134.067 20.9647C133.45 19.5945 132.916 18.1375 132.478 16.6806Z" fill="#125129"/>
<path d="M222.732 6.43154C222.732 8.33155 222.6 10.3183 222.381 12.264H131.327C131.016 10.4097 130.838 8.50967 130.838 6.60966C137.068 4.22552 137.333 6.16663 143.96 7.05269C150.5 7.89308 150.541 7.05269 157.123 7.05269C163.704 7.05269 163.663 6.70101 170.199 6.70101C176.735 6.70101 176.781 7.05269 183.321 7.05269C189.861 7.05269 189.903 6.12553 196.443 6.12553C202.983 6.12553 202.983 7.5825 209.565 7.5825C216.146 7.5825 216.503 4.0474 222.728 6.43154H222.732Z" fill="#125129"/>
<path d="M0.934326 41.2083L0.934326 51.6721H35.8835V41.2083H0.934326Z" fill="#125129"/>
<path d="M80.611 0.74585V28.8943C80.611 38.2755 79.8711 51.6943 64.6984 51.6943H57.9251C44.3875 51.6943 42.2043 42.9982 42.2043 28.8943V0.74585H57.9251V34.8135C57.9251 36.6816 59.4414 38.1979 61.3095 38.1979C63.1775 38.1979 64.6939 36.6816 64.6939 34.8135V0.74585H80.6064H80.611Z" fill="#125129"/>
<path d="M27.1371 2.6921C18.1851 -1.91633 7.02259 1.93392 2.1995 11.3015C-2.62359 20.6691 0.71968 31.996 9.67163 36.6045C18.6236 41.2129 29.7953 37.3672 34.6183 27.9996C39.4414 18.6321 36.089 7.30052 27.1371 2.6921ZM27.6121 20.7467C27.2513 21.5643 26.6301 22.2311 25.9907 22.8888C25.4106 23.4963 24.7118 23.9667 23.9399 24.3915C23.232 24.7842 22.5149 25.2729 21.6837 25.4739C20.9164 25.6612 20.0851 25.7571 19.2402 25.7571C18.3952 25.7571 17.6005 25.5333 16.8332 25.3369C16.0065 25.1314 15.1935 24.9532 14.4856 24.5604C13.7183 24.1357 13.0104 23.5967 12.4257 22.9893C11.7863 22.3316 11.3478 21.5049 10.9916 20.6736C10.8728 20.4087 10.7678 20.1256 10.6856 19.847H27.8998C27.8222 20.1621 27.7308 20.4636 27.6075 20.7422L27.6121 20.7467ZM28.0642 18.9974H10.4663C10.407 18.6366 10.3704 18.2712 10.3704 17.9058C11.5762 17.4445 11.6265 17.8191 12.9053 17.9926C14.1705 18.1571 14.1796 17.9926 15.4493 17.9926C16.719 17.9926 16.7144 17.9241 17.975 17.9241C19.2356 17.9241 19.2493 17.9926 20.5099 17.9926C21.7705 17.9926 21.7842 17.8145 23.0448 17.8145C24.3053 17.8145 24.3099 18.0977 25.5796 18.0977C26.8493 18.0977 26.9224 17.4126 28.1236 17.8739C28.1236 18.2393 28.0962 18.6275 28.0551 19.002L28.0642 18.9974Z" fill="#125129"/>
<path d="M110.203 27.2593C112.148 25.2222 113.541 22.6463 114.172 19.778C114.4 18.7047 114.523 17.604 114.523 16.453C114.523 11.945 112.623 7.87099 109.559 5.00271C106.754 2.36736 102.954 0.773376 98.8163 0.759674H83.292V50.7536L83.5843 51.5483H98.8163V32.2057C102.205 35.549 107.892 44.5146 111.386 51.6716H127.449C123.448 41.8016 117.931 32.7766 110.207 27.2593H110.203ZM98.7707 21.8698C98.5332 21.9109 98.2865 21.9338 98.0444 21.9338C97.7384 21.1345 97.9896 21.098 98.0992 20.2484C98.2089 19.408 98.0992 19.4035 98.0992 18.5585C98.0992 17.7136 98.0536 17.7181 98.0536 16.8777C98.0536 16.0374 98.0992 16.0328 98.0992 15.1924C98.0992 14.352 97.9805 14.3474 97.9805 13.5071C97.9805 12.6667 98.1678 12.6667 98.1678 11.8217C98.1678 10.9768 97.7156 10.9311 98.0216 10.1318C98.2637 10.1318 98.5195 10.1501 98.7707 10.1775V21.8744V21.8698ZM102.986 17.6359C102.849 18.1886 102.731 18.7275 102.47 19.198C102.187 19.7095 101.831 20.1799 101.424 20.5636C100.986 20.9883 100.438 21.2806 99.8851 21.5181C99.707 21.5958 99.5197 21.6643 99.3324 21.7237V10.2825C99.5425 10.3328 99.7389 10.3967 99.9262 10.4744C100.47 10.7119 100.913 11.1275 101.351 11.5522C101.753 11.9359 102.068 12.4018 102.351 12.9133C102.612 13.3837 102.936 13.8633 103.073 14.4114C103.196 14.9229 103.26 15.471 103.26 16.0328C103.26 16.5946 103.114 17.1244 102.982 17.6314L102.986 17.6359Z" fill="#125129"/>
<path d="M462.241 38.2011V34.0996H483.521V19.3837H461.926V15.4101H477.976V0.744476H446.041V51.8209H452.02H461.926H489.65V38.2011H462.241Z" fill="#125129"/>
<path d="M521 0.876724H479.995V14.9806H495.163V51.8207H511.107V14.9806H521V0.876724Z" fill="#125129"/>
<path d="M294.077 0.881332V51.8252H278.26V22.06L269.77 30.6877L261.279 22.06V51.8252H245.449V0.881332H255.456L258.721 3.42533L261.279 5.50803L269.77 12.254L284.07 0.881332H294.077Z" fill="#125129"/>
<path d="M444.858 51.8209H427.877L413.531 34.7208V51.8209H397.952V0.872347H413.531V20.2744C416.924 16.9128 422.624 7.92888 426.132 0.744476H442.246C437.975 11.2539 432.006 20.8224 423.483 26.2164L444.858 51.8209Z" fill="#125129"/>
<path d="M353.535 50.9023V51.697H353.827L353.535 50.9023Z" fill="#125129"/>
<path d="M380.445 27.4086C382.391 25.3716 383.784 22.7956 384.414 19.9273C384.643 18.854 384.766 17.7533 384.766 16.6023C384.766 12.0944 382.866 8.02031 379.801 5.15203C376.997 2.51668 373.197 0.922699 369.059 0.908997H353.535V50.9029L353.827 51.6976H369.059V32.355C372.448 35.6983 378.134 44.664 381.628 51.821H397.692C393.691 41.951 388.173 32.9259 380.45 27.4086H380.445ZM369.013 22.0192C368.776 22.0603 368.529 22.0831 368.287 22.0831C367.981 21.2838 368.232 21.2473 368.342 20.3978C368.452 19.5574 368.342 19.5528 368.342 18.7079C368.342 17.8629 368.296 17.8675 368.296 17.0271C368.296 16.1867 368.342 16.1821 368.342 15.3418C368.342 14.5014 368.223 14.4968 368.223 13.6564C368.223 12.816 368.411 12.816 368.411 11.9711C368.411 11.1261 367.958 11.0804 368.264 10.2812C368.506 10.2812 368.762 10.2994 369.013 10.3268V22.0237V22.0192ZM373.229 17.7853C373.092 18.3379 372.973 18.8768 372.713 19.3473C372.43 19.8588 372.074 20.3292 371.667 20.7129C371.229 21.1377 370.681 21.43 370.128 21.6675C369.95 21.7451 369.762 21.8136 369.575 21.873V10.4319C369.785 10.4821 369.982 10.5461 370.169 10.6237C370.712 10.8612 371.156 11.2768 371.594 11.7016C371.996 12.0852 372.311 12.5511 372.594 13.0626C372.855 13.5331 373.179 14.0127 373.316 14.5607C373.439 15.0723 373.503 15.6203 373.503 16.1821C373.503 16.7439 373.357 17.2737 373.225 17.7807L373.229 17.7853Z" fill="#125129"/>
<path d="M353.827 51.7019L353.534 50.9072L335.329 0.881332H314.411L295.881 51.8252H312.862L319.037 34.8439H330.716L336.891 51.8252H353.872L353.827 51.7019ZM331.059 20.4478C330.821 20.9913 330.405 21.4343 329.981 21.8728C329.593 22.2747 329.131 22.5898 328.62 22.873C328.149 23.1333 327.67 23.4576 327.122 23.5946C326.61 23.7179 326.062 23.7819 325.5 23.7819C324.938 23.7819 324.409 23.6357 323.902 23.5033C323.349 23.3663 322.81 23.2475 322.34 22.9872C321.828 22.704 321.358 22.3477 320.974 21.9413C320.549 21.5028 320.257 20.9547 320.019 20.4021C319.942 20.2239 319.873 20.0367 319.814 19.8494H331.255C331.205 20.0595 331.141 20.2559 331.063 20.4432L331.059 20.4478ZM331.36 19.2831H319.663C319.622 19.0456 319.599 18.7989 319.599 18.5569C320.398 18.2509 320.435 18.5021 321.285 18.6117C322.125 18.7213 322.13 18.6117 322.974 18.6117C323.819 18.6117 323.815 18.566 324.655 18.566C325.496 18.566 325.5 18.6117 326.341 18.6117C327.181 18.6117 327.186 18.4929 328.026 18.4929C328.866 18.4929 328.866 18.6802 329.711 18.6802C330.556 18.6802 330.602 18.228 331.401 18.534C331.401 18.7761 331.383 19.0319 331.355 19.2831H331.36Z" fill="#125129"/>
</svg>
