<svg width="142" height="158" viewBox="0 0 142 158" fill="none" xmlns="http://www.w3.org/2000/svg">
<g clipPath="url(#clip0_2660_428541)">
<path d="M59.8155 113.145C59.7552 113.216 59.7044 113.324 59.6784 113.451C59.6525 113.581 59.6584 113.703 59.6867 113.792C59.6324 113.779 59.5757 113.773 59.519 113.773C59.4824 113.773 59.4469 113.775 59.4115 113.781C59.1918 113.559 59.1788 113.29 59.1788 113.29C59.1788 113.29 59.1717 113.246 59.1564 113.167C59.2721 113.129 59.3938 113.106 59.519 113.106C59.6206 113.106 59.7198 113.121 59.8155 113.145Z" fill="#FFC400"/>
<path d="M60.7655 114.011C60.9025 114.296 60.9816 114.633 60.9816 114.993C60.9816 116.035 60.3272 116.88 59.5191 116.88C58.711 116.88 58.0565 116.035 58.0565 114.993C58.0565 114.113 58.5244 113.376 59.1564 113.167C59.1718 113.246 59.1788 113.29 59.1788 113.29C59.1788 113.29 59.1918 113.559 59.4116 113.781C58.939 113.85 58.5728 114.366 58.5728 114.993C58.5728 115.668 58.9957 116.214 59.5191 116.214C60.0424 116.214 60.4654 115.668 60.4654 114.993C60.4654 114.621 60.3354 114.288 60.1322 114.064C60.3012 114.074 60.5008 114.061 60.7359 114.018C60.7466 114.015 60.756 114.013 60.7655 114.011Z" fill="#FFC400"/>
<path d="M88.7826 113.571C89.0898 113.917 89.2847 114.425 89.2847 114.993C89.2847 116.034 88.6302 116.879 87.8221 116.879C87.2787 116.879 86.8061 116.498 86.5533 115.931C86.4305 115.654 86.3584 115.334 86.3584 114.993C86.3584 114.442 86.5427 113.948 86.8345 113.603C86.8558 113.684 86.8877 113.747 86.9326 113.789C87.0188 113.87 87.144 113.938 87.2964 113.977C87.0424 114.195 86.8747 114.568 86.8747 114.993C86.8747 115.667 87.2988 116.213 87.8221 116.213C88.3455 116.213 88.7684 115.667 88.7684 114.993C88.7684 114.507 88.5475 114.088 88.2285 113.891C88.4069 113.821 88.5936 113.717 88.7826 113.571Z" fill="#FFC400"/>
<path d="M87.6824 113.115C87.6328 113.185 87.5915 113.281 87.569 113.392C87.5348 113.561 87.5537 113.715 87.6092 113.803C87.4958 113.836 87.3907 113.896 87.2962 113.976C87.1438 113.937 87.0186 113.87 86.9324 113.788C86.8875 113.747 86.8556 113.683 86.8344 113.603C86.9029 113.522 86.9785 113.448 87.0588 113.385C87.2442 113.238 87.4556 113.144 87.6824 113.115Z" fill="#FFC400"/>
<path d="M45.3953 105.616H45.3965C44.5577 106.297 43.6799 106.818 43.6799 106.818V102.97L44.6109 105.097L45.3953 105.616Z" fill="#54311E"/>
<path d="M46.8045 100.38L44.841 99.8456C44.8457 99.3695 44.7689 99.0339 44.7689 99.0339L46.3284 95.9375C46.3284 95.9375 49.5996 96.7243 50.6534 100.07C49.8182 100.658 48.9924 101.488 48.2918 102.282C47.4672 101.667 46.8045 100.38 46.8045 100.38Z" fill="#54311E"/>
<path d="M47.868 102.775C47.256 103.506 46.7787 104.153 46.5377 104.481C46.3865 104.687 46.1963 104.895 45.986 105.097C45.4922 104.24 44.9027 103.418 44.2364 103.081L43.6799 102.325C44.4667 101.749 44.7396 100.929 44.8164 100.252C45.2984 100.4 47.1001 101.053 47.868 102.775Z" fill="#54311E"/>
<path d="M136.434 165.815C139.771 169.731 138.824 172.601 138.035 175.51L137.624 176.264H4.69243C3.1637 174.464 2.76557 172.779 2.23867 170.762C1.7862 169.027 0.725307 167.518 0.232666 166.882V157.312L6.34165 152.649C6.34165 152.649 8.21062 150.025 8.34412 148.825C8.47643 147.624 12.134 143.242 12.134 143.242L15.9747 138.158L17.1715 138.618C18.484 137.26 21.5084 137.634 21.708 139.685C23.9787 139.046 25.5771 139.74 26.2009 142.376L27.7875 142.149C27.7686 142.196 27.7509 142.244 27.7332 142.29C27.7934 142.239 27.856 142.186 27.9234 142.129C29.1745 141.075 31.6944 138.957 33.4617 137.505C35.8966 135.504 40.2323 134.404 40.2323 134.404C37.6876 136.123 43.0936 143.838 50.2139 148.005C52.696 149.458 55.6022 150.011 58.4423 149.558C65.4326 148.439 76.6311 143.451 85.7987 126.965C85.7987 126.965 93.5144 128.81 94.4488 128.676C95.3833 128.544 97.2062 128.144 98.4514 127.209C99.6966 126.276 102.854 122.317 107.748 121.427C107.748 121.427 109.616 120.76 111.038 117.203C112.462 113.644 118.911 111.42 118.911 111.42C119.056 111.4 119.199 111.384 119.341 111.37C122.773 111.028 125.219 112.442 126.56 115.823C128.641 117.306 129.69 119.086 129.978 121.087C130.184 122.507 130.006 124.038 129.541 125.652C131.781 129.576 133.163 133.204 131.497 135.793C134.095 138.845 134.32 142.188 133.098 145.711C135.896 149.237 136.372 152.72 134.744 156.163C137.54 158.945 137.602 162.26 136.434 165.815Z" fill="#FFC900"/>
<path d="M133.733 107.585C134.133 109.653 134 111.788 133.733 112.789C133.57 113.398 131.541 117.764 129.978 121.088C129.69 119.087 128.641 117.306 126.561 115.824C125.22 112.443 122.773 111.028 119.341 111.371C119.507 110.74 119.586 110.044 119.534 109.25C117.723 105.205 116.196 100.948 114.952 96.4772C112.494 87.1986 110.031 78.2448 107.525 73.5275L103.033 66.0563C101.847 65.6866 101.31 64.6812 101.067 63.9239C102.826 60.7838 104.542 57.0754 105.912 52.833H105.913L104.079 59.1842C107.814 63.8542 110.95 59.1842 110.95 59.1842C110.95 59.1842 110.95 60.8192 111.65 62.6539C112.351 64.4875 114.052 69.7246 114.952 71.1257C115.854 72.5268 124.459 86.3373 126.061 89.4385C127.662 92.5408 133.332 105.517 133.733 107.585Z" fill="#3C2415"/>
<path d="M105.911 52.8332C104.541 57.0755 102.825 60.7839 101.066 63.9241C96.5734 71.9493 91.8017 76.2626 91.8017 76.2626C91.8017 76.2626 89.3952 78.7222 83.7588 80.3703C83.2355 80.1931 82.6507 80.0442 81.995 79.932C76.1246 78.9313 68.9855 75.8633 62.1806 78.3312C62.1806 78.3312 60.3944 78.9904 58.5254 80.0938C41.0443 75.4202 35.9372 54.7151 34.6305 47.0443C34.6282 47.0266 34.6246 47.0089 34.6223 46.9912C34.373 45.5227 35.5166 44.1877 37.0063 44.2043L38.1794 44.2172L39.5593 44.2314C39.6503 45.2746 40.7631 46.1524 41.928 45.6066L42.2765 45.4424L44.9287 44.6378C45.0953 44.587 45.2654 44.5634 45.432 44.5634C46.0641 44.5634 46.663 44.9107 46.969 45.4932C47.2395 46.0118 47.8432 46.2634 48.402 46.0898L50.2072 45.5286L50.5817 45.7897C52.0608 46.8199 54.0467 46.7372 55.4349 45.5853L56.0102 45.9893L56.4473 45.5971L56.4674 45.5782C57.2944 44.8375 58.5053 44.795 59.428 45.4128C60.3129 46.0059 61.4718 46.0047 62.7843 45.6656L64.2067 45.0241C64.4347 45.1104 64.645 44.9485 64.6722 44.7465C64.814 44.6874 65.0408 44.6024 65.335 44.5126L70.513 44.5681C73.3354 45.9823 77.6569 50.598 80.8608 52.1125C84.5303 53.8468 94.2035 53.6471 95.4038 53.7133C96.6053 53.7806 98.2061 56.8499 99.1405 56.9834C100.073 57.1157 105.897 52.8438 105.911 52.8332Z" fill="#00300C"/>
<path d="M91.3481 106.439C91.3079 106.149 91.2689 105.951 91.2689 105.951C91.2689 105.951 91.5785 105.941 92.0179 105.869C92.0735 106.02 92.116 106.187 92.1361 106.372C92.3369 108.162 90.5022 110.588 90.5022 110.588C90.0356 112.19 89.3976 113.098 88.7833 113.572C88.5942 113.717 88.4076 113.821 88.2292 113.892C87.8736 114.034 87.5475 114.042 87.2971 113.977C87.3916 113.897 87.4967 113.836 87.6101 113.803C87.6338 113.84 87.6633 113.865 87.6988 113.872C87.759 113.885 87.824 113.847 87.8795 113.776C87.935 113.705 87.9811 113.601 88.0059 113.481C88.0343 113.34 88.026 113.21 87.9906 113.121C87.9646 113.056 87.9268 113.011 87.876 113.001C87.811 112.987 87.7425 113.034 87.6834 113.116C87.4566 113.144 87.2451 113.239 87.0596 113.385C86.9793 113.449 86.9037 113.522 86.8352 113.604C86.6485 112.936 87.2026 111.073 87.4672 110.251C88.6451 109.621 90.924 109.013 91.2689 108.552C91.5454 108.183 91.4402 107.084 91.3481 106.439Z" fill="#3C2415"/>
<path d="M87.9903 113.121C88.0257 113.21 88.034 113.34 88.0056 113.481C87.9808 113.601 87.9347 113.705 87.8792 113.776C87.8603 113.775 87.8414 113.773 87.8225 113.773C87.7493 113.773 87.6784 113.783 87.6099 113.803C87.5544 113.716 87.5355 113.561 87.5698 113.392C87.5922 113.281 87.6335 113.186 87.6832 113.116C87.7292 113.11 87.7753 113.106 87.8225 113.106C87.8792 113.106 87.9347 113.112 87.9903 113.121Z" fill="#3C2415"/>
<path d="M87.9897 113.12C87.9342 113.112 87.8787 113.106 87.822 113.106C87.7747 113.106 87.7287 113.109 87.6826 113.115C87.7417 113.034 87.8102 112.986 87.8751 113.001C87.9259 113.01 87.9637 113.055 87.9897 113.12Z" fill="#3C2415"/>
<path d="M87.8227 113.772C87.8416 113.772 87.8605 113.775 87.8794 113.776C87.8239 113.847 87.7589 113.885 87.6987 113.872C87.6633 113.865 87.6337 113.84 87.6101 113.803C87.6786 113.783 87.7495 113.772 87.8227 113.772Z" fill="#3C2415"/>
<path d="M65.862 127.934L64.9499 123.627C64.9499 123.627 61.577 119.567 61.0135 113.934C60.984 113.64 60.9604 113.344 60.9474 113.041C60.7784 109.184 60.0743 106.915 59.5805 105.767L59.981 105.616C59.981 105.616 61.1813 107.952 63.583 108.085C65.9848 108.219 68.4528 108.819 69.3872 109.62C70.3217 110.42 72.9232 112.555 73.6568 113.822C74.3904 115.09 79.1278 117.492 81.5296 116.624C83.8333 116.224 84.398 114.49 83.1966 112.155C83.1966 112.155 86.1323 111.287 86.9995 110.553C87.1188 110.453 87.2795 110.351 87.4673 110.251C87.2027 111.073 86.6486 112.936 86.8352 113.604C86.5434 113.949 86.3591 114.442 86.3591 114.993C86.3591 115.334 86.4312 115.655 86.5541 115.931C85.8594 119.747 84.932 124.364 84.932 124.364C84.9238 125.766 85.2817 126.509 85.7992 126.965C76.6316 143.452 65.4331 148.439 58.4428 149.558C55.6027 150.012 52.6965 149.459 50.2144 148.006C43.0941 143.839 37.6881 136.123 40.2328 134.404C40.2328 134.404 41.1023 134.335 42.9689 133.603C47.906 131.569 54.1768 132.969 54.1768 132.969C55.6311 131.757 64.2931 128.516 65.862 127.934Z" fill="#3C2415"/>
<path d="M77.4162 96.2707C73.6192 94.8471 67.3294 94.2694 63.4143 94.0792V94.045C63.4403 93.1447 63.2087 92.3721 62.8472 91.7188C61.8123 89.8439 59.6149 88.9224 57.5321 89.421C56.9013 89.571 56.2101 89.7104 55.6053 89.7719C53.9655 89.9384 52.4698 87.1054 54.6093 86.9034C56.7512 86.9034 64.9879 88.7027 68.5805 88.8858C69.4595 88.9307 70.1033 88.0588 69.7938 87.2354C68.9479 84.9896 67.6767 83.0722 66.0582 81.4229C73.8732 82.3338 79.6679 81.5647 83.7591 80.3691C87.9223 81.7762 88.1326 84.9352 88.1326 84.9352C95.7384 92.2729 93.6698 98.878 94.8039 102.347C95.6463 104.924 93.2858 105.66 92.017 105.868C91.5775 105.94 91.268 105.95 91.268 105.95C89.3778 106.659 84.5388 107.866 82.8848 107.551C80.4441 107.086 78.8811 107.128 77.695 107.013C77.2874 106.974 76.8774 106.962 76.4687 106.961C71.189 106.945 65.1415 104.549 63.9837 104.069C64.2944 103.945 64.4492 103.881 64.4492 103.881C64.6134 103.819 64.78 103.751 64.9489 103.682H64.9501C68.7152 102.127 73.6073 98.9489 77.4162 96.2707Z" fill="#931183"/>
<path d="M91.3472 106.438C91.4393 107.083 91.5445 108.183 91.268 108.552C90.9231 109.012 88.6441 109.621 87.4663 110.25C87.2785 110.351 87.1178 110.452 86.9985 110.553C86.1313 111.286 83.1956 112.155 83.1956 112.155C84.397 114.489 83.8323 116.223 81.5286 116.624C79.1268 117.491 74.3894 115.089 73.6558 113.822C72.9222 112.554 70.3207 110.419 69.3862 109.62C68.4518 108.819 65.9838 108.218 63.582 108.085C61.1803 107.951 59.98 105.616 59.98 105.616C61.8773 104.901 63.1686 104.394 63.8573 104.12C64.1787 104.704 65.581 107.028 67.8516 107.551C70.4542 108.151 75.9075 107.485 77.4918 107.551C79.076 107.618 81.5948 107.906 83.0183 108.218C83.9788 108.429 89.1829 107.358 91.3472 106.438Z" fill="#931183"/>
<path d="M91.2678 105.95C91.2678 105.95 91.3067 106.149 91.3469 106.438C89.1826 107.358 83.9786 108.429 83.0181 108.218C81.5945 107.907 79.0758 107.618 77.4915 107.551C75.9073 107.485 70.454 108.151 67.8513 107.551C65.5807 107.028 64.1784 104.704 63.8571 104.12C63.9019 104.102 63.9445 104.085 63.9835 104.069C65.1412 104.549 71.1888 106.945 76.4684 106.961C76.8772 106.961 77.2871 106.974 77.6947 107.013C78.8808 107.128 80.4438 107.087 82.8846 107.551C84.5385 107.866 89.3775 106.659 91.2678 105.95Z" fill="#931183"/>
<path d="M81.9955 79.9316C82.6512 80.0438 83.236 80.1926 83.7593 80.3698C79.6681 81.5654 73.8734 82.3345 66.0585 81.4237C64.9279 80.2683 63.626 79.244 62.1812 78.3308C68.986 75.8628 76.1251 78.9309 81.9955 79.9316Z" fill="#931183"/>
<path d="M77.4169 96.271C73.6081 98.9492 68.7159 102.127 64.9508 103.682H64.9496C63.1126 102.08 55.1381 100.348 54.8428 101.013C54.6301 100.653 54.4447 100.296 54.2828 99.9451C52.1043 95.2124 54.2427 91.3398 54.2427 91.3398C54.2427 91.3398 58.4791 94.0748 60.1473 94.0086C60.6293 93.9897 61.826 94.0027 63.415 94.0795C67.3301 94.2697 73.6199 94.8474 77.4169 96.271Z" fill="#931183"/>
<path d="M69.7941 87.2355C70.1036 88.0589 69.4597 88.9308 68.5808 88.8859C64.9882 88.7028 56.7515 86.9035 54.6096 86.9035C52.4701 87.1055 53.9658 89.9385 55.6055 89.7719C56.2104 89.7105 56.9015 89.5711 57.5324 89.4211C59.6152 88.9225 61.8126 89.844 62.8475 91.7189C63.209 92.3722 63.4405 93.1448 63.4157 94.045V94.0793C61.8256 94.0025 60.6288 93.9895 60.1468 94.0084C58.4787 94.0746 54.2422 91.3396 54.2422 91.3396C51.3076 88.2042 53.1081 86.2691 54.8424 83.3333C55.5984 82.0562 57.0858 80.9422 58.5259 80.0928C59.0446 80.231 59.5727 80.355 60.1137 80.4649C62.2131 80.8914 64.1931 81.2045 66.0585 81.423C67.677 83.0723 68.9482 84.9896 69.7941 87.2355Z" fill="#931183"/>
<path d="M64.9501 103.682C64.7811 103.752 64.6146 103.819 64.4504 103.882C64.4504 103.882 64.2956 103.945 63.9849 104.069C63.9459 104.085 63.9034 104.103 63.8585 104.12C63.1697 104.394 61.8785 104.901 59.9811 105.616L59.5807 105.767L57.4234 106.581L57.3136 106.622C56.4015 106.966 55.369 106.605 54.8799 105.76C53.2519 102.954 54.8433 101.013 54.8433 101.013C55.1386 100.348 63.113 102.08 64.9501 103.682Z" fill="#931183"/>
<path d="M62.181 78.3301C63.6258 79.2433 64.9277 80.2676 66.0583 81.423C64.1929 81.2044 62.2129 80.8913 60.1136 80.4649C59.5725 80.355 59.0444 80.2309 58.5258 80.0927C60.3947 78.9893 62.181 78.3301 62.181 78.3301Z" fill="#931183"/>
<path d="M60.9472 113.041C60.9602 113.344 60.9838 113.64 61.0134 113.935C60.9389 113.965 60.8562 113.991 60.7664 114.01C60.757 114.013 60.7475 114.015 60.7369 114.017C60.5018 114.061 60.3022 114.074 60.1332 114.063C59.7753 114.043 59.552 113.922 59.4126 113.781C59.448 113.775 59.4834 113.773 59.5201 113.773C59.5768 113.773 59.6335 113.779 59.6878 113.792C59.7126 113.867 59.754 113.92 59.8095 113.932C59.8485 113.94 59.891 113.925 59.93 113.893C60.0103 113.831 60.0824 113.701 60.1155 113.54C60.1356 113.445 60.1368 113.354 60.1261 113.277C60.1084 113.16 60.0588 113.074 59.9867 113.06C59.93 113.049 59.8698 113.083 59.8166 113.145C59.7209 113.121 59.6217 113.106 59.5201 113.106C59.3948 113.106 59.2732 113.129 59.1574 113.167C59.0889 112.812 58.8609 111.724 58.4237 110.487C58.0315 109.377 57.6168 107.501 57.4231 106.582L59.5803 105.768C60.0741 106.915 60.7783 109.184 60.9472 113.041Z" fill="#3C2415"/>
<path d="M60.1257 113.277C60.1363 113.355 60.1351 113.446 60.115 113.54C60.082 113.701 60.0099 113.831 59.9296 113.893C59.854 113.846 59.7725 113.812 59.6875 113.792C59.6591 113.703 59.6532 113.581 59.6792 113.451C59.7052 113.324 59.756 113.216 59.8162 113.146C59.9237 113.175 60.0276 113.219 60.1257 113.277Z" fill="#3C2415"/>
<path d="M59.9859 113.06C60.0579 113.074 60.1075 113.159 60.1253 113.276C60.0272 113.218 59.9233 113.174 59.8158 113.145C59.8689 113.082 59.9292 113.048 59.9859 113.06Z" fill="#3C2415"/>
<path d="M59.9294 113.893C59.8904 113.924 59.8479 113.94 59.8089 113.932C59.7534 113.92 59.7121 113.867 59.6873 113.791C59.7723 113.811 59.8538 113.845 59.9294 113.893Z" fill="#3C2415"/>
<path d="M42.3008 94.8562C42.4048 94.6955 42.4934 94.5443 42.5725 94.4014C42.5784 94.3896 42.5832 94.3825 42.5832 94.3825C42.9482 93.7138 43.0746 93.2542 43.3345 93.0747C43.8685 92.7073 45.2366 92.608 45.2366 92.608C45.2366 92.608 47.46 91.54 47.8829 91.5176C48.3047 91.4963 51.6634 90.6729 51.5736 92.2737C51.485 93.8757 49.5286 94.5644 48.3047 94.7428C48.3047 94.7428 47.5486 95.6324 46.3932 95.8096L46.3282 95.9384L44.7687 99.0348C44.7687 99.0348 44.8455 99.3703 44.8408 99.8464C44.8384 99.9728 44.8314 100.109 44.816 100.253C44.7392 100.93 44.4663 101.75 43.6795 102.326V106.818C43.6795 106.818 44.5573 106.297 45.3961 105.618C45.5248 105.511 45.6536 105.403 45.7777 105.291C45.8485 105.228 45.9182 105.163 45.9856 105.098C46.1959 104.896 46.3861 104.688 46.5373 104.482C46.7783 104.154 47.2556 103.506 47.8675 102.776C48.0034 102.614 48.1452 102.449 48.2917 102.282C48.9922 101.489 49.818 100.659 50.6533 100.071C51.5925 99.4081 52.5435 99.0478 53.3421 99.3798C53.7024 99.5286 53.9104 99.772 54.0061 100.076C54.5282 101.743 51.6409 105.25 51.6409 105.25C51.6409 105.25 50.2067 107.852 49.6727 109.152C49.1387 110.454 47.037 114.19 42.3339 117.225C42.3339 117.225 38.0537 121.517 32.8946 130.456C32.8946 130.456 32.865 130.52 32.8107 130.637C32.6713 130.51 32.5035 130.411 32.3169 130.356C32.2613 130.306 32.2271 130.279 32.2271 130.279C30.683 126.839 27.8512 124.603 26.6438 124.035L26.723 123.93C26.723 123.93 28.6581 121.494 29.4248 119.56C30.1927 117.625 30.9264 116.992 30.9264 116.992C33.9283 113.623 33.1946 108.219 33.1616 106.218C33.1273 104.216 34.0618 103.882 34.0618 103.882C34.4953 101.614 35.9969 100.981 35.9969 100.981C36.1966 100.079 37.5646 99.212 40.1991 97.1009C41.2659 96.2467 41.8944 95.4847 42.3008 94.8562Z" fill="#3C2415"/>
<path d="M111.483 34.4499C111.483 34.4499 113.817 37.7023 112.35 45.7736C110.883 53.8461 110.949 59.1836 110.949 59.1836C110.949 59.1836 107.813 63.8537 104.078 59.1836L105.912 52.8324H105.911C106.423 51.2494 106.887 49.5919 107.286 47.8611C107.63 46.3773 106.503 44.9584 104.98 44.9419L70.5132 44.5674C70.1033 44.3618 69.7252 44.2236 69.3861 44.1728C67.7133 43.9212 66.2176 44.239 65.3351 44.5119L64.6098 44.5036C64.5365 44.3937 64.4633 44.2827 64.3912 44.1728C49.0685 20.6796 62.9865 5.89092 64.3156 4.77804C64.3156 4.77804 78.5254 -1.12539 100.141 4.77804C121.756 10.6827 111.483 34.4499 111.483 34.4499Z" fill="#F5D53E"/>
<path d="M104.98 44.9419C106.502 44.9584 107.629 46.3773 107.286 47.8611C106.886 49.5919 106.422 51.2494 105.911 52.8324C105.896 52.8431 100.072 57.115 99.14 56.9827C98.2055 56.8492 96.6047 53.7799 95.4032 53.7126C94.2029 53.6464 84.5297 53.8461 80.8603 52.1118C77.6563 50.5972 73.3348 45.9815 70.5125 44.5674L104.98 44.9419Z" fill="#F5D53E"/>
<path d="M70.5124 44.5672L65.3344 44.5117C66.2169 44.2388 67.7125 43.921 69.3853 44.1727C69.7244 44.2235 70.1025 44.3617 70.5124 44.5672Z" fill="#F5D53E"/>
<path d="M64.6093 44.5039L65.3345 44.5122C65.0404 44.6019 64.8136 44.687 64.6719 44.746C64.6813 44.6693 64.6659 44.5878 64.6152 44.5122C64.6128 44.5098 64.6116 44.5063 64.6093 44.5039Z" fill="#F5D53E"/>
<path d="M35.9537 19.9439C36.1865 19.4052 36.4287 18.8511 36.6779 18.2887C38.4973 14.1858 43.901 11.1838 49.8056 10.983C49.8056 10.983 52.9079 7.08086 64.3155 4.77832C62.9864 5.89119 49.0684 20.6799 64.3911 44.1731C64.4632 44.283 64.5364 44.394 64.6096 44.5039L62.7844 44.4838L56.4474 44.4153L55.4349 44.4035L50.2073 44.3468L46.9691 44.3113L45.4344 44.2948L42.2766 44.2605L39.5594 44.231C39.5251 43.8364 39.6385 43.4182 39.9504 43.0437C39.9658 43.0248 39.9823 41.8245 39.9988 41.8044C39.9988 41.8044 32.7935 41.2042 33.3937 26.0942C33.3937 26.0942 34.4853 23.3368 35.9537 19.9439Z" fill="#F5D53E"/>
<path d="M64.6726 44.7462C64.6454 44.9482 64.4351 45.1101 64.2071 45.0238L62.7847 45.6653C61.4722 46.0044 60.3132 46.0056 59.4283 45.4125C58.5057 44.7947 57.2948 44.8372 56.4678 45.5779L56.4477 45.5968L56.0106 45.989L55.4352 45.585C54.0471 46.7369 52.0612 46.8196 50.5821 45.7894L50.2076 45.5283L48.4024 46.0895C47.8436 46.2631 47.2399 46.0115 46.9694 45.4929C46.6634 44.9104 46.0644 44.5631 45.4324 44.5631L45.4347 44.2949L46.9694 44.3115L50.2076 44.3469L55.4352 44.4036L56.4477 44.4154L62.7847 44.4839L64.6099 44.504C64.6099 44.504 64.6135 44.5099 64.6158 44.5123C64.6666 44.5879 64.682 44.6694 64.6726 44.7462Z" fill="#F5D53E"/>
<path d="M45.4345 44.2952L45.4322 44.5634C45.2656 44.5634 45.0955 44.587 44.9289 44.6378L42.2767 45.4424L41.9281 45.6066C40.7633 46.1524 39.6504 45.2746 39.5594 44.2314L42.2767 44.261L45.4345 44.2952Z" fill="#F5D53E"/>
<path d="M39.9997 41.8039C39.9832 41.824 39.9667 43.0243 39.9513 43.0432C39.6394 43.4177 39.526 43.8359 39.5603 44.2305L38.1804 44.2163L37.0073 44.2033C35.5175 44.1868 34.3739 45.5217 34.6232 46.9902C34.6256 47.0079 34.6291 47.0256 34.6315 47.0434C31.4429 42.2457 24.136 28.7377 35.9546 19.9434C34.4862 23.3363 33.3946 26.0937 33.3946 26.0937C32.7944 41.2037 39.9997 41.8039 39.9997 41.8039Z" fill="#F5D53E"/>
<path d="M31.0364 132.378C31.2349 132.602 31.5125 132.754 31.8267 132.789C31.5999 133.286 31.3494 133.843 31.0836 134.435C30.741 134.213 30.5154 133.829 30.5154 133.39C30.5154 132.952 30.7209 132.605 31.0364 132.378Z" fill="#3C2415"/>
<path d="M30.7208 131.551C30.7208 131.869 30.8401 132.158 31.0362 132.378C30.7208 132.605 30.5152 132.973 30.5152 133.39C30.5152 133.829 30.7409 134.213 31.0835 134.435C29.9741 136.909 28.6132 140.012 27.7874 142.149L26.2008 142.376C25.577 139.74 23.9786 139.046 21.7079 139.685C21.5083 137.634 18.4839 137.261 17.1714 138.618L15.9746 138.159L23.9738 127.569L24.1428 127.345L25.0513 126.143C26.0767 126.322 30.5058 129.684 30.996 130.772C30.8235 130.985 30.7208 131.256 30.7208 131.551Z" fill="#3C2415"/>
<path d="M32.6913 132.563C32.8862 132.784 33.0067 133.073 33.0067 133.39C33.0067 134.078 32.4491 134.636 31.7615 134.636C31.5111 134.636 31.2795 134.561 31.0846 134.435C31.3504 133.843 31.6009 133.286 31.8277 132.789C31.8726 132.794 31.9198 132.797 31.9671 132.797C32.2376 132.797 32.4869 132.71 32.6913 132.563Z" fill="#FFC400"/>
<path d="M32.8105 130.637C33.0562 130.865 33.211 131.19 33.211 131.551C33.211 131.969 33.0042 132.338 32.69 132.564C32.534 132.389 32.3297 132.258 32.0969 132.193C32.4324 131.457 32.6864 130.905 32.8105 130.637Z" fill="#FFC400"/>
<path d="M32.8109 130.637C32.6869 130.905 32.4329 131.457 32.0973 132.193C31.9898 132.163 31.8776 132.145 31.7606 132.145C31.4901 132.145 31.2408 132.233 31.0365 132.378C30.8403 132.158 30.721 131.869 30.721 131.551C30.721 131.256 30.8238 130.985 30.9963 130.773C30.506 129.685 26.077 126.322 25.0515 126.143L26.644 124.035C27.8514 124.602 30.6832 126.839 32.2273 130.279C32.2273 130.279 32.2616 130.306 32.3171 130.356C32.5037 130.411 32.6715 130.509 32.8109 130.637Z" fill="#FFC400"/>
<path d="M32.0979 132.192C32.3306 132.257 32.5349 132.388 32.6908 132.563C32.4865 132.71 32.2373 132.797 31.9668 132.797C31.9195 132.797 31.8723 132.794 31.8274 132.789C31.9219 132.58 32.0128 132.38 32.0979 132.192Z" fill="#FFC400"/>
<path d="M32.0973 132.193C32.0123 132.381 31.9213 132.58 31.8268 132.789C31.5126 132.754 31.2351 132.603 31.0366 132.378C31.241 132.233 31.4902 132.146 31.7607 132.146C31.8776 132.146 31.9898 132.163 32.0973 132.193Z" fill="#FFC400"/>
<path d="M26.6446 124.035L25.0521 126.143C24.8772 126.111 24.7603 126.088 24.674 126.088C24.5523 126.088 24.4886 126.132 24.4047 126.254C24.3184 126.378 24.27 126.524 24.2464 126.674L24.1436 127.345L23.9746 127.569C23.8825 127.102 23.7644 126.294 23.9557 125.872C24.1058 125.54 25.4455 123.785 26.2453 123.896C26.3422 123.909 26.478 123.956 26.6446 124.035Z" fill="#FFC400"/>
<path d="M112.028 115.637C112.028 115.637 114.719 114.355 115.652 114.688C116.586 115.021 118.221 116.589 119.188 119.792C119.188 119.792 116.753 116.022 115.608 115.623C114.705 115.307 112.027 115.637 112.027 115.637H112.028Z" fill="#ED9015"/>
<path d="M123.024 129.9C123.024 129.9 122.49 138.24 122.09 139.641C121.689 141.042 121.326 148.247 119.339 155.719C117.352 163.191 113.483 174.999 113.483 177C113.483 177 113.417 172.063 114.484 167.594C115.552 163.124 118.287 152.85 119.62 147.046C120.954 141.242 122.355 130.768 123.023 129.9H123.024Z" fill="#ED9015"/>
<path d="M120.189 140.841C120.189 140.841 119.322 146.212 118.521 148.246C117.72 150.28 117.387 152.282 117.387 152.282C117.387 152.282 119.246 142.513 120.189 140.84V140.841Z" fill="#ED9015"/>
<path d="M9.01001 158.164C9.01001 158.164 12.3238 150.95 15.9613 147.554C16.5615 146.994 17.6602 146.134 19.7501 145.778C20.4211 145.664 21.1406 145.74 21.8801 145.525C16.8769 147.719 12.7444 152.379 9.01001 158.164Z" fill="#ED9015"/>
<path d="M25.7548 143.543C25.7548 143.543 27.7891 151.416 34.7274 153.551L39.5912 155.219C39.5912 155.219 30.8915 155.782 27.3555 149.713C25.8883 147.947 25.7548 143.544 25.7548 143.544V143.543Z" fill="#ED9015"/>
<path d="M55.0589 86.9219C54.2993 87.3224 54.1126 87.7394 54.2012 88.1647C54.317 88.7188 54.8557 89.0708 55.4204 89.0259C55.698 89.0035 55.9686 88.9338 56.2356 88.8381C56.5026 88.7424 56.7825 88.7046 57.0625 88.733L58.4885 88.8771C59.2387 88.9527 59.9759 89.1393 60.6634 89.4524C61.579 89.8695 62.6009 90.5783 62.8466 91.7195C62.8466 91.7195 63.1148 90.3172 62.6919 89.6722C65.187 90.0171 67.0595 89.4831 68.8729 88.8664C68.8729 88.8664 67.1398 88.9243 64.9495 88.4648C62.7592 88.0052 56.0536 86.9313 55.0589 86.9231" fill="#660064"/>
<path d="M70.5208 109.451C70.5208 109.451 77.1909 112.354 83.1959 112.153C83.1959 112.153 80.4823 112.92 77.6032 112.587C74.7241 112.254 72.8552 111.21 72.8552 111.21L70.5208 109.45V109.451Z" fill="#660064"/>
<path d="M93.2915 99.2529C90.566 103.612 87.3455 106.553 83.4623 107.601C83.4623 107.601 87.6799 107.494 90.1525 106.321C92.6252 105.148 92.0912 102.391 92.5803 101.324C93.0694 100.257 93.2915 99.2529 93.2915 99.2529Z" fill="#660064"/>
<path d="M83.0508 92.127C79.5728 94.2038 76.2188 95.4089 73.0775 95.1324C73.0775 95.1324 76.3405 95.6475 77.4168 96.2701C77.9874 95.8684 83.0508 92.127 83.0508 92.127Z" fill="#660064"/>
<path d="M54.1818 104.069C55.0406 102.788 56.3886 101.85 57.8949 102.18L61.8809 102.83L64.9502 103.681C64.9844 103.531 61.66 101.586 56.9651 101.017C56.9651 101.017 55.3821 100.856 54.9225 100.94C54.2515 101.835 53.9715 102.866 54.1806 104.07L54.1818 104.069Z" fill="#660064"/>
<path d="M62.8141 104.53C62.8141 104.53 61.4201 107.284 65.9696 108.369L62.8283 107.966C61.5028 107.447 60.5022 106.7 59.98 105.616L62.8141 104.531V104.53Z" fill="#660064"/>
<path d="M73.0406 112.997C73.0406 112.997 76.6593 116.037 78.794 115.929C80.9288 115.822 83.4641 115.54 83.4641 115.54C83.4641 115.54 82.2307 116.924 80.2625 116.807C80.2625 116.807 77.4319 116.732 75.0691 115.051C73.6243 114.137 73.0418 112.996 73.0418 112.996L73.0406 112.997Z" fill="#660064"/>
<path d="M60.1333 97.01C60.1333 97.01 71.3223 102.783 79.0616 101.547C86.8009 100.31 91.3493 95.4092 91.3493 95.4092C91.3493 95.4092 85.0666 101.37 78.5949 102.493C72.1233 103.615 60.1345 97.01 60.1345 97.01H60.1333Z" fill="#660064"/>
<path d="M87.9495 85.0173C87.9495 85.0173 72.3055 92.6833 62.292 83.5771C62.292 83.5771 65.3601 86.1112 73.0403 86.4349C80.9214 86.7669 87.9495 85.0173 87.9495 85.0173Z" fill="#660064"/>
<path d="M72.0201 94.9453C72.0201 94.9453 62.6481 95.8999 55.5763 91.7178C55.5763 91.7178 61.6475 94.8969 72.0201 94.9453Z" fill="#660064"/>
<path d="M105.911 52.8322C104.54 57.0746 102.825 60.783 101.066 63.9231L100.122 65.5499C97.2123 65.0442 97.5726 60.451 95.9706 59.1834C94.3699 57.9157 89.1327 56.615 80.9941 54.6468C72.8543 52.6786 71.6209 47.5419 70.5128 47.6081C69.4046 47.6754 65.1823 45.0279 65.1823 45.0279C63.2815 46.5153 60.9801 46.4078 59.6156 45.8939C58.2511 45.3811 58.3113 45.4071 57.254 45.8182C56.1978 46.2282 55.5764 46.4408 54.2745 47.0433C52.9738 47.6459 50.839 46.3747 50.207 45.9884C49.5749 45.602 49.2052 46.3404 47.6705 46.5082C46.1359 46.6759 46.0355 45.4402 45.1246 45.2405C44.2138 45.0397 43.0666 46.0073 41.0996 46.1431C39.1314 46.279 38.6978 44.9735 37.1963 45.0846C35.6947 45.1945 35.045 49.2325 35.045 49.2325L34.6303 47.0433C34.6279 47.0256 34.6244 47.0079 34.622 46.9902C34.6185 46.9677 34.6149 46.9453 34.6114 46.9228C34.6067 46.8921 34.6031 46.8626 34.6008 46.8331C34.5972 46.8071 34.596 46.7799 34.5937 46.7539C34.5925 46.7315 34.5913 46.709 34.5901 46.6866C34.5334 45.3421 35.6203 44.1879 37.0061 44.2033L38.1792 44.2163L39.5591 44.2304C39.65 45.2736 40.7629 46.1514 41.9278 45.6056L42.2763 45.4414L44.9285 44.6368C45.0951 44.586 45.2652 44.5624 45.4318 44.5624C46.0638 44.5624 46.6628 44.9098 46.9688 45.4922C47.2393 46.0108 47.843 46.2624 48.4018 46.0888L50.207 45.5276L50.5815 45.7887C52.0606 46.8189 54.0465 46.7362 55.4347 45.5843L56.01 45.9884L56.4471 45.5961L56.4672 45.5772C57.2942 44.8365 58.5051 44.794 59.4278 45.4118C60.3126 46.0049 61.4716 46.0037 62.7841 45.6647L64.2065 45.0232C64.4345 45.1094 64.6448 44.9476 64.672 44.7455C64.8137 44.6865 65.0406 44.6014 65.3347 44.5116L68.1311 44.5412C68.1453 44.5412 68.1594 44.5412 68.1736 44.5423C69.9304 44.5695 71.6327 45.1661 73.0197 46.2459C75.5443 48.207 78.5049 50.9975 80.8606 52.1115C84.53 53.8458 94.2033 53.6462 95.4036 53.7123C96.6051 53.7797 98.2058 56.8489 99.1403 56.9824C100.072 57.1147 105.897 52.8428 105.911 52.8322Z" fill="#1C0100"/>
<path d="M34.6222 46.9893C34.6246 47.007 34.6281 47.0247 34.6316 47.0424H34.6305C34.6281 47.0247 34.6246 47.007 34.6222 46.9893Z" fill="#E2B700"/>
<path d="M33.363 28.4289C33.363 28.4289 32.738 34.3205 35.5379 39.5293C36.3484 41.0356 37.8558 42.0634 39.5511 42.2914C39.8252 42.328 40.0745 42.3398 40.2493 42.3032C41.1909 42.1095 42.4432 41.4254 42.3002 41.4691C42.0829 41.5353 39.1317 41.6688 38.1311 40.9682C36.9875 40.1672 35.3962 38.199 34.2951 33.4628C33.8946 31.7947 33.4634 29.895 33.363 28.4277V28.4289Z" fill="#E2B700"/>
<path d="M34.4498 27.8498C34.4498 27.8498 35.8734 29.8062 35.9171 30.0732C35.9608 30.3402 43.1224 40.8806 54.8194 41.9923C54.8194 41.9923 47.1923 42.1707 42.3108 38.0334C37.4293 33.8974 34.4498 27.8486 34.4498 27.8486V27.8498Z" fill="#E2B700"/>
<path d="M41.9329 40.5022C41.9329 40.5022 43.8455 40.3013 43.9637 41.0314C44.0818 41.7616 43.5904 43.0824 41.9329 43.5714C41.9329 43.5714 43.7617 43.5053 44.5237 42.4598C45.2857 41.4142 45.3246 40.6144 44.6347 40.2576C43.9448 39.9009 41.9329 40.5022 41.9329 40.5022Z" fill="#E2B700"/>
<path d="M64.8392 4.58008C64.8392 4.58008 62.2921 7.43433 61.8479 8.14671C61.4037 8.85909 60.4692 10.5934 60.4692 10.5934C60.4692 10.5934 62.7375 8.4137 66.5179 7.03502C70.2984 5.65633 71.8555 5.43423 71.8555 5.43423C71.8555 5.43423 64.2945 7.9246 62.2484 9.70378C60.2022 11.483 59.491 14.0182 59.491 14.0182C59.491 14.0182 59.9801 12.5947 61.8479 11.0388C63.7157 9.48286 64.7836 9.17098 64.7836 9.17098C64.7836 9.17098 60.2022 12.3737 59.0905 15.0862C57.9788 17.7987 57.6232 22.2466 57.6232 22.2466C57.6232 22.2466 63.1828 10.6832 82.2186 9.70497C82.2186 9.70497 70.2818 11.3211 63.1261 16.8158C59.3291 19.7315 57.7165 24.6874 59.0031 29.2984C60.1207 33.3021 62.0357 39.1713 64.3784 42.3233C64.9289 43.0628 65.8233 43.4609 66.7448 43.4113C67.8659 43.3511 69.4868 43.4881 70.5134 44.5691L64.61 44.5053C64.61 44.5053 59.8773 37.769 58.3769 31.1815C56.8778 24.5941 56.8884 19.5164 58.8672 13.6154C60.8461 7.71432 64.3158 4.77973 64.3158 4.77973L64.8392 4.58244V4.58008Z" fill="#E2B700"/>
<path d="M49.8055 10.9816C49.8055 10.9816 43.9352 11.5817 40.8328 14.6841C37.7305 17.7864 36.1746 21.4889 36.1746 21.4889C36.1746 21.4889 35.9407 26.7591 42.9901 30.028C42.9901 30.028 36.0954 27.9594 35.4291 23.6237C35.4291 23.6237 33.6003 24.8689 33.3582 28.7604L33.3936 26.0916C33.3936 26.0916 36.125 19.5443 36.2207 19.3269C36.3164 19.1096 37.3087 16.7302 38.4547 15.6623C39.6006 14.5943 40.1772 13.9823 42.4431 12.7879C42.4431 12.7879 46.7493 10.7914 49.8067 10.9804L49.8055 10.9816Z" fill="#E2B700"/>
<path d="M109.072 48.1614C108.66 50.7759 108.381 51.5438 107.173 54.3626L105.026 60.1868C105.026 60.1868 104.495 59.6682 104.49 59.6635L104.078 59.1827C105.003 56.2835 105.222 54.9686 105.912 52.8315C106.423 51.2484 106.887 49.5909 107.287 47.8602C107.631 46.3763 106.504 44.9575 104.981 44.9409L103.158 44.9209C103.178 44.5724 103.844 44.2026 104.656 43.8907C104.633 43.2563 104.557 42.6278 104.412 42.0099C104.412 42.0099 104.411 42.0099 104.412 42.0087C104.521 41.6744 104.652 41.2904 104.812 40.877C104.942 41.0211 105.073 41.164 105.2 41.3046C105.632 41.7784 106.036 42.2214 106.331 42.5451C106.649 42.8948 106.951 43.2575 107.235 43.6355C108.397 45.176 109.374 46.2464 109.072 48.1614Z" fill="#E2B700"/>
<path d="M108.474 61.1062C108.135 61.2149 107.769 61.2728 107.38 61.2551C106.998 59.5196 109.886 52.4253 110.048 47.5745C110.147 44.5667 108.197 42.7828 105.911 40.0691C105.794 39.9309 105.711 39.9439 105.611 39.7938C105.822 39.4406 106.876 37.9946 107.145 37.6484C107.273 37.7855 107.401 37.9237 107.528 38.0643C109.624 40.3834 111.534 43.3144 111.681 45.8969C111.869 49.1977 109.031 59.1829 108.474 61.1062Z" fill="#E2B700"/>
<path d="M110.949 56.4032C110.949 56.4032 111.075 53.0386 112.079 47.3076C111.89 49.2108 111.587 51.0987 111.516 52.2447C111.323 55.3966 110.949 56.4032 110.949 56.4032Z" fill="#E2B700"/>
<path d="M112.167 46.8151C112.137 46.9817 112.108 47.1459 112.079 47.3078C112.26 45.4884 112.336 43.6537 112 42.4381C111.17 39.4302 109.726 37.0946 109.624 35.7455C109.601 35.4572 109.64 35.2139 109.76 35.0189C110.195 34.8015 110.666 34.6137 111.174 34.4566C111.174 34.4566 111.175 34.4562 111.177 34.4554H111.178C111.275 34.4507 111.376 34.4495 111.483 34.4495C111.483 34.4495 111.512 34.3633 111.642 34.6054H111.643C111.759 34.824 111.956 35.3095 112.286 36.3657C112.874 38.2512 113.25 40.7841 112.167 46.8151Z" fill="#E2B700"/>
<path d="M97.2383 44.9414H97.66C97.3942 44.9449 97.2383 44.9414 97.2383 44.9414Z" fill="#E2B700"/>
<path d="M111.641 34.6051C111.625 34.6122 111.61 34.6205 111.593 34.6287C111.033 34.8957 110.344 35.2655 109.624 35.7452C108.723 36.3406 107.774 37.1085 106.964 38.0642C106.676 38.4033 106.406 38.7672 106.162 39.1547C105.755 39.8021 105.42 40.518 105.199 41.3048C105.049 41.8341 104.951 42.3952 104.917 42.9895C104.897 43.3155 104.805 43.6215 104.655 43.8897C104.348 44.4402 103.802 44.8313 103.157 44.921H103.154C103.063 44.934 102.969 44.9411 102.873 44.9411H97.6597C97.9964 44.9376 98.5103 44.9222 99.1033 44.8773C100.947 44.7391 103.568 44.3103 104.077 43.0048C104.167 42.7733 104.272 42.4307 104.411 42.0101C104.411 42.0101 104.41 42.0101 104.411 42.0089C104.52 41.6746 104.651 41.2906 104.811 40.8771C105.071 40.2061 105.41 39.4536 105.863 38.701C106.075 38.3478 106.312 37.9945 106.582 37.6484C107.36 36.6407 108.387 35.6979 109.76 35.0186C110.194 34.8012 110.666 34.6134 111.174 34.4563C111.174 34.4563 111.174 34.4559 111.176 34.4551H111.177L111.566 34.5803L111.641 34.6051Z" fill="#E2B700"/>
<path d="M67.9881 43.4434C67.9881 43.4434 84.3965 47.5971 103.157 44.0801L102.874 44.9414C102.874 44.9414 86.2265 51.7722 70.97 44.9898C64.4368 44.6756 67.9869 43.4434 67.9869 43.4434H67.9881Z" fill="#E2B700"/>
<path d="M34.2815 46.5072C34.2815 46.5072 34.2945 44.305 35.9957 43.8384C37.6969 43.3717 39.8541 43.8159 39.8541 43.8159C39.8541 43.8159 40.1872 45.4096 40.8878 45.3151C41.5884 45.2206 43.9677 44.2767 44.9022 44.2873C45.8367 44.2979 46.9366 44.2932 47.304 45.4002C47.304 45.4002 47.6714 46.0618 49.3383 45.4002C51.0053 44.7386 50.4063 45.0009 50.4063 45.0009C50.4063 45.0009 51.6066 46.2402 52.8081 46.1067C54.0096 45.9732 55.5773 45.0009 55.5773 45.0009L56.0605 45.4002C56.0605 45.4002 57.5112 43.6411 59.646 44.8402C61.7808 46.0393 64.6102 44.5023 64.6102 44.5023L65.3356 44.5106L64.6728 44.7445C64.6728 44.7445 64.7283 45.1474 64.2074 45.0221L62.785 45.6636C62.785 45.6636 61.7926 45.9235 61.1972 45.8952C60.6017 45.8668 60.2072 46.0003 59.0175 45.1946C59.0175 45.1946 57.3328 44.7162 56.0097 45.9873L55.4343 45.5833C55.4343 45.5833 54.3971 46.5083 52.9179 46.5072C51.4388 46.5072 50.2066 45.5266 50.2066 45.5266C50.1369 45.3955 48.359 46.5154 47.33 45.9105C47.33 45.9105 47.0842 45.7369 46.8302 45.3588C46.6188 45.0422 46.3281 44.7823 45.9714 44.6488C45.7552 44.5685 45.5082 44.5212 45.2554 44.5708L42.2748 45.4404C42.2559 45.438 41.6108 45.7924 41.3013 45.7723C39.7206 45.6695 39.6556 44.7008 39.5576 44.2294C39.5576 44.2294 38.0584 44.1928 37.0589 44.2294C36.3182 44.2566 35.6093 44.572 35.1285 45.1367C34.7587 45.5715 34.4835 46.1917 34.6288 47.0423L34.2803 46.5072H34.2815Z" fill="#E2B700"/>
<path d="M110.471 36.5675C110.471 36.5675 110.268 37.5008 109.992 35.5078C109.363 30.9535 109.08 23.0016 106.142 17.6652C102.311 10.7056 90.503 4.84 87.4514 2.44531C89.0357 2.59299 90.6872 2.80209 92.4015 3.08327C98.0119 6.19151 105.986 11.9095 109.617 18.5548C112.46 23.7577 110.471 36.5675 110.471 36.5675Z" fill="#E2B700"/>
</g>
<defs>
<clipPath id="clip0_2660_428541">
<rect x="0.232666" width="141.767" height="177" rx="5.66133" fill="white"/>
</clipPath>
</defs>
</svg>
