<svg width="405" height="448" viewBox="0 0 405 448" fill="none" xmlns="http://www.w3.org/2000/svg">
<g clipPath="url(#clip0_2659_522683)">
<path d="M170.132 323.071C169.96 323.274 169.815 323.581 169.741 323.945C169.667 324.316 169.683 324.663 169.764 324.916C169.609 324.879 169.447 324.862 169.285 324.862C169.181 324.862 169.08 324.869 168.978 324.886C168.351 324.252 168.314 323.483 168.314 323.483C168.314 323.483 168.294 323.358 168.25 323.132C168.581 323.024 168.928 322.96 169.285 322.96C169.575 322.96 169.859 323 170.132 323.071Z" fill="#FFC400"/>
<path d="M172.844 325.54C173.236 326.357 173.462 327.318 173.462 328.347C173.462 331.322 171.593 333.734 169.285 333.734C166.978 333.734 165.109 331.322 165.109 328.347C165.109 325.834 166.445 323.729 168.25 323.132C168.294 323.358 168.314 323.483 168.314 323.483C168.314 323.483 168.351 324.252 168.978 324.886C167.629 325.082 166.583 326.556 166.583 328.347C166.583 330.273 167.791 331.832 169.285 331.832C170.78 331.832 171.987 330.273 171.987 328.347C171.987 327.284 171.616 326.333 171.036 325.692C171.519 325.723 172.089 325.685 172.76 325.561C172.79 325.554 172.817 325.547 172.844 325.54Z" fill="#FFC400"/>
<path d="M252.844 324.288C253.721 325.276 254.278 326.727 254.278 328.346C254.278 331.321 252.409 333.733 250.101 333.733C248.55 333.733 247.2 332.644 246.478 331.025C246.128 330.235 245.922 329.321 245.922 328.346C245.922 326.774 246.448 325.364 247.281 324.379C247.342 324.609 247.433 324.791 247.561 324.909C247.808 325.142 248.165 325.334 248.6 325.445C247.875 326.069 247.396 327.135 247.396 328.346C247.396 330.272 248.607 331.831 250.101 331.831C251.596 331.831 252.803 330.272 252.803 328.346C252.803 326.96 252.173 325.762 251.262 325.202C251.771 325 252.304 324.703 252.844 324.288Z" fill="#FFC400"/>
<path d="M249.703 322.986C249.561 323.185 249.443 323.459 249.379 323.776C249.281 324.258 249.335 324.7 249.493 324.949C249.17 325.044 248.87 325.216 248.6 325.445C248.165 325.334 247.807 325.141 247.561 324.909C247.433 324.791 247.342 324.609 247.281 324.379C247.477 324.147 247.692 323.937 247.922 323.755C248.451 323.337 249.055 323.067 249.703 322.986Z" fill="#FFC400"/>
<path d="M128.957 301.572H128.96C126.565 303.515 124.058 305.003 124.058 305.003V294.016L126.717 300.091L128.957 301.572Z" fill="#54311E"/>
<path d="M132.98 286.621L127.374 285.096C127.387 283.737 127.168 282.779 127.168 282.779L131.621 273.938C131.621 273.938 140.961 276.184 143.97 285.737C141.585 287.417 139.228 289.785 137.227 292.052C134.873 290.298 132.98 286.621 132.98 286.621Z" fill="#54311E"/>
<path d="M136.017 293.462C134.27 295.547 132.907 297.396 132.219 298.333C131.787 298.92 131.244 299.514 130.643 300.091C129.233 297.645 127.55 295.297 125.647 294.336L124.058 292.177C126.305 290.531 127.084 288.19 127.304 286.257C128.68 286.679 133.824 288.544 136.017 293.462Z" fill="#54311E"/>
<path d="M388.908 473.464C398.435 484.647 395.732 492.84 393.479 501.149L392.305 503.301H12.7343C8.36924 498.16 7.23243 493.35 5.72792 487.591C4.43593 482.636 1.40668 478.328 0 476.51V449.186L17.4435 435.872C17.4435 435.872 22.7801 428.379 23.1613 424.952C23.5391 421.521 33.983 409.01 33.983 409.01L44.9497 394.494L48.3669 395.806C52.1146 391.93 60.7504 392.996 61.3204 398.853C67.804 397.028 72.3681 399.011 74.1492 406.537L78.6796 405.889C78.6257 406.024 78.5751 406.159 78.5245 406.291C78.6965 406.146 78.8753 405.994 79.0676 405.832C82.6399 402.823 89.8352 396.775 94.8817 392.629C101.834 386.914 114.214 383.774 114.214 383.774C106.948 388.682 122.385 410.713 142.716 422.611C149.803 426.76 158.101 428.339 166.211 427.043C186.171 423.849 218.147 409.607 244.324 362.532C244.324 362.532 266.355 367.801 269.023 367.42C271.692 367.042 276.897 365.898 280.452 363.23C284.008 360.565 293.025 349.261 306.997 346.721C306.997 346.721 312.33 344.815 316.392 334.658C320.457 324.498 338.872 318.146 338.872 318.146C339.286 318.088 339.695 318.044 340.099 318.004C349.899 317.026 356.885 321.063 360.714 330.718C366.654 334.951 369.65 340.035 370.473 345.75C371.06 349.804 370.554 354.176 369.225 358.784C375.621 369.987 379.567 380.346 374.811 387.741C382.229 396.454 382.87 406.001 379.382 416.06C387.37 426.129 388.729 436.074 384.081 445.904C392.066 453.848 392.241 463.314 388.908 473.464Z" fill="#FFC900"/>
<path d="M381.195 307.193C382.338 313.099 381.957 319.195 381.195 322.052C380.729 323.793 374.937 336.257 370.474 345.75C369.651 340.035 366.655 334.952 360.715 330.718C356.886 321.064 349.9 317.026 340.101 318.004C340.573 316.203 340.799 314.216 340.65 311.949C335.479 300.399 331.121 288.241 327.569 275.477C320.549 248.982 313.515 223.416 306.361 209.946L293.535 188.613C290.148 187.557 288.613 184.687 287.922 182.524C292.945 173.558 297.843 162.969 301.756 150.855H301.759L296.52 168.991C307.187 182.325 316.14 168.991 316.14 168.991C316.14 168.991 316.14 173.659 318.14 178.898C320.141 184.133 324.998 199.087 327.569 203.088C330.143 207.089 354.714 246.523 359.288 255.378C363.859 264.237 380.051 301.289 381.195 307.193Z" fill="#3C2415"/>
<path d="M301.753 150.856C297.839 162.97 292.941 173.559 287.918 182.525C275.09 205.44 261.465 217.756 261.465 217.756C261.465 217.756 254.593 224.779 238.499 229.485C237.005 228.979 235.335 228.554 233.463 228.234C216.701 225.376 196.316 216.616 176.885 223.663C176.885 223.663 171.785 225.545 166.448 228.696C116.533 215.351 101.95 156.23 98.2191 134.327C98.2123 134.276 98.2022 134.226 98.1955 134.175C97.4837 129.982 100.749 126.17 105.003 126.217L108.353 126.254L112.293 126.295C112.552 129.273 115.73 131.78 119.056 130.221L120.051 129.752L127.624 127.455C128.1 127.31 128.586 127.243 129.061 127.243C130.866 127.243 132.576 128.234 133.45 129.898C134.223 131.378 135.946 132.097 137.542 131.601L142.696 129.999L143.766 130.744C147.989 133.686 153.66 133.45 157.623 130.161L159.266 131.314L160.514 130.194L160.572 130.14C162.933 128.025 166.391 127.904 169.025 129.668C171.552 131.362 174.861 131.358 178.609 130.39L182.67 128.558C183.322 128.805 183.922 128.342 184 127.766C184.404 127.597 185.052 127.354 185.892 127.098L200.677 127.256C208.736 131.294 221.076 144.474 230.224 148.798C240.702 153.75 268.323 153.18 271.75 153.369C275.181 153.561 279.752 162.325 282.42 162.707C285.081 163.084 301.712 150.886 301.753 150.856Z" fill="#00300C"/>
<path d="M260.169 303.921C260.055 303.094 259.943 302.528 259.943 302.528C259.943 302.528 260.827 302.501 262.082 302.295C262.241 302.727 262.362 303.202 262.419 303.732C262.993 308.843 257.754 315.768 257.754 315.768C256.422 320.342 254.6 322.936 252.846 324.289C252.306 324.704 251.773 325.001 251.264 325.203C250.248 325.608 249.317 325.632 248.602 325.446C248.872 325.217 249.172 325.045 249.496 324.95C249.564 325.055 249.648 325.126 249.749 325.146C249.921 325.183 250.107 325.075 250.265 324.873C250.424 324.67 250.555 324.373 250.626 324.029C250.707 323.628 250.684 323.257 250.582 323C250.508 322.815 250.4 322.687 250.255 322.66C250.07 322.619 249.874 322.754 249.705 322.987C249.058 323.068 248.454 323.338 247.924 323.756C247.695 323.938 247.479 324.147 247.283 324.38C246.75 322.474 248.332 317.154 249.088 314.807C252.451 313.009 258.958 311.271 259.943 309.956C260.733 308.903 260.433 305.763 260.169 303.921Z" fill="#3C2415"/>
<path d="M250.582 323C250.683 323.257 250.706 323.628 250.626 324.029C250.555 324.373 250.423 324.67 250.265 324.872C250.211 324.869 250.157 324.862 250.103 324.862C249.894 324.862 249.691 324.892 249.496 324.95C249.337 324.7 249.283 324.258 249.381 323.776C249.445 323.459 249.563 323.186 249.705 322.987C249.836 322.97 249.968 322.96 250.103 322.96C250.265 322.96 250.423 322.977 250.582 323Z" fill="#3C2415"/>
<path d="M250.58 323C250.422 322.977 250.263 322.96 250.101 322.96C249.966 322.96 249.835 322.97 249.703 322.987C249.872 322.754 250.067 322.619 250.253 322.659C250.398 322.686 250.506 322.815 250.58 323Z" fill="#3C2415"/>
<path d="M250.103 324.862C250.157 324.862 250.211 324.869 250.265 324.872C250.106 325.075 249.921 325.183 249.749 325.146C249.648 325.125 249.563 325.055 249.496 324.95C249.692 324.893 249.894 324.862 250.103 324.862Z" fill="#3C2415"/>
<path d="M187.397 365.298L184.793 352.999C184.793 352.999 175.162 341.408 173.553 325.324C173.468 324.484 173.401 323.637 173.364 322.774C172.881 311.76 170.871 305.28 169.461 302.004L170.604 301.572C170.604 301.572 174.032 308.241 180.89 308.623C187.748 309.004 194.795 310.717 197.463 313.004C200.131 315.288 207.559 321.384 209.654 325.003C211.749 328.623 225.276 335.481 232.134 333.005C238.712 331.861 240.324 326.909 236.894 320.244C236.894 320.244 245.276 317.764 247.752 315.669C248.093 315.383 248.552 315.093 249.088 314.806C248.333 317.154 246.751 322.473 247.284 324.379C246.45 325.364 245.924 326.774 245.924 328.346C245.924 329.321 246.13 330.235 246.481 331.025C244.497 341.921 241.849 355.104 241.849 355.104C241.826 359.108 242.848 361.23 244.325 362.532C218.148 409.607 186.172 423.849 166.212 427.043C158.103 428.339 149.804 426.76 142.717 422.611C122.386 410.713 106.95 388.682 114.216 383.774C114.216 383.774 116.698 383.575 122.028 381.487C136.125 375.678 154.031 379.675 154.031 379.675C158.184 376.214 182.917 366.961 187.397 365.298Z" fill="#3C2415"/>
<path d="M220.388 274.889C209.546 270.825 191.587 269.175 180.408 268.632V268.534C180.482 265.964 179.821 263.757 178.788 261.892C175.833 256.539 169.559 253.907 163.612 255.331C161.81 255.759 159.837 256.157 158.11 256.333C153.428 256.808 149.157 248.719 155.266 248.142C161.382 248.142 184.901 253.28 195.159 253.803C197.669 253.931 199.507 251.441 198.624 249.09C196.208 242.677 192.579 237.203 187.957 232.493C210.272 235.094 226.818 232.898 238.5 229.484C250.387 233.502 250.988 242.522 250.988 242.522C272.705 263.474 266.799 282.334 270.037 292.239C272.442 299.599 265.702 301.701 262.079 302.294C260.824 302.5 259.941 302.527 259.941 302.527C254.543 304.551 240.726 307.999 236.003 307.098C229.034 305.772 224.571 305.89 221.184 305.563C220.021 305.452 218.85 305.418 217.683 305.415C202.607 305.368 185.339 298.526 182.034 297.157C182.921 296.803 183.363 296.62 183.363 296.62C183.832 296.442 184.307 296.249 184.79 296.05H184.793C195.544 291.611 209.513 282.537 220.388 274.889Z" fill="#931183"/>
<path d="M260.167 303.921C260.43 305.763 260.73 308.904 259.941 309.956C258.956 311.272 252.449 313.009 249.086 314.807C248.549 315.094 248.09 315.384 247.75 315.671C245.274 317.765 236.891 320.245 236.891 320.245C240.322 326.91 238.709 331.863 232.131 333.006C225.273 335.482 211.746 328.624 209.651 325.005C207.556 321.385 200.128 315.289 197.46 313.006C194.792 310.718 187.745 309.005 180.887 308.624C174.029 308.242 170.602 301.573 170.602 301.573C176.019 299.532 179.706 298.085 181.673 297.303C182.59 298.969 186.595 305.605 193.078 307.099C200.51 308.813 216.081 306.91 220.604 307.099C225.128 307.291 232.32 308.114 236.385 309.005C239.127 309.605 253.987 306.549 260.167 303.921Z" fill="#931183"/>
<path d="M259.94 302.528C259.94 302.528 260.051 303.094 260.166 303.921C253.986 306.549 239.126 309.605 236.384 309.004C232.319 308.114 225.127 307.291 220.604 307.098C216.08 306.91 200.509 308.812 193.077 307.098C186.594 305.604 182.589 298.969 181.672 297.302C181.8 297.252 181.922 297.201 182.033 297.157C185.339 298.527 202.607 305.368 217.682 305.415C218.849 305.415 220.02 305.452 221.184 305.564C224.571 305.891 229.033 305.773 236.003 307.098C240.725 307.999 254.543 304.552 259.94 302.528Z" fill="#931183"/>
<path d="M233.464 228.233C235.336 228.554 237.006 228.979 238.501 229.485C226.819 232.898 210.273 235.095 187.958 232.494C184.73 229.195 181.012 226.27 176.887 223.662C196.317 216.615 216.702 225.376 233.464 228.233Z" fill="#931183"/>
<path d="M220.39 274.89C209.515 282.537 195.546 291.611 184.795 296.051H184.792C179.546 291.477 156.776 286.531 155.933 288.43C155.326 287.402 154.796 286.383 154.334 285.381C148.113 271.867 154.219 260.81 154.219 260.81C154.219 260.81 166.316 268.619 171.079 268.43C172.455 268.376 175.872 268.413 180.41 268.632C191.589 269.175 209.548 270.825 220.39 274.89Z" fill="#931183"/>
<path d="M198.624 249.09C199.508 251.442 197.67 253.931 195.16 253.803C184.902 253.28 161.383 248.143 155.267 248.143C149.158 248.719 153.429 256.809 158.111 256.333C159.838 256.158 161.811 255.76 163.613 255.331C169.56 253.908 175.834 256.539 178.789 261.892C179.821 263.758 180.483 265.964 180.412 268.534V268.632C175.871 268.413 172.454 268.376 171.078 268.43C166.315 268.619 154.218 260.809 154.218 260.809C145.839 251.857 150.979 246.331 155.932 237.948C158.09 234.302 162.337 231.121 166.45 228.695C167.93 229.09 169.438 229.444 170.983 229.758C176.978 230.976 182.631 231.87 187.958 232.494C192.579 237.203 196.209 242.678 198.624 249.09Z" fill="#931183"/>
<path d="M184.793 296.051C184.311 296.25 183.835 296.442 183.366 296.621C183.366 296.621 182.924 296.803 182.037 297.157C181.926 297.201 181.804 297.252 181.676 297.303C179.709 298.085 176.022 299.532 170.605 301.573L169.461 302.005L163.302 304.329L162.988 304.447C160.384 305.429 157.435 304.397 156.039 301.985C151.39 293.973 155.934 288.431 155.934 288.431C156.778 286.531 179.548 291.477 184.793 296.051Z" fill="#931183"/>
<path d="M176.886 223.662C181.012 226.27 184.729 229.194 187.958 232.493C182.631 231.869 176.977 230.975 170.983 229.758C169.438 229.444 167.93 229.09 166.449 228.695C171.786 225.544 176.886 223.662 176.886 223.662Z" fill="#931183"/>
<path d="M173.363 322.775C173.401 323.638 173.468 324.485 173.552 325.325C173.34 325.412 173.104 325.487 172.847 325.541C172.82 325.547 172.793 325.554 172.763 325.561C172.092 325.686 171.522 325.723 171.039 325.692C170.017 325.635 169.38 325.288 168.981 324.886C169.083 324.869 169.184 324.863 169.288 324.863C169.45 324.863 169.612 324.879 169.767 324.917C169.838 325.132 169.956 325.284 170.115 325.318C170.226 325.342 170.348 325.298 170.459 325.207C170.688 325.028 170.894 324.657 170.989 324.198C171.046 323.928 171.049 323.668 171.019 323.446C170.968 323.112 170.827 322.869 170.621 322.828C170.459 322.795 170.287 322.893 170.135 323.071C169.862 323 169.579 322.96 169.288 322.96C168.931 322.96 168.583 323.024 168.253 323.132C168.057 322.12 167.406 319.013 166.158 315.481C165.038 312.31 163.854 306.954 163.301 304.329L169.46 302.005C170.871 305.28 172.881 311.761 173.363 322.775Z" fill="#3C2415"/>
<path d="M171.018 323.446C171.048 323.668 171.045 323.928 170.987 324.198C170.893 324.656 170.687 325.027 170.458 325.206C170.242 325.071 170.009 324.973 169.766 324.916C169.685 324.663 169.668 324.316 169.743 323.945C169.817 323.581 169.962 323.274 170.134 323.071C170.441 323.156 170.738 323.28 171.018 323.446Z" fill="#3C2415"/>
<path d="M170.618 322.829C170.824 322.869 170.966 323.112 171.016 323.446C170.737 323.281 170.44 323.156 170.133 323.072C170.285 322.893 170.457 322.795 170.618 322.829Z" fill="#3C2415"/>
<path d="M170.457 325.206C170.346 325.297 170.224 325.341 170.113 325.317C169.954 325.284 169.836 325.132 169.766 324.916C170.008 324.973 170.241 325.071 170.457 325.206Z" fill="#3C2415"/>
<path d="M120.121 270.848C120.418 270.39 120.671 269.958 120.897 269.55C120.914 269.516 120.927 269.496 120.927 269.496C121.969 267.586 122.33 266.274 123.073 265.761C124.597 264.712 128.504 264.429 128.504 264.429C128.504 264.429 134.852 261.379 136.06 261.315C137.264 261.255 146.855 258.903 146.598 263.474C146.345 268.049 140.759 270.015 137.264 270.525C137.264 270.525 135.105 273.065 131.806 273.571L131.621 273.938L127.168 282.78C127.168 282.78 127.387 283.738 127.374 285.097C127.367 285.458 127.347 285.846 127.303 286.258C127.083 288.191 126.304 290.532 124.058 292.178V305.003C124.058 305.003 126.564 303.516 128.959 301.576C129.327 301.272 129.694 300.962 130.049 300.645C130.251 300.463 130.45 300.277 130.642 300.092C131.243 299.515 131.786 298.921 132.218 298.334C132.906 297.397 134.269 295.548 136.016 293.463C136.404 293.001 136.809 292.529 137.227 292.053C139.227 289.786 141.585 287.418 143.97 285.738C146.652 283.846 149.368 282.817 151.648 283.765C152.677 284.19 153.271 284.885 153.544 285.752C155.035 290.512 146.79 300.527 146.79 300.527C146.79 300.527 142.695 307.955 141.17 311.669C139.646 315.386 133.645 326.053 120.215 334.719C120.215 334.719 107.994 346.974 93.2624 372.5C93.2624 372.5 93.178 372.683 93.0229 373.017C92.6248 372.652 92.1458 372.372 91.6128 372.214C91.4543 372.072 91.3564 371.994 91.3564 371.994C86.9475 362.171 78.8616 355.786 75.4141 354.166L75.6401 353.866C75.6401 353.866 81.1656 346.91 83.3549 341.388C85.5476 335.863 87.6424 334.055 87.6424 334.055C96.214 324.434 94.1192 309.004 94.0247 303.29C93.9269 297.575 96.5952 296.621 96.5952 296.621C97.8332 290.144 102.121 288.336 102.121 288.336C102.691 285.762 106.597 283.286 114.12 277.258C117.166 274.819 118.96 272.643 120.121 270.848Z" fill="#3C2415"/>
<path d="M317.662 98.3668C317.662 98.3668 324.327 107.654 320.138 130.7C315.948 153.75 316.137 168.991 316.137 168.991C316.137 168.991 307.184 182.326 296.518 168.991L301.756 150.856H301.753C303.214 146.336 304.539 141.603 305.68 136.661C306.661 132.424 303.443 128.373 299.095 128.325L200.678 127.256C199.507 126.669 198.428 126.274 197.46 126.129C192.683 125.411 188.412 126.318 185.893 127.098L183.821 127.074C183.612 126.76 183.403 126.443 183.197 126.129C139.445 59.0473 179.186 16.8199 182.981 13.6422C182.981 13.6422 223.556 -3.21436 285.278 13.6422C346.996 30.5021 317.662 98.3668 317.662 98.3668Z" fill="#F5D53E"/>
<path d="M299.093 128.325C303.441 128.372 306.659 132.424 305.678 136.661C304.537 141.603 303.212 146.335 301.751 150.856C301.71 150.886 285.08 163.084 282.418 162.706C279.75 162.325 275.179 153.561 271.749 153.369C268.321 153.18 240.7 153.75 230.223 148.798C221.074 144.473 208.735 131.294 200.676 127.256L299.093 128.325Z" fill="#F5D53E"/>
<path d="M200.676 127.255L185.891 127.097C188.41 126.318 192.681 125.41 197.458 126.129C198.426 126.274 199.505 126.668 200.676 127.255Z" fill="#F5D53E"/>
<path d="M183.82 127.073L185.891 127.097C185.051 127.353 184.404 127.596 183.999 127.765C184.026 127.545 183.982 127.313 183.837 127.097C183.83 127.09 183.827 127.08 183.82 127.073Z" fill="#F5D53E"/>
<path d="M101.997 56.9451C102.662 55.4068 103.353 53.8247 104.065 52.219C109.26 40.5035 124.69 31.9318 141.55 31.3583C141.55 31.3583 150.408 20.2162 182.981 13.6416C179.186 16.8193 139.445 59.0467 183.197 126.129C183.403 126.442 183.612 126.76 183.821 127.073L178.609 127.016L160.515 126.82L157.624 126.787L142.697 126.625L133.45 126.523L129.068 126.476L120.051 126.378L112.293 126.294C112.195 125.167 112.519 123.973 113.409 122.904C113.453 122.85 113.5 119.423 113.548 119.365C113.548 119.365 92.9737 117.652 94.6873 74.5067C94.6873 74.5067 97.8043 66.6333 101.997 56.9451Z" fill="#F5D53E"/>
<path d="M184.001 127.765C183.923 128.342 183.323 128.804 182.672 128.558L178.61 130.39C174.862 131.358 171.553 131.361 169.026 129.668C166.392 127.903 162.934 128.025 160.573 130.14L160.515 130.194L159.267 131.314L157.625 130.16C153.661 133.449 147.99 133.685 143.767 130.744L142.698 129.998L137.543 131.601C135.947 132.097 134.224 131.378 133.451 129.897C132.578 128.234 130.867 127.242 129.062 127.242L129.069 126.477L133.451 126.524L142.698 126.625L157.625 126.787L160.515 126.821L178.61 127.016L183.822 127.074C183.822 127.074 183.832 127.091 183.839 127.097C183.984 127.313 184.028 127.546 184.001 127.765Z" fill="#F5D53E"/>
<path d="M129.069 126.476L129.062 127.242C128.586 127.242 128.1 127.309 127.625 127.454L120.052 129.752L119.056 130.221C115.73 131.779 112.553 129.273 112.293 126.294L120.052 126.378L129.069 126.476Z" fill="#F5D53E"/>
<path d="M113.55 119.365C113.503 119.423 113.456 122.85 113.412 122.904C112.522 123.973 112.198 125.168 112.295 126.294L108.355 126.254L105.006 126.217C100.752 126.169 97.4866 129.981 98.1983 134.174C98.2051 134.225 98.2152 134.276 98.2219 134.326C89.1173 120.627 68.2532 82.0564 102 56.9453C97.807 66.6335 94.6901 74.5069 94.6901 74.5069C92.9764 117.652 113.55 119.365 113.55 119.365Z" fill="#F5D53E"/>
<path d="M87.9564 377.989C88.5231 378.63 89.3158 379.062 90.2132 379.163C89.5655 380.583 88.8503 382.172 88.0913 383.862C87.1131 383.228 86.4688 382.132 86.4688 380.88C86.4688 379.629 87.0557 378.637 87.9564 377.989Z" fill="#3C2415"/>
<path d="M87.0552 375.628C87.0552 376.535 87.3959 377.362 87.9558 377.989C87.0552 378.637 86.4682 379.689 86.4682 380.88C86.4682 382.131 87.1125 383.228 88.0908 383.862C84.9232 390.926 81.0371 399.788 78.6792 405.89L74.1488 406.538C72.3677 399.012 67.8036 397.028 61.32 398.853C60.7499 392.997 52.1142 391.931 48.3664 395.807L44.9492 394.495L67.7901 364.256L68.2724 363.619L70.8665 360.185C73.7946 360.697 86.4412 370.298 87.8411 373.405C87.3486 374.012 87.0552 374.784 87.0552 375.628Z" fill="#3C2415"/>
<path d="M92.6815 378.518C93.2381 379.148 93.5822 379.971 93.5822 380.879C93.5822 382.842 91.9899 384.434 90.0267 384.434C89.3115 384.434 88.6503 384.222 88.0938 383.861C88.8527 382.171 89.5679 380.582 90.2156 379.162C90.3438 379.175 90.4787 379.185 90.6136 379.185C91.3861 379.185 92.0979 378.936 92.6815 378.518Z" fill="#FFC400"/>
<path d="M93.0219 373.016C93.7235 373.667 94.1654 374.594 94.1654 375.627C94.1654 376.821 93.5751 377.873 92.6778 378.518C92.2325 378.018 91.6489 377.644 90.9844 377.458C91.9424 375.357 92.6677 373.781 93.0219 373.016Z" fill="#FFC400"/>
<path d="M93.0232 373.016C92.669 373.782 91.9438 375.357 90.9857 377.459C90.6788 377.375 90.3583 377.324 90.0243 377.324C89.2519 377.324 88.5401 377.574 87.9565 377.988C87.3965 377.361 87.0558 376.535 87.0558 375.627C87.0558 374.784 87.3493 374.011 87.8418 373.404C86.4419 370.297 73.7952 360.697 70.8672 360.184L75.4144 354.166C78.862 355.785 86.9479 362.171 91.3568 371.994C91.3568 371.994 91.4546 372.072 91.6132 372.213C92.1462 372.372 92.6252 372.652 93.0232 373.016Z" fill="#FFC400"/>
<path d="M90.9872 377.459C91.6516 377.644 92.2351 378.019 92.6803 378.518C92.0968 378.936 91.3852 379.186 90.6128 379.186C90.4779 379.186 90.343 379.176 90.2148 379.162C90.4847 378.565 90.7444 377.995 90.9872 377.459Z" fill="#FFC400"/>
<path d="M90.9857 377.459C90.7429 377.995 90.4832 378.565 90.2133 379.162C89.3162 379.061 88.5236 378.629 87.957 377.989C88.5405 377.574 89.2521 377.324 90.0245 377.324C90.3584 377.324 90.6788 377.375 90.9857 377.459Z" fill="#FFC400"/>
<path d="M75.416 354.166L70.8687 360.184C70.3695 360.093 70.0355 360.029 69.7892 360.029C69.4418 360.029 69.2596 360.154 69.0201 360.502C68.7739 360.856 68.6356 361.274 68.5681 361.702L68.2746 363.618L67.7922 364.256C67.5291 362.924 67.1918 360.616 67.7383 359.412C68.1667 358.464 71.992 353.451 74.2758 353.768C74.5524 353.805 74.9403 353.94 75.416 354.166Z" fill="#FFC400"/>
<path d="M319.218 330.189C319.218 330.189 326.903 326.529 329.568 327.48C332.233 328.431 336.901 332.908 339.664 342.053C339.664 342.053 332.712 331.289 329.439 330.148C326.862 329.248 319.215 330.189 319.215 330.189H319.218Z" fill="#ED9015"/>
<path d="M350.616 370.916C350.616 370.916 349.092 394.728 347.948 398.729C346.805 402.73 345.769 423.304 340.095 444.637C334.421 465.973 323.373 499.69 323.373 505.404C323.373 505.404 323.184 491.307 326.231 478.546C329.28 465.781 337.089 436.446 340.898 419.873C344.706 403.3 348.707 373.392 350.613 370.916H350.616Z" fill="#ED9015"/>
<path d="M342.521 402.156C342.521 402.156 340.045 417.491 337.758 423.3C335.471 429.109 334.52 434.823 334.52 434.823C334.52 434.823 339.829 406.929 342.521 402.152V402.156Z" fill="#ED9015"/>
<path d="M25.0625 451.619C25.0625 451.619 34.5247 431.022 44.9112 421.323C46.6248 419.724 49.762 417.268 55.7295 416.253C57.6455 415.926 59.6999 416.145 61.8116 415.531C47.5255 421.796 35.7256 435.1 25.0625 451.619Z" fill="#ED9015"/>
<path d="M72.875 409.87C72.875 409.87 78.6839 432.35 98.4955 438.446L112.383 443.209C112.383 443.209 87.5423 444.818 77.4459 427.489C73.2562 422.446 72.875 409.873 72.875 409.873V409.87Z" fill="#ED9015"/>
<path d="M156.55 248.196C154.381 249.34 153.848 250.531 154.101 251.745C154.431 253.327 155.97 254.332 157.582 254.204C158.375 254.14 159.147 253.941 159.91 253.668C160.672 253.395 161.472 253.287 162.271 253.368L166.343 253.779C168.485 253.995 170.59 254.528 172.553 255.422C175.167 256.613 178.085 258.637 178.787 261.895C178.787 261.895 179.553 257.891 178.345 256.049C185.47 257.034 190.816 255.51 195.994 253.749C195.994 253.749 191.046 253.914 184.791 252.602C178.537 251.29 159.39 248.223 156.55 248.2" fill="#660064"/>
<path d="M200.699 312.529C200.699 312.529 219.745 320.817 236.892 320.244C236.892 320.244 229.143 322.433 220.922 321.482C212.702 320.53 207.365 317.552 207.365 317.552L200.699 312.525V312.529Z" fill="#660064"/>
<path d="M265.718 283.407C257.936 295.855 248.74 304.251 237.652 307.243C237.652 307.243 249.695 306.94 256.756 303.59C263.816 300.24 262.291 292.367 263.688 289.321C265.084 286.275 265.718 283.407 265.718 283.407Z" fill="#660064"/>
<path d="M236.478 263.059C226.547 268.989 216.97 272.43 208 271.64C208 271.64 217.317 273.111 220.39 274.889C222.02 273.742 236.478 263.059 236.478 263.059Z" fill="#660064"/>
<path d="M154.045 297.157C156.498 293.5 160.347 290.822 164.648 291.763L176.029 293.622L184.793 296.051C184.891 295.622 175.399 290.07 161.993 288.444C161.993 288.444 157.473 287.985 156.16 288.225C154.244 290.778 153.445 293.723 154.042 297.16L154.045 297.157Z" fill="#660064"/>
<path d="M178.694 298.476C178.694 298.476 174.713 306.339 187.704 309.436L178.734 308.285C174.95 306.804 172.092 304.672 170.601 301.576L178.694 298.479V298.476Z" fill="#660064"/>
<path d="M207.895 322.652C207.895 322.652 218.227 331.331 224.323 331.024C230.418 330.717 237.657 329.911 237.657 329.911C237.657 329.911 234.136 333.865 228.516 333.531C228.516 333.531 220.433 333.315 213.687 328.515C209.561 325.907 207.898 322.648 207.898 322.648L207.895 322.652Z" fill="#660064"/>
<path d="M171.039 277.002C171.039 277.002 202.988 293.487 225.087 289.955C247.185 286.423 260.173 272.431 260.173 272.431C260.173 272.431 242.233 289.453 223.754 292.657C205.275 295.862 171.042 277.002 171.042 277.002H171.039Z" fill="#660064"/>
<path d="M250.465 242.759C250.465 242.759 205.795 264.648 177.203 238.646C177.203 238.646 185.964 245.882 207.894 246.807C230.397 247.754 250.465 242.759 250.465 242.759Z" fill="#660064"/>
<path d="M204.981 271.108C204.981 271.108 178.22 273.833 158.027 261.892C158.027 261.892 175.363 270.969 204.981 271.108Z" fill="#660064"/>
<path d="M301.752 150.856C297.839 162.97 292.941 173.559 287.918 182.525L285.223 187.17C276.914 185.726 277.943 172.611 273.369 168.991C268.798 165.372 253.844 161.657 230.605 156.037C207.363 150.418 203.841 135.75 200.677 135.939C197.512 136.131 185.456 128.572 185.456 128.572C180.029 132.819 173.457 132.512 169.561 131.044C165.665 129.58 165.837 129.655 162.818 130.829C159.802 131.999 158.028 132.606 154.31 134.327C150.596 136.047 144.501 132.417 142.696 131.314C140.891 130.211 139.835 132.32 135.453 132.799C131.071 133.278 130.785 129.749 128.184 129.179C125.583 128.606 122.307 131.368 116.691 131.756C111.071 132.144 109.833 128.417 105.545 128.734C101.258 129.047 99.4025 140.578 99.4025 140.578L98.2184 134.327C98.2117 134.276 98.2015 134.226 98.1948 134.175C98.1847 134.111 98.1746 134.047 98.1644 133.983C98.1509 133.895 98.1408 133.811 98.1341 133.726C98.124 133.652 98.1206 133.574 98.1138 133.5C98.1105 133.436 98.1071 133.372 98.1037 133.308C97.9418 129.469 101.045 126.173 105.002 126.217L108.352 126.254L112.292 126.295C112.552 129.273 115.729 131.78 119.055 130.221L120.051 129.752L127.624 127.455C128.099 127.31 128.585 127.243 129.061 127.243C130.866 127.243 132.576 128.234 133.45 129.898C134.222 131.378 135.946 132.097 137.541 131.601L142.696 129.999L143.765 130.744C147.989 133.686 153.659 133.45 157.623 130.161L159.266 131.314L160.514 130.194L160.571 130.14C162.932 128.025 166.39 127.904 169.025 129.668C171.551 131.362 174.861 131.358 178.608 130.39L182.67 128.558C183.321 128.805 183.921 128.342 183.999 127.766C184.404 127.597 185.051 127.354 185.891 127.098L193.876 127.182C193.917 127.182 193.957 127.182 193.997 127.185C199.014 127.263 203.875 128.966 207.835 132.05C215.044 137.649 223.497 145.617 230.224 148.798C240.701 153.75 268.322 153.18 271.749 153.369C275.18 153.561 279.751 162.325 282.419 162.707C285.081 163.084 301.711 150.886 301.752 150.856Z" fill="#1C0100"/>
<path d="M98.1953 134.175C98.202 134.225 98.2121 134.276 98.2222 134.326H98.2188C98.2121 134.276 98.202 134.225 98.1953 134.175Z" fill="#E2B700"/>
<path d="M94.5997 81.1772C94.5997 81.1772 92.8152 98 100.81 112.873C103.124 117.174 107.428 120.109 112.269 120.76C113.052 120.864 113.764 120.898 114.263 120.794C116.951 120.24 120.527 118.287 120.119 118.412C119.498 118.601 111.072 118.982 108.214 116.982C104.949 114.695 100.405 109.075 97.2612 95.551C96.1177 90.7878 94.8864 85.3635 94.5997 81.1738V81.1772Z" fill="#E2B700"/>
<path d="M97.7031 79.5239C97.7031 79.5239 101.768 85.1101 101.893 85.8725C102.018 86.6349 122.467 116.732 155.866 119.906C155.866 119.906 134.088 120.415 120.149 108.602C106.211 96.792 97.7031 79.5205 97.7031 79.5205V79.5239Z" fill="#E2B700"/>
<path d="M119.07 115.652C119.07 115.652 124.531 115.079 124.869 117.163C125.206 119.248 123.803 123.019 119.07 124.416C119.07 124.416 124.292 124.227 126.468 121.242C128.644 118.256 128.755 115.973 126.785 114.954C124.815 113.935 119.07 115.652 119.07 115.652Z" fill="#E2B700"/>
<path d="M184.476 13.0781C184.476 13.0781 177.203 21.2281 175.935 23.2622C174.667 25.2963 171.998 30.2484 171.998 30.2484C171.998 30.2484 178.475 24.0246 189.27 20.0879C200.064 16.1512 204.51 15.517 204.51 15.517C204.51 15.517 182.921 22.628 177.078 27.7083C171.236 32.7885 169.205 40.0277 169.205 40.0277C169.205 40.0277 170.602 35.9628 175.935 31.5201C181.268 27.0775 184.318 26.1869 184.318 26.1869C184.318 26.1869 171.236 35.332 168.062 43.0772C164.887 50.8224 163.872 63.523 163.872 63.523C163.872 63.523 179.747 30.5048 234.101 27.7116C234.101 27.7116 200.017 32.3264 179.585 48.0157C168.743 56.3411 164.138 70.4923 167.812 83.6584C171.003 95.0906 176.471 111.849 183.161 120.849C184.733 122.961 187.286 124.098 189.917 123.956C193.119 123.784 197.747 124.176 200.678 127.262L183.822 127.08C183.822 127.08 170.308 107.845 166.024 89.0355C161.743 70.2258 161.774 55.7272 167.424 38.8774C173.074 22.0276 182.982 13.6482 182.982 13.6482L184.476 13.0849V13.0781Z" fill="#E2B700"/>
<path d="M141.549 31.3588C141.549 31.3588 124.787 33.0724 115.929 41.9308C107.071 50.7892 102.628 61.3612 102.628 61.3612C102.628 61.3612 101.96 76.4096 122.089 85.7436C122.089 85.7436 102.402 79.8369 100.499 67.4568C100.499 67.4568 95.2775 71.0123 94.5859 82.124L94.6871 74.5037C94.6871 74.5037 102.486 55.8087 102.76 55.188C103.033 54.5673 105.866 47.7734 109.139 44.7239C112.411 41.6744 114.057 39.927 120.527 36.5166C120.527 36.5166 132.823 30.8156 141.553 31.3554L141.549 31.3588Z" fill="#E2B700"/>
<path d="M310.778 137.521C309.6 144.986 308.804 147.179 305.357 155.227L299.224 171.858C299.224 171.858 297.709 170.377 297.696 170.363L296.518 168.99C299.16 160.712 299.784 156.958 301.754 150.855C303.215 146.335 304.54 141.602 305.68 136.66C306.662 132.424 303.444 128.372 299.096 128.325L293.891 128.268C293.948 127.272 295.851 126.217 298.168 125.326C298.104 123.515 297.885 121.72 297.473 119.956C297.473 119.956 297.47 119.956 297.473 119.952C297.783 118.998 298.158 117.901 298.613 116.721C298.984 117.132 299.359 117.54 299.723 117.942C300.954 119.295 302.108 120.56 302.951 121.484C303.859 122.482 304.722 123.518 305.532 124.597C308.851 128.996 311.641 132.053 310.778 137.521Z" fill="#E2B700"/>
<path d="M309.071 174.483C308.103 174.793 307.058 174.959 305.948 174.908C304.855 169.952 313.103 149.696 313.565 135.845C313.848 127.256 308.279 122.162 301.751 114.414C301.417 114.019 301.181 114.056 300.895 113.628C301.498 112.619 304.507 108.49 305.276 107.502C305.641 107.893 306.005 108.288 306.369 108.689C312.354 115.311 317.808 123.68 318.227 131.055C318.763 140.48 310.66 168.991 309.071 174.483Z" fill="#E2B700"/>
<path d="M316.137 161.053C316.137 161.053 316.498 151.446 319.365 135.082C318.825 140.516 317.958 145.907 317.756 149.179C317.206 158.179 316.137 161.053 316.137 161.053Z" fill="#E2B700"/>
<path d="M319.614 133.675C319.53 134.151 319.445 134.62 319.364 135.082C319.881 129.887 320.096 124.648 319.138 121.177C316.767 112.589 312.645 105.92 312.355 102.067C312.287 101.244 312.399 100.549 312.743 99.9928C313.984 99.3721 315.33 98.8357 316.78 98.3871C316.78 98.3871 316.783 98.3859 316.787 98.3837H316.791C317.067 98.3702 317.357 98.3668 317.661 98.3668C317.661 98.3668 317.745 98.1206 318.116 98.8121H318.12C318.45 99.4362 319.014 100.823 319.955 103.838C321.635 109.222 322.707 116.455 319.614 133.675Z" fill="#E2B700"/>
<path d="M276.988 128.326H278.192C277.433 128.336 276.988 128.326 276.988 128.326Z" fill="#E2B700"/>
<path d="M318.115 98.8122C318.068 98.8324 318.024 98.8561 317.976 98.8797C316.378 99.642 314.411 100.698 312.353 102.067C309.783 103.768 307.071 105.96 304.76 108.689C303.937 109.657 303.164 110.696 302.469 111.803C301.305 113.651 300.351 115.696 299.72 117.942C299.292 119.454 299.012 121.056 298.914 122.753C298.856 123.684 298.593 124.557 298.165 125.323C297.288 126.895 295.729 128.012 293.888 128.268H293.881C293.621 128.305 293.351 128.325 293.078 128.325H278.191C279.153 128.315 280.62 128.272 282.314 128.143C287.579 127.749 295.061 126.524 296.515 122.797C296.772 122.135 297.072 121.157 297.47 119.956C297.47 119.956 297.467 119.956 297.47 119.953C297.78 118.998 298.155 117.902 298.61 116.721C299.352 114.805 300.32 112.656 301.616 110.508C302.22 109.499 302.898 108.49 303.667 107.502C305.89 104.624 308.821 101.933 312.741 99.9929C313.982 99.3722 315.328 98.8358 316.779 98.3872C316.779 98.3872 316.781 98.386 316.786 98.3838H316.789L317.899 98.7414L318.115 98.8122Z" fill="#E2B700"/>
<path d="M193.468 124.049C193.468 124.049 240.32 135.909 293.888 125.867L293.079 128.326C293.079 128.326 245.545 147.831 201.982 128.465C183.327 127.567 193.464 124.049 193.464 124.049H193.468Z" fill="#E2B700"/>
<path d="M97.2221 132.798C97.2221 132.798 97.2592 126.51 102.117 125.178C106.974 123.845 113.134 125.114 113.134 125.114C113.134 125.114 114.085 129.664 116.086 129.394C118.086 129.124 124.88 126.429 127.548 126.46C130.217 126.49 133.357 126.476 134.406 129.637C134.406 129.637 135.455 131.526 140.215 129.637C144.975 127.748 143.265 128.497 143.265 128.497C143.265 128.497 146.692 132.036 150.123 131.654C153.553 131.273 158.03 128.497 158.03 128.497L159.41 129.637C159.41 129.637 163.552 124.614 169.648 128.038C175.743 131.462 183.822 127.073 183.822 127.073L185.894 127.097L184.001 127.765C184.001 127.765 184.16 128.915 182.672 128.558L178.611 130.389C178.611 130.389 175.777 131.132 174.077 131.051C172.377 130.97 171.25 131.351 167.853 129.05C167.853 129.05 163.043 127.684 159.264 131.314L157.622 130.16C157.622 130.16 154.66 132.801 150.436 132.798C146.213 132.798 142.695 129.998 142.695 129.998C142.496 129.624 137.419 132.822 134.481 131.094C134.481 131.094 133.779 130.599 133.054 129.519C132.45 128.615 131.62 127.873 130.601 127.492C129.984 127.262 129.279 127.127 128.557 127.269L120.046 129.752C119.992 129.745 118.15 130.757 117.266 130.7C112.753 130.406 112.567 127.64 112.287 126.294C112.287 126.294 108.007 126.19 105.153 126.294C103.038 126.372 101.014 127.272 99.6408 128.885C98.585 130.126 97.799 131.897 98.2139 134.326L97.2188 132.798H97.2221Z" fill="#E2B700"/>
<path d="M314.772 104.415C314.772 104.415 314.192 107.08 313.406 101.39C311.608 88.3853 310.802 65.6794 302.412 50.4421C291.473 30.5697 257.756 13.8211 249.043 6.9834C253.567 7.40507 258.283 8.00215 263.177 8.805C279.197 17.6802 301.967 34.0072 312.333 52.9822C320.453 67.8383 314.772 104.415 314.772 104.415Z" fill="#E2B700"/>
</g>
<defs>
<clipPath id="clip0_2659_522683">
<rect width="404.8" height="505.403" rx="16.1653" fill="white"/>
</clipPath>
</defs>
</svg>
