<svg width="397" height="160" viewBox="0 0 397 160" fill="none" xmlns="http://www.w3.org/2000/svg">
<path d="M190.762 27.9453H318.997C318.425 30.2996 317.728 32.5224 316.833 34.6269C314.163 40.7363 309.521 45.6948 304.746 50.5942C300.419 55.1121 295.204 58.6107 289.483 61.7871C284.202 64.7135 278.863 68.3371 272.688 69.8628C266.966 71.2636 260.791 71.9607 254.498 71.9607C248.205 71.9607 242.286 70.3034 236.558 68.8435C230.39 67.3177 224.346 65.9828 219.066 63.0563C213.344 59.8734 208.064 55.8684 203.736 51.3504C198.969 46.4511 195.72 40.2825 193.05 34.1139C192.162 32.141 191.393 30.0432 190.762 27.9453Z" fill="#F0E5C8"/>
<path d="M320.711 13.1894C320.711 15.9252 320.52 18.7859 320.204 21.5874H189.102C188.655 18.9174 188.398 16.1816 188.398 13.4459C197.368 10.013 197.75 12.808 207.292 14.0838C216.709 15.2938 216.768 14.0838 226.244 14.0838C235.72 14.0838 235.661 13.5774 245.072 13.5774C254.482 13.5774 254.548 14.0838 263.965 14.0838C273.382 14.0838 273.441 12.7488 282.858 12.7488C292.275 12.7488 292.275 14.8466 301.752 14.8466C311.228 14.8466 311.741 9.75657 320.704 13.1894H320.711Z" fill="#F0E5C8"/>
<path d="M1.35742 58.2608L1.35742 73.3271H51.6782V58.2608H1.35742Z" fill="#F0E5C8"/>
<path d="M116.08 0V40.5299C116.08 54.0377 115.015 73.3589 93.1688 73.3589H83.4164C63.9247 73.3589 60.7812 60.8376 60.7812 40.5299V0H83.4164V49.0528C83.4164 51.7425 85.5997 53.9259 88.2893 53.9259C90.979 53.9259 93.1623 51.7425 93.1623 49.0528V0H116.074H116.08Z" fill="#F0E5C8"/>
<path d="M39.084 2.80369C26.1947 -3.83182 10.1226 1.71203 3.17815 15.2001C-3.76627 28.6881 1.04746 44.9974 13.9367 51.6329C26.826 58.2684 42.9113 52.7312 49.8557 39.2431C56.8002 25.7551 51.9732 9.43921 39.084 2.80369ZM39.7679 28.7999C39.2484 29.9771 38.354 30.9372 37.4333 31.8842C36.5982 32.7589 35.592 33.4362 34.4807 34.0478C33.4614 34.6134 32.4289 35.317 31.232 35.6064C30.1272 35.876 28.9304 36.0141 27.7138 36.0141C26.4972 36.0141 25.3529 35.6919 24.2482 35.4091C23.0579 35.1132 21.8873 34.8567 20.868 34.2911C19.7632 33.6795 18.7439 32.9035 17.9022 32.0289C16.9815 31.0819 16.3502 29.8916 15.8373 28.6947C15.6663 28.3133 15.515 27.9055 15.3967 27.5044H40.1822C40.0704 27.9581 39.9389 28.3922 39.7613 28.7933L39.7679 28.7999ZM40.4189 26.2812H15.081C14.9955 25.7617 14.9429 25.2355 14.9429 24.7094C16.679 24.0452 16.7513 24.5845 18.5927 24.8344C20.4143 25.0711 20.4274 24.8344 22.2556 24.8344C24.0838 24.8344 24.0772 24.7357 25.8922 24.7357C27.7072 24.7357 27.7269 24.8344 29.542 24.8344C31.357 24.8344 31.3767 24.5779 33.1918 24.5779C35.0068 24.5779 35.0133 24.9856 36.8415 24.9856C38.6697 24.9856 38.7749 23.9992 40.5044 24.6634C40.5044 25.1895 40.465 25.7485 40.4058 26.2877L40.4189 26.2812Z" fill="#F0E5C8"/>
<path d="M158.688 38.1754C161.49 35.2423 163.495 31.5333 164.403 27.4033C164.732 25.8579 164.909 24.273 164.909 22.6158C164.909 16.1249 162.174 10.2589 157.761 6.12892C153.723 2.33438 148.252 0.0392602 142.294 0.0195312H119.941V72.004L120.362 73.1483H142.294V45.2975C147.173 50.1114 155.361 63.0207 160.391 73.3258H183.52C177.759 59.1144 169.815 46.1196 158.695 38.1754H158.688ZM142.228 30.4153C141.886 30.4745 141.531 30.5074 141.182 30.5074C140.742 29.3565 141.103 29.3039 141.261 28.0807C141.419 26.8707 141.261 26.8641 141.261 25.6474C141.261 24.4308 141.196 24.4374 141.196 23.2274C141.196 22.0173 141.261 22.0107 141.261 20.8007C141.261 19.5907 141.09 19.5841 141.09 18.374C141.09 17.164 141.36 17.164 141.36 15.9474C141.36 14.7308 140.709 14.665 141.15 13.5141C141.498 13.5141 141.866 13.5405 142.228 13.5799V30.4219V30.4153ZM148.298 24.319C148.101 25.1148 147.93 25.8908 147.555 26.5682C147.147 27.3047 146.634 27.9821 146.049 28.5345C145.417 29.1461 144.628 29.5669 143.833 29.9089C143.576 30.0207 143.307 30.1194 143.037 30.2049V13.7312C143.339 13.8035 143.622 13.8956 143.892 14.0074C144.674 14.3493 145.312 14.9478 145.944 15.5594C146.522 16.1118 146.976 16.7826 147.384 17.5191C147.759 18.1965 148.225 18.887 148.423 19.6762C148.6 20.4127 148.692 21.2019 148.692 22.0107C148.692 22.8196 148.482 23.5825 148.291 24.3125L148.298 24.319Z" fill="#F0E5C8"/>
<path d="M312.144 140.384V134.478H342.782V113.289H311.69V107.568H334.799V86.4512H288.818V159.994H297.427H311.69H351.608V140.384H312.144Z" fill="#F0E5C8"/>
<path d="M396.746 86.6416H337.705V106.949H359.545V159.994H382.502V106.949H396.746V86.6416Z" fill="#F0E5C8"/>
<path d="M70.0164 86.6465V159.999H47.2432V117.141L35.0181 129.564L22.793 117.141V159.999H0V86.6465H14.4084L19.1103 90.3095L22.793 93.3083L35.0181 103.022L55.608 86.6465H70.0164Z" fill="#F0E5C8"/>
<path d="M287.117 159.994H262.667L242.011 135.372V159.994H219.58V86.6353H242.011V114.572C246.897 109.731 255.105 96.7957 260.155 86.4512H283.356C277.207 101.583 268.612 115.361 256.341 123.127L287.117 159.994Z" fill="#F0E5C8"/>
<path d="M155.625 158.67V159.814H156.046L155.625 158.67Z" fill="#F0E5C8"/>
<path d="M194.372 124.841C197.173 121.908 199.179 118.199 200.086 114.069C200.415 112.524 200.593 110.939 200.593 109.282C200.593 102.791 197.857 96.9249 193.445 92.7949C189.407 89.0004 183.935 86.7053 177.977 86.6855H155.625V158.67L156.046 159.814H177.977V131.964C182.857 136.777 191.044 149.687 196.075 159.992H219.203C213.443 145.78 205.499 132.786 194.378 124.841H194.372ZM177.912 117.081C177.57 117.141 177.215 117.173 176.866 117.173C176.425 116.023 176.787 115.97 176.945 114.747C177.103 113.537 176.945 113.53 176.945 112.314C176.945 111.097 176.879 111.103 176.879 109.893C176.879 108.683 176.945 108.677 176.945 107.467C176.945 106.257 176.774 106.25 176.774 105.04C176.774 103.83 177.044 103.83 177.044 102.613C177.044 101.397 176.393 101.331 176.833 100.18C177.182 100.18 177.55 100.206 177.912 100.246V117.088V117.081ZM183.981 110.985C183.784 111.781 183.613 112.557 183.238 113.234C182.831 113.971 182.318 114.648 181.732 115.2C181.101 115.812 180.312 116.233 179.516 116.575C179.26 116.687 178.99 116.785 178.72 116.871V100.397C179.023 100.47 179.306 100.562 179.575 100.673C180.358 101.015 180.996 101.614 181.627 102.225C182.206 102.778 182.66 103.449 183.067 104.185C183.442 104.862 183.909 105.553 184.106 106.342C184.284 107.079 184.376 107.868 184.376 108.677C184.376 109.486 184.166 110.249 183.975 110.978L183.981 110.985Z" fill="#F0E5C8"/>
<path d="M156.049 159.821L155.628 158.677L129.415 86.6465H99.2967L72.6172 159.999H97.0673L105.958 135.548H122.774L131.665 159.999H156.115L156.049 159.821ZM123.267 114.819C122.925 115.602 122.326 116.24 121.715 116.871C121.156 117.45 120.492 117.904 119.755 118.312C119.078 118.686 118.387 119.153 117.598 119.351C116.862 119.528 116.072 119.62 115.264 119.62C114.455 119.62 113.692 119.41 112.962 119.219C112.166 119.022 111.39 118.851 110.713 118.476C109.976 118.068 109.299 117.555 108.747 116.97C108.135 116.339 107.714 115.549 107.372 114.754C107.26 114.497 107.162 114.228 107.076 113.958H123.55C123.477 114.26 123.385 114.543 123.273 114.813L123.267 114.819ZM123.701 113.142H106.859C106.8 112.801 106.767 112.445 106.767 112.097C107.918 111.656 107.971 112.018 109.194 112.176C110.404 112.334 110.41 112.176 111.627 112.176C112.844 112.176 112.837 112.11 114.047 112.11C115.257 112.11 115.264 112.176 116.474 112.176C117.684 112.176 117.69 112.005 118.9 112.005C120.11 112.005 120.11 112.274 121.327 112.274C122.543 112.274 122.609 111.623 123.76 112.064C123.76 112.413 123.734 112.781 123.694 113.142H123.701Z" fill="#F0E5C8"/>
</svg>
