<svg width="132" height="53" viewBox="0 0 132 53" fill="none" xmlns="http://www.w3.org/2000/svg">
<path d="M63.1906 9.25684H105.669C105.479 10.0367 105.248 10.773 104.952 11.4701C104.068 13.4939 102.53 15.1364 100.948 16.7594C99.515 18.2559 97.7875 19.4149 95.8923 20.467C94.1431 21.4364 92.3743 22.6368 90.3288 23.1422C88.4336 23.6062 86.3881 23.8371 84.3034 23.8371C82.2187 23.8371 80.2581 23.2881 78.3608 22.8045C76.3175 22.2991 74.3155 21.8569 72.5663 20.8875C70.6711 19.8331 68.9219 18.5065 67.4885 17.0099C65.9092 15.3869 64.833 13.3436 63.9486 11.3002C63.6545 10.6467 63.3997 9.95176 63.1906 9.25684Z" fill="#F0E5C8"/>
<path d="M106.237 4.36916C106.237 5.27539 106.173 6.22301 106.069 7.15102H62.6408C62.4927 6.26658 62.4077 5.36035 62.4077 4.45412C65.379 3.31698 65.5054 4.24281 68.6662 4.66543C71.7856 5.06626 71.8052 4.66543 74.9443 4.66543C78.0833 4.66543 78.0637 4.49769 81.181 4.49769C84.2982 4.49769 84.32 4.66543 87.4394 4.66543C90.5589 4.66543 90.5785 4.22321 93.6979 4.22321C96.8174 4.22321 96.8174 4.91813 99.9564 4.91813C103.095 4.91813 103.265 3.23202 106.234 4.36916H106.237Z" fill="#F0E5C8"/>
<path d="M0.449707 19.2992L0.449707 24.29H17.1186V19.2992H0.449707Z" fill="#F0E5C8"/>
<path d="M38.452 0V13.4257C38.452 17.9002 38.0991 24.3004 30.8625 24.3004H27.632C21.1753 24.3004 20.134 20.1527 20.134 13.4257V0H27.632V16.2489C27.632 17.1399 28.3552 17.8631 29.2462 17.8631C30.1371 17.8631 30.8604 17.1399 30.8604 16.2489V0H38.4498H38.452Z" fill="#F0E5C8"/>
<path d="M12.9467 0.928734C8.67709 -1.2693 3.35314 0.567115 1.05277 5.03508C-1.24759 9.50304 0.346976 14.9056 4.61659 17.1036C8.88621 19.3016 14.2145 17.4674 16.5149 12.9994C18.8153 8.53146 17.2163 3.12677 12.9467 0.928734ZM13.1733 9.54007C13.0012 9.93001 12.7049 10.2481 12.3999 10.5618C12.1233 10.8515 11.79 11.0759 11.4218 11.2785C11.0842 11.4658 10.7422 11.6989 10.3457 11.7948C9.97976 11.8841 9.5833 11.9298 9.1803 11.9298C8.7773 11.9298 8.39826 11.8231 8.03229 11.7294C7.638 11.6314 7.25026 11.5464 6.91261 11.3591C6.54664 11.1565 6.20899 10.8994 5.93016 10.6097C5.62519 10.296 5.41606 9.90169 5.24615 9.50522C5.18951 9.37887 5.13941 9.24381 5.1002 9.11092H13.3105C13.2735 9.26123 13.2299 9.40501 13.1711 9.5379L13.1733 9.54007ZM13.3889 8.70574H4.99563C4.96731 8.53364 4.94989 8.35936 4.94989 8.18509C5.52498 7.96507 5.54894 8.1437 6.15889 8.22648C6.7623 8.3049 6.76666 8.22648 7.37225 8.22648C7.97784 8.22648 7.97565 8.1938 8.57688 8.1938C9.17811 8.1938 9.18465 8.22648 9.78588 8.22648C10.3871 8.22648 10.3937 8.14152 10.9949 8.14152C11.5961 8.14152 11.5983 8.27659 12.2039 8.27659C12.8095 8.27659 12.8443 7.94982 13.4172 8.16984C13.4172 8.34411 13.4042 8.52928 13.3846 8.70791L13.3889 8.70574Z" fill="#F0E5C8"/>
<path d="M52.5661 12.6451C53.4941 11.6735 54.1585 10.4449 54.4591 9.07684C54.568 8.56491 54.6268 8.03991 54.6268 7.49095C54.6268 5.34083 53.7206 3.39767 52.2589 2.02962C50.9214 0.772662 49.109 0.0123947 47.1354 0.00585938H39.7311V23.851L39.8705 24.23H47.1354V15.0044C48.7517 16.599 51.4638 20.8752 53.1303 24.2888H60.7916C58.8834 19.5812 56.2519 15.2767 52.5683 12.6451H52.5661ZM47.1136 10.0746C47.0003 10.0942 46.8827 10.1051 46.7672 10.1051C46.6213 9.72384 46.7411 9.70641 46.7934 9.30122C46.8457 8.90039 46.7934 8.89821 46.7934 8.4952C46.7934 8.09219 46.7716 8.09437 46.7716 7.69354C46.7716 7.29271 46.7934 7.29053 46.7934 6.8897C46.7934 6.48887 46.7367 6.48669 46.7367 6.08586C46.7367 5.68502 46.8261 5.68502 46.8261 5.28201C46.8261 4.879 46.6104 4.85722 46.7563 4.476C46.8718 4.476 46.9938 4.48471 47.1136 4.49778V10.0767V10.0746ZM49.1242 8.05516C49.0589 8.31875 49.0022 8.57581 48.8781 8.80019C48.743 9.04417 48.5731 9.26855 48.3792 9.45153C48.1701 9.65413 47.9087 9.79355 47.6451 9.90683C47.5602 9.94386 47.4709 9.97654 47.3815 10.0049V4.54788C47.4817 4.57185 47.5754 4.60235 47.6647 4.63938C47.924 4.75266 48.1353 4.95089 48.3444 5.15349C48.5361 5.33648 48.6864 5.55868 48.8214 5.80266C48.9456 6.02704 49.1003 6.25578 49.1656 6.51719C49.2244 6.76117 49.2549 7.02258 49.2549 7.29053C49.2549 7.55847 49.1852 7.81117 49.1221 8.05298L49.1242 8.05516Z" fill="#F0E5C8"/>
<path d="M103.399 46.502V44.5458H113.548V37.5269H103.249V35.6317H110.903V28.6367H95.6721V52.9981H98.5236H103.249H116.471V46.502H103.399Z" fill="#F0E5C8"/>
<path d="M131.423 28.7002H111.866V35.4272H119.1V52.9984H126.705V35.4272H131.423V28.7002Z" fill="#F0E5C8"/>
<path d="M23.1932 28.7012V52.9994H15.6495V38.8026L11.5999 42.9176L7.55026 38.8026V52.9994H0V28.7012H4.77283L6.33036 29.9146L7.55026 30.9079L11.5999 34.1255L18.4204 28.7012H23.1932Z" fill="#F0E5C8"/>
<path d="M95.1086 52.9981H87.0094L80.1671 44.8421V52.9981H72.7367V28.6977H80.1671V37.9517C81.7857 36.3484 84.5043 32.0634 86.1773 28.6367H93.8626C91.8258 33.6493 88.9787 38.2131 84.9138 40.7858L95.1086 52.9981Z" fill="#F0E5C8"/>
<path d="M51.5514 52.5596V52.9386H51.6908L51.5514 52.5596Z" fill="#F0E5C8"/>
<path d="M64.3864 41.3531C65.3144 40.3815 65.9788 39.1529 66.2794 37.7849C66.3883 37.2729 66.4471 36.7479 66.4471 36.199C66.4471 34.0488 65.5409 32.1057 64.0792 30.7376C62.7417 29.4807 60.9293 28.7204 58.9557 28.7139H51.5514V52.559L51.6908 52.938H58.9557V43.7124C60.572 45.307 63.2841 49.5832 64.9506 52.9968H72.6119C70.7037 48.2893 68.0722 43.9847 64.3886 41.3531H64.3864ZM58.9339 38.7826C58.8206 38.8022 58.703 38.8131 58.5875 38.8131C58.4416 38.4318 58.5614 38.4144 58.6137 38.0092C58.666 37.6084 58.6137 37.6062 58.6137 37.2032C58.6137 36.8002 58.5919 36.8024 58.5919 36.4015C58.5919 36.0007 58.6137 35.9985 58.6137 35.5977C58.6137 35.1969 58.557 35.1947 58.557 34.7939C58.557 34.393 58.6464 34.393 58.6464 33.99C58.6464 33.587 58.4307 33.5652 58.5767 33.184C58.6921 33.184 58.8141 33.1927 58.9339 33.2058V38.7847V38.7826ZM60.9446 36.7632C60.8792 37.0268 60.8226 37.2838 60.6984 37.5082C60.5633 37.7522 60.3934 37.9766 60.1996 38.1595C59.9904 38.3621 59.729 38.5016 59.4654 38.6148C59.3805 38.6519 59.2912 38.6846 59.2019 38.7129V33.2559C59.3021 33.2799 59.3957 33.3104 59.485 33.3474C59.7443 33.4607 59.9556 33.6589 60.1647 33.8615C60.3564 34.0445 60.5067 34.2667 60.6418 34.5107C60.7659 34.735 60.9206 34.9638 60.9859 35.2252C61.0448 35.4692 61.0752 35.7306 61.0752 35.9985C61.0752 36.2665 61.0055 36.5192 60.9424 36.761L60.9446 36.7632Z" fill="#F0E5C8"/>
<path d="M51.6918 52.9406L51.5523 52.5615L42.8693 28.7012H32.8924L24.0547 52.9994H32.1539L35.099 44.9H40.6692L43.6143 52.9994H51.7135L51.6918 52.9406ZM40.8325 38.0336C40.7193 38.2928 40.521 38.5041 40.3184 38.7132C40.1333 38.9049 39.9133 39.0553 39.6693 39.1903C39.4449 39.3145 39.2162 39.4692 38.9548 39.5345C38.7108 39.5933 38.4494 39.6238 38.1815 39.6238C37.9135 39.6238 37.6608 39.5541 37.419 39.4909C37.1554 39.4256 36.8984 39.369 36.674 39.2448C36.43 39.1097 36.2057 38.9398 36.0227 38.7459C35.8201 38.5368 35.6807 38.2754 35.5674 38.0118C35.5304 37.9268 35.4977 37.8375 35.4694 37.7482H40.9262C40.9022 37.8484 40.8718 37.9421 40.8347 38.0314L40.8325 38.0336ZM40.9763 37.4781H35.3975C35.3779 37.3648 35.367 37.2472 35.367 37.1317C35.7482 36.9857 35.7656 37.1056 36.1708 37.1578C36.5716 37.2101 36.5738 37.1578 36.9768 37.1578C37.3798 37.1578 37.3776 37.1361 37.7785 37.1361C38.1793 37.1361 38.1815 37.1578 38.5823 37.1578C38.9831 37.1578 38.9853 37.1012 39.3861 37.1012C39.7869 37.1012 39.7869 37.1905 40.1899 37.1905C40.5929 37.1905 40.6147 36.9749 40.9959 37.1208C40.9959 37.2363 40.9872 37.3583 40.9741 37.4781H40.9763Z" fill="#F0E5C8"/>
</svg>
