<svg width="345" height="140" viewBox="0 0 345 140" fill="none" xmlns="http://www.w3.org/2000/svg">
<path d="M165.88 24.8989H277.39C276.893 26.9461 276.287 28.8789 275.509 30.7089C273.187 36.0213 269.15 40.3331 264.998 44.5933C261.236 48.5219 256.701 51.5642 251.726 54.3262C247.134 56.8709 242.49 60.0218 237.121 61.3485C232.146 62.5665 226.776 63.1727 221.303 63.1727C215.831 63.1727 210.684 61.7316 205.703 60.4621C200.339 59.1354 195.084 57.9746 190.492 55.4298C185.517 52.6621 180.925 49.1796 177.162 45.251C173.017 40.9907 170.192 35.6268 167.87 30.2628C167.098 28.5473 166.429 26.7231 165.88 24.8989Z" fill="#125129"/>
<path d="M278.883 12.0665C278.883 14.4454 278.717 16.933 278.442 19.369H164.439C164.05 17.0473 163.827 14.6685 163.827 12.2896C171.627 9.30451 171.959 11.7349 180.256 12.8443C188.445 13.8965 188.496 12.8443 196.737 12.8443C204.977 12.8443 204.926 12.4039 213.109 12.4039C221.292 12.4039 221.349 12.8443 229.538 12.8443C237.727 12.8443 237.778 11.6834 245.967 11.6834C254.156 11.6834 254.156 13.5076 262.396 13.5076C270.637 13.5076 271.083 9.0815 278.877 12.0665H278.883Z" fill="#125129"/>
<path d="M1.18164 51.2615L1.18164 64.3625H44.9395V51.2615H1.18164Z" fill="#125129"/>
<path d="M100.94 0.600723V35.8437C100.94 47.5895 100.014 64.3904 81.017 64.3904H72.5366C55.587 64.3904 52.8535 53.5024 52.8535 35.8437V0.600723H72.5366V43.2549C72.5366 45.5938 74.4351 47.4923 76.7739 47.4923C79.1128 47.4923 81.0114 45.5938 81.0114 43.2549V0.600723H100.935H100.94Z" fill="#125129"/>
<path d="M33.9888 3.03709C22.7805 -2.73286 8.80457 2.08782 2.76585 13.8164C-3.27287 25.545 0.913049 39.7269 12.1213 45.4968C23.3295 51.2668 37.3169 46.4518 43.3556 34.7232C49.3944 22.9946 45.197 8.80704 33.9888 3.03709ZM34.5835 25.6423C34.1317 26.6659 33.354 27.5008 32.5534 28.3242C31.8272 29.0848 30.9522 29.6738 29.9858 30.2056C29.0994 30.6974 28.2016 31.3093 27.1609 31.5609C26.2002 31.7953 25.1594 31.9154 24.1015 31.9154C23.0436 31.9154 22.0486 31.6352 21.0879 31.3893C20.0528 31.132 19.0349 30.909 18.1486 30.4172C17.1879 29.8854 16.3015 29.2106 15.5695 28.45C14.769 27.6266 14.22 26.5915 13.7739 25.5508C13.6252 25.2191 13.4937 24.8645 13.3908 24.5157H34.9438C34.8465 24.9103 34.7322 25.2877 34.5778 25.6365L34.5835 25.6423ZM35.1496 23.4521H13.1163C13.0419 23.0003 12.9962 22.5428 12.9962 22.0854C14.5059 21.5078 14.5688 21.9767 16.17 22.194C17.754 22.3999 17.7654 22.194 19.3552 22.194C20.9449 22.194 20.9392 22.1082 22.5175 22.1082C24.0958 22.1082 24.1129 22.194 25.6912 22.194C27.2695 22.194 27.2867 21.971 28.865 21.971C30.4433 21.971 30.449 22.3255 32.0388 22.3255C33.6285 22.3255 33.72 21.4678 35.224 22.0453C35.224 22.5028 35.1896 22.9889 35.1382 23.4578L35.1496 23.4521Z" fill="#125129"/>
<path d="M137.99 33.7967C140.426 31.2462 142.171 28.021 142.96 24.4298C143.246 23.086 143.4 21.7078 143.4 20.2667C143.4 14.6226 141.021 9.52171 137.184 5.9305C133.673 2.63094 128.915 0.635197 123.734 0.618042H104.297V63.2125L104.663 64.2076H123.734V39.9898C127.977 44.1757 135.097 55.4011 139.472 64.362H159.583C154.574 52.0043 147.666 40.7046 137.996 33.7967H137.99ZM123.677 27.0489C123.38 27.1003 123.071 27.1289 122.768 27.1289C122.385 26.1282 122.699 26.0824 122.836 25.0188C122.974 23.9666 122.836 23.9609 122.836 22.903C122.836 21.845 122.779 21.8508 122.779 20.7986C122.779 19.7464 122.836 19.7406 122.836 18.6884C122.836 17.6362 122.688 17.6305 122.688 16.5783C122.688 15.5261 122.922 15.5261 122.922 14.4682C122.922 13.4103 122.356 13.3531 122.739 12.3524C123.042 12.3524 123.363 12.3752 123.677 12.4096V27.0546V27.0489ZM128.955 21.7478C128.784 22.4398 128.635 23.1146 128.309 23.7036C127.954 24.344 127.508 24.933 127 25.4134C126.451 25.9452 125.764 26.3112 125.072 26.6085C124.849 26.7058 124.615 26.7915 124.38 26.8659V12.5411C124.643 12.604 124.889 12.684 125.124 12.7812C125.804 13.0786 126.359 13.599 126.908 14.1308C127.411 14.6112 127.806 15.1944 128.16 15.8349C128.486 16.4239 128.892 17.0244 129.064 17.7106C129.218 18.351 129.298 19.0373 129.298 19.7406C129.298 20.444 129.115 21.1074 128.949 21.7421L128.955 21.7478Z" fill="#125129"/>
<path d="M271.432 122.673V117.538H298.074V99.1133H271.037V94.1382H291.132V75.7761H251.148V139.726H258.634H271.037H305.749V122.673H271.432Z" fill="#125129"/>
<path d="M345 75.9417H293.66V93.6004H312.651V139.726H332.614V93.6004H345V75.9417Z" fill="#125129"/>
<path d="M60.8828 75.9475V139.731H41.0796V102.464L30.449 113.266L19.8183 102.464V139.731H-0.00195312V75.9475H12.5273L16.616 79.1327L19.8183 81.7403L30.449 90.1865L48.3535 75.9475H60.8828Z" fill="#125129"/>
<path d="M249.667 139.726H228.406L210.444 118.316V139.726H190.938V75.9362H210.444V100.228C214.693 96.0196 221.829 84.7713 226.221 75.7761H246.396C241.049 88.9344 233.575 100.915 222.905 107.668L249.667 139.726Z" fill="#125129"/>
<path d="M135.326 138.576V139.571H135.692L135.326 138.576Z" fill="#125129"/>
<path d="M169.02 109.161C171.456 106.61 173.2 103.385 173.989 99.7939C174.275 98.45 174.429 97.0719 174.429 95.6308C174.429 89.9867 172.051 84.8858 168.213 81.2946C164.702 77.995 159.944 75.9993 154.764 75.9821H135.326V138.577L135.692 139.572H154.764V115.354C159.007 119.54 166.126 130.765 170.501 139.726H190.613C185.603 127.368 178.695 116.069 169.025 109.161H169.02ZM154.706 102.413C154.409 102.464 154.1 102.493 153.797 102.493C153.414 101.492 153.728 101.446 153.866 100.383C154.003 99.3307 153.866 99.325 153.866 98.267C153.866 97.2091 153.809 97.2148 153.809 96.1626C153.809 95.1104 153.866 95.1047 153.866 94.0525C153.866 93.0003 153.717 92.9946 153.717 91.9424C153.717 90.8902 153.952 90.8902 153.952 89.8323C153.952 88.7744 153.385 88.7172 153.769 87.7164C154.072 87.7164 154.392 87.7393 154.706 87.7736V102.419V102.413ZM159.985 97.1119C159.813 97.8038 159.664 98.4786 159.338 99.0676C158.984 99.7081 158.538 100.297 158.029 100.777C157.48 101.309 156.794 101.675 156.102 101.973C155.879 102.07 155.644 102.156 155.41 102.23V87.9052C155.673 87.9681 155.919 88.0481 156.153 88.1453C156.834 88.4427 157.388 88.9631 157.937 89.4949C158.441 89.9752 158.835 90.5585 159.19 91.199C159.516 91.788 159.922 92.3884 160.093 93.0747C160.248 93.7151 160.328 94.4013 160.328 95.1047C160.328 95.8081 160.145 96.4714 159.979 97.1062L159.985 97.1119Z" fill="#125129"/>
<path d="M135.692 139.577L135.326 138.582L112.532 75.9475H86.3415L63.1416 139.731H84.4029L92.1343 118.47H106.756L114.488 139.731H135.749L135.692 139.577ZM107.185 100.445C106.888 101.126 106.368 101.681 105.836 102.23C105.35 102.733 104.772 103.127 104.132 103.482C103.543 103.808 102.942 104.214 102.256 104.385C101.616 104.54 100.929 104.62 100.226 104.62C99.5226 104.62 98.8592 104.437 98.2245 104.271C97.5326 104.1 96.8578 103.951 96.2688 103.625C95.6283 103.27 95.0393 102.824 94.559 102.315C94.0271 101.766 93.6611 101.08 93.3638 100.388C93.2666 100.165 93.1808 99.9308 93.1064 99.6963H107.431C107.368 99.9594 107.288 100.205 107.191 100.44L107.185 100.445ZM107.563 98.9872H92.9178C92.8663 98.6899 92.8377 98.3811 92.8377 98.078C93.8384 97.6949 93.8842 98.0094 94.9478 98.1466C96 98.2839 96.0057 98.1466 97.0637 98.1466C98.1216 98.1466 98.1158 98.0895 99.168 98.0895C100.22 98.0895 100.226 98.1466 101.278 98.1466C102.33 98.1466 102.336 97.9979 103.388 97.9979C104.44 97.9979 104.44 98.2324 105.498 98.2324C106.556 98.2324 106.613 97.6663 107.614 98.0494C107.614 98.3525 107.591 98.6727 107.557 98.9872H107.563Z" fill="#125129"/>
</svg>
