<svg width="17" height="16" viewBox="0 0 17 16" fill="none" xmlns="http://www.w3.org/2000/svg">
<path d="M11.6451 6.46431C11.9015 6.2001 11.8952 5.77803 11.631 5.5216C11.3668 5.26517 10.9447 5.27148 10.6883 5.53569L7.28446 9.04278L6.31173 8.04053C6.0553 7.77632 5.63324 7.77001 5.36903 8.02644C5.10482 8.28287 5.09851 8.70493 5.35494 8.96914L6.80607 10.4643C6.93161 10.5937 7.1042 10.6667 7.28446 10.6667C7.46473 10.6667 7.63731 10.5937 7.76286 10.4643L11.6451 6.46431Z" fill="#015B20"/>
<path fill-rule="evenodd" clip-rule="evenodd" d="M5.16667 2C3.69391 2 2.5 3.19391 2.5 4.66667V11.3333C2.5 12.8061 3.69391 14 5.16667 14H11.8333C13.3061 14 14.5 12.8061 14.5 11.3333V4.66667C14.5 3.19391 13.3061 2 11.8333 2H5.16667ZM3.83333 4.66667C3.83333 3.93029 4.43029 3.33333 5.16667 3.33333H11.8333C12.5697 3.33333 13.1667 3.93029 13.1667 4.66667V11.3333C13.1667 12.0697 12.5697 12.6667 11.8333 12.6667H5.16667C4.43029 12.6667 3.83333 12.0697 3.83333 11.3333V4.66667Z" fill="#015B20"/>
</svg>
