<svg width="16" height="16" viewBox="0 0 16 16" fill="none" xmlns="http://www.w3.org/2000/svg">
<path d="M12.0933 14.4135C11.5067 14.5868 10.8133 14.6668 10 14.6668H6C5.18666 14.6668 4.49333 14.5868 3.90666 14.4135C4.05333 12.6802 5.83333 11.3135 8 11.3135C10.1667 11.3135 11.9467 12.6802 12.0933 14.4135Z" stroke="#125129" stroke-width="1.3" stroke-linecap="round" stroke-linejoin="round"/>
<path d="M10 1.3335H6C2.66666 1.3335 1.33333 2.66683 1.33333 6.00016V10.0002C1.33333 12.5202 2.09333 13.9002 3.90666 14.4135C4.05333 12.6802 5.83333 11.3135 8 11.3135C10.1667 11.3135 11.9467 12.6802 12.0933 14.4135C13.9067 13.9002 14.6667 12.5202 14.6667 10.0002V6.00016C14.6667 2.66683 13.3333 1.3335 10 1.3335ZM8 9.44682C6.68 9.44682 5.61333 8.37351 5.61333 7.05351C5.61333 5.73351 6.68 4.66683 8 4.66683C9.32 4.66683 10.3867 5.73351 10.3867 7.05351C10.3867 8.37351 9.32 9.44682 8 9.44682Z" stroke="#125129" stroke-width="1.3" stroke-linecap="round" stroke-linejoin="round"/>
<path d="M10.3867 7.05318C10.3867 8.37318 9.32 9.44649 7.99999 9.44649C6.67999 9.44649 5.61333 8.37318 5.61333 7.05318C5.61333 5.73318 6.67999 4.6665 7.99999 4.6665C9.32 4.6665 10.3867 5.73318 10.3867 7.05318Z" stroke="#125129" stroke-linecap="round" stroke-linejoin="round"/>
</svg>
