<svg width="78" height="97" viewBox="0 0 78 97" fill="none" xmlns="http://www.w3.org/2000/svg">
<path d="M39 37.5625L0.00830078 43.096L39 48.6277L77.9918 43.096L39 37.5625Z" fill="#8DC8AA"/>
<path d="M0.00830078 43.0977V91.3732L39 96.9067V48.6294L0.00830078 43.0977Z" fill="#177A48"/>
<path d="M15.6953 45.3223V54.753L23.3131 55.8345V46.402L15.6953 45.3223ZM19.5033 78.0403V91.4558L36.0111 93.799V80.3818L19.5033 78.0403Z" fill="#8DC8AA"/>
<path d="M54.687 39.7891L15.6953 45.3226L23.3131 46.4023L62.3048 40.8706L54.687 39.7891Z" fill="#F0E5C8"/>
<path d="M77.9917 43.0977V91.3732L39 96.9067V48.6294L77.9917 43.0977ZM28.0152 86.8529L21.521 85.9307V86.8459L28.0152 87.7682V86.8529ZM25.9502 88.3999L21.521 87.7699V88.6852L25.9502 89.3134V88.3999ZM28.0152 85.0154L21.521 84.0949V85.0102L28.0152 85.9307V85.0154ZM22.3995 82.4727C22.3995 82.1769 22.5972 81.9792 22.8405 82.0317C22.9717 82.0756 23.0852 82.1605 23.1643 82.274C23.2434 82.3875 23.2839 82.5234 23.2797 82.6617C23.2797 82.9574 23.082 83.1552 22.8405 83.1027C22.709 83.059 22.5951 82.9742 22.5156 82.8607C22.4362 82.7472 22.3955 82.6111 22.3995 82.4727ZM24.251 82.7562C24.251 82.4604 24.447 82.2627 24.6902 82.3152C24.8217 82.3586 24.9356 82.4434 25.0148 82.557C25.094 82.6706 25.1342 82.8068 25.1295 82.9452C25.1295 83.2409 24.9335 83.4387 24.6902 83.3862C24.5589 83.3425 24.4452 83.2576 24.3661 83.1441C24.2869 83.0305 24.2466 82.8945 24.251 82.7562ZM26.1025 83.0379C26.1025 82.7422 26.3002 82.5462 26.5435 82.5969C26.6747 82.6408 26.7882 82.7258 26.8673 82.8393C26.9464 82.9527 26.9869 83.0886 26.9827 83.2269C26.9827 83.5226 26.785 83.7204 26.5435 83.6697C26.4117 83.626 26.2976 83.5408 26.2181 83.427C26.1386 83.3132 26.0981 83.1767 26.1025 83.0379ZM34.1367 85.9062L29.1597 85.2062C29.1597 86.4644 29.872 87.6317 30.859 88.1479C30.9932 88.2162 31.1065 88.3193 31.1872 88.4465C31.2679 88.5737 31.3129 88.7201 31.3175 88.8706V90.3267L30.3567 90.1919V90.4719L32.9397 90.8342V90.5559L31.979 90.4194V88.9634C31.9754 88.8268 32.0191 88.6932 32.1026 88.5852C32.1862 88.4771 32.3045 88.4011 32.4375 88.3702C33.4245 88.1374 34.1367 87.1714 34.1367 85.9062Z" fill="#125129"/>
<path d="M47.9669 85.7228L50.4554 81.0625L52.9456 85.0245L51.8291 85.8243L51.0994 84.6623V90.8275L49.8131 91.0078V84.8425L49.0817 86.211L47.9669 85.7228ZM42.4316 86.5015L44.9201 81.8413L47.4086 85.8015L46.2939 86.603L45.5641 85.441V91.6062L44.2761 91.7865V85.6213L43.5464 86.988L42.4316 86.5015ZM42.8814 93.9373L52.7286 92.553V91.3735L42.8814 92.7578V93.9373Z" fill="#09311D"/>
<path d="M29.0427 0.09375L10.5942 1.92075L50.7935 3.74949L69.242 1.92075L29.0427 0.09375Z" fill="#8DC8AA"/>
<path d="M10.5942 1.92188V41.5944L50.7935 43.4231V3.75062L10.5942 1.92188Z" fill="#177A48"/>
<path d="M27.4009 2.68555V10.221L33.9861 10.5203V2.98479L27.4009 2.68555Z" fill="#8DC8AA"/>
<path d="M69.242 1.92188V41.5944L50.7935 43.4231V3.75062L69.242 1.92188Z" fill="#125129"/>
<path d="M45.8494 0.857422L27.4009 2.68617L33.9861 2.98542L52.4346 1.15842L45.8494 0.857422Z" fill="#F0E5C8"/>
</svg>
