<svg width="125" height="94" viewBox="0 0 125 94" fill="none" xmlns="http://www.w3.org/2000/svg">
<path d="M112.757 31.2973L62.7281 45.5633L12.6841 31.2973L62.7131 17.0303L112.757 31.2973Z" fill="#F0E5C8"/>
<path d="M112.757 31.3008V78.9318L62.7232 93.1968L12.6802 78.9318V31.3008L62.7232 45.5758L112.757 31.3008Z" fill="#125129"/>
<path d="M62.7236 45.5661L48.8271 61.9547C38.5008 59.0201 11.0998 51.2345 0.767822 48.3074C0.838135 48.2072 2.79262 45.4193 12.6905 31.3008L62.7236 45.5661ZM124.679 48.3075C115.463 50.9252 85.5198 59.4302 76.62 61.9547L62.7236 45.5661L112.757 31.3008L124.679 48.3075Z" fill="#125129"/>
<path d="M112.765 31.3122L124.687 14.3032L76.6281 0.660156L62.7261 17.0462L112.765 31.3122Z" fill="#125129"/>
<path d="M62.7237 17.0352L12.6906 31.3005L4.14737 20.8931C4.24709 20.6937 4.24709 20.4445 4.14737 20.1554C3.62897 18.6701 2.6122 17.9324 1.3661 17.4938L1.27637 17.3941C2.99101 17.7131 4.72557 17.9424 6.43019 17.4639C7.71619 17.115 8.36412 16.0284 7.53676 14.5928C7.43704 14.4234 7.33737 14.2539 7.21776 14.1144C8.20465 13.8053 9.2115 12.948 9.58034 11.9412C31.8804 5.49115 45.0993 1.66771 50.8011 0.0185547L62.7237 17.0352Z" fill="#125129"/>
<path d="M62.725 61.8819C62.4495 61.8819 62.2266 62.1048 62.2266 62.3803V93.0011C62.2266 93.2766 62.4495 93.4995 62.725 93.4995C63.0005 93.4995 63.2235 93.2766 63.2235 93.0011V62.3803C63.2235 62.1048 63.0005 61.8819 62.725 61.8819ZM62.7211 39.5145C62.9967 39.5145 63.2196 39.2916 63.2196 39.0161C63.1867 15.7606 63.2898 17.029 63.1439 16.7819C63.0481 16.6172 59.7091 11.8695 58.3929 9.98794C58.2352 9.76208 57.9247 9.70758 57.6988 9.86625C57.4739 10.024 57.4184 10.3345 57.5771 10.5604L61.9112 16.7431L19.9062 28.7212C19.6414 28.7962 19.4876 29.0717 19.5635 29.3365C19.6412 29.6097 19.9268 29.7542 20.1788 29.6791L62.2227 17.6903V39.0161C62.2227 39.2916 62.4456 39.5145 62.7211 39.5145ZM62.3483 45.2417L48.6539 61.3825L12.4014 51.0915C12.1351 51.015 11.8637 51.1691 11.7871 51.4315L11.594 51.3774C11.5301 51.6009 11.5228 51.0875 12.6806 59.2129V59.5618L30.484 57.2618L48.69 62.43C48.8735 62.4818 49.0784 62.4245 49.2059 62.2722L63.1076 45.8861C63.2858 45.6768 63.2605 45.3624 63.0502 45.1842C62.8409 45.0061 62.5265 45.0304 62.3483 45.2417ZM114.681 50.6271L76.7952 61.3825L64.9622 47.4359C64.785 47.2257 64.4705 47.1994 64.2603 47.3785C64.05 47.5567 64.0247 47.8711 64.2028 48.0804L76.2432 62.2722C76.3706 62.4244 76.5755 62.4818 76.7592 62.43L96.536 56.8155L112.757 56.302V52.2107L114.954 51.587C115.219 51.5111 115.372 51.2356 115.297 50.9708C115.222 50.7069 114.948 50.5522 114.681 50.6271Z" fill="black"/>
</svg>
