<svg width="91" height="90" viewBox="0 0 91 90" fill="none" xmlns="http://www.w3.org/2000/svg">
<rect x="0.25" width="90" height="90" rx="45" fill="#F0E5C8"/>
<path d="M63.436 40.7043V60.7431C63.436 61.8746 62.5192 62.7912 61.3879 62.7912H29.111C27.9797 62.7912 27.063 61.8746 27.063 60.7431V40.7043C27.063 40.3424 27.1564 40.0031 27.3219 39.7082L28.1156 38.9142L43.7216 23.3083C44.5654 22.4646 45.9335 22.4646 46.7772 23.3083L62.3832 38.9144L63.1771 39.7084C63.3477 40.0125 63.4369 40.3556 63.436 40.7043Z" fill="#125129"/>
<path d="M60.6363 29.749V60.8935C60.6363 61.9417 59.7869 62.7922 58.7377 62.7922H31.7615C30.7108 62.7922 29.8628 61.9416 29.8628 60.8935V29.749C29.8628 28.7008 30.7108 27.8503 31.7615 27.8503H58.7375C59.7869 27.8503 60.6363 28.7008 60.6363 29.749Z" fill="#B3DBC7"/>
<path d="M46.3727 38.4682C46.3727 38.9694 45.9651 39.3771 45.4627 39.3771H36.8842C36.6432 39.3771 36.412 39.2813 36.2416 39.1109C36.0711 38.9404 35.9754 38.7093 35.9753 38.4682C35.9753 38.2162 36.0766 37.9896 36.2412 37.8251C36.3256 37.7406 36.4259 37.6736 36.5363 37.628C36.6466 37.5824 36.7649 37.559 36.8843 37.5592H45.4628C45.9652 37.5594 46.3727 37.9656 46.3727 38.4682ZM54.5235 34.9782C54.5235 35.4794 54.1158 35.8871 53.6132 35.8871H36.8842C36.6432 35.8871 36.412 35.7913 36.2416 35.6209C36.0711 35.4504 35.9754 35.2193 35.9753 34.9782C35.9753 34.7275 36.0766 34.4999 36.2412 34.3351C36.3256 34.2505 36.4258 34.1833 36.5361 34.1374C36.6465 34.0916 36.7648 34.068 36.8843 34.068H53.6133C53.8547 34.0681 54.0862 34.164 54.2569 34.3347C54.4275 34.5054 54.5234 34.7369 54.5235 34.9782ZM46.3727 47.0669C46.3727 47.5681 45.9651 47.9757 45.4627 47.9757H36.8842C36.6432 47.9757 36.412 47.88 36.2415 47.7095C36.0711 47.5391 35.9753 47.3079 35.9753 47.0669C35.9753 46.815 36.0766 46.5882 36.2412 46.4237C36.3256 46.3393 36.4259 46.2723 36.5363 46.2267C36.6466 46.1811 36.7649 46.1578 36.8843 46.158H45.4628C45.9652 46.1581 46.3727 46.5644 46.3727 47.0669ZM54.5235 43.577C54.5235 44.0781 54.1158 44.4859 53.6132 44.4859H36.8842C36.6432 44.4858 36.412 44.3901 36.2416 44.2196C36.0711 44.0492 35.9754 43.818 35.9753 43.577C35.9753 43.3262 36.0766 43.0986 36.2412 42.9339C36.3256 42.8492 36.4258 42.782 36.5362 42.7362C36.6465 42.6904 36.7648 42.6668 36.8843 42.6669H53.6133C53.8547 42.6669 54.0862 42.7628 54.2568 42.9335C54.4275 43.1042 54.5234 43.3356 54.5235 43.577ZM46.3727 55.6657C46.3727 56.1669 45.9651 56.5745 45.4627 56.5745H36.8842C36.6432 56.5745 36.412 56.4788 36.2416 56.3083C36.0711 56.1379 35.9754 55.9068 35.9753 55.6657C35.9753 55.4137 36.0766 55.187 36.2412 55.0226C36.3256 54.9381 36.4259 54.8711 36.5363 54.8255C36.6466 54.7799 36.7649 54.7565 36.8843 54.7567H45.4628C45.9652 54.7569 46.3727 55.1631 46.3727 55.6657ZM54.5235 52.1757C54.5235 52.677 54.1158 53.0846 53.6132 53.0846H36.8842C36.6432 53.0846 36.412 52.9889 36.2415 52.8184C36.0711 52.648 35.9753 52.4168 35.9753 52.1757C35.9753 51.925 36.0766 51.6974 36.2412 51.5326C36.3256 51.448 36.4258 51.3808 36.5362 51.335C36.6465 51.2892 36.7648 51.2656 36.8843 51.2656H53.6133C53.8547 51.2657 54.0862 51.3616 54.2568 51.5323C54.4275 51.7029 54.5234 51.9344 54.5235 52.1757Z" fill="#EEF7F2"/>
<path d="M48.2315 61.1036L46.7773 62.5578C45.9336 63.4015 44.5655 63.4015 43.7217 62.5578L42.2676 61.1036H48.2315Z" fill="#41A472"/>
<path d="M63.436 44.5359V64.5747C63.436 65.7052 62.5192 66.6227 61.3879 66.6227H29.111C27.9797 66.6227 27.063 65.7052 27.063 64.5747V44.5359C27.063 44.2007 27.1434 43.8846 27.2866 43.6052L43.7216 60.0402C44.5654 60.8841 45.9335 60.8841 46.7772 60.0402L63.2122 43.6052C63.3599 43.8932 63.4367 44.2122 63.436 44.5359Z" fill="#177A48"/>
</svg>
