<svg width="71" height="70" viewBox="0 0 71 70" fill="none" xmlns="http://www.w3.org/2000/svg">
<rect x="0.691406" y="0.128418" width="69.7513" height="69.7513" rx="16.1182" fill="#125129"/>
<path d="M10.5498 29.3931H61.32C61.0935 30.3252 60.8175 31.2052 60.4634 32.0383C59.4063 34.4571 57.5682 36.4202 55.678 38.3599C53.9648 40.1485 51.9002 41.5336 49.635 42.7912C47.5443 43.9498 45.4302 45.3844 42.9854 45.9884C40.7203 46.543 38.2755 46.819 35.7839 46.819C33.2923 46.819 30.949 46.1628 28.6813 45.5848C26.2391 44.9808 23.8464 44.4523 21.7557 43.2937C19.4906 42.0335 17.3999 40.4479 15.6867 38.6593C13.7991 36.7196 12.5129 34.2774 11.4559 31.8352C11.1044 31.0542 10.7998 30.2236 10.5498 29.3931Z" fill="#F0E5C8"/>
<path d="M61.9996 23.5509C61.9996 24.634 61.9241 25.7666 61.7992 26.8757H9.89381C9.71676 25.8187 9.61523 24.7356 9.61523 23.6525C13.1665 22.2934 13.3175 23.3999 17.0954 23.905C20.8237 24.3841 20.8472 23.905 24.5989 23.905C28.3507 23.905 28.3273 23.7045 32.053 23.7045C35.7788 23.7045 35.8048 23.905 39.5332 23.905C43.2615 23.905 43.285 23.3765 47.0133 23.3765C50.7417 23.3765 50.7417 24.207 54.4935 24.207C58.2453 24.207 58.4483 22.1918 61.997 23.5509H61.9996Z" fill="#F0E5C8"/>
</svg>
